<svg
  width="13"
  height="15"
  viewBox="0 0 13 15"
  fill="none"
  
>
  <path
    d="M7.4375 9.0625C10.0898 9.0625 12.25 11.2227 12.25 13.875C12.25 14.3672 11.8398 14.75 11.375 14.75H0.875C0.382812 14.75 0 14.3672 0 13.875C0 11.2227 2.13281 9.0625 4.8125 9.0625H7.4375ZM1.3125 13.4375H10.9102C10.6914 11.7148 9.21484 10.375 7.4375 10.375H4.8125C3.00781 10.375 1.53125 11.7148 1.3125 13.4375ZM6.125 7.75C4.18359 7.75 2.625 6.19141 2.625 4.25C2.625 2.33594 4.18359 0.75 6.125 0.75C8.03906 0.75 9.625 2.33594 9.625 4.25C9.625 6.19141 8.03906 7.75 6.125 7.75ZM6.125 2.0625C4.89453 2.0625 3.9375 3.04688 3.9375 4.25C3.9375 5.48047 4.89453 6.4375 6.125 6.4375C7.32812 6.4375 8.3125 5.48047 8.3125 4.25C8.3125 3.04688 7.32812 2.0625 6.125 2.0625Z"
    fill="currentColor"
  />
</svg>
