<svg width="10" height="10" viewBox="0 0 10 10" fill="none" >
<path d="M9.61328 9.01562C9.44922 9.17969 9.14844 9.17969 8.98438 9.01562L5.375 5.37891L1.73828 9.01562C1.57422 9.17969 1.27344 9.17969 1.10937 9.01562C0.945312 8.85156 0.945312 8.55078 1.10937 8.38672L4.74609 4.75L1.10937 1.14062C0.945312 0.976562 0.945312 0.675781 1.10937 0.511719C1.27344 0.347656 1.57422 0.347656 1.73828 0.511719L5.375 4.14844L8.98438 0.511719C9.14844 0.347656 9.44922 0.347656 9.61328 0.511719C9.77734 0.675781 9.77734 0.976563 9.61328 1.14063L5.97656 4.75L9.61328 8.38672C9.77734 8.55078 9.77734 8.85156 9.61328 9.01562Z" fill="#CBCCCD"/>
</svg>
