<svg width="73" height="52" viewBox="0 0 73 52" fill="none" >
<path d="M70.5742 12.7695C71.707 13.2227 72.5 14.2422 72.5 15.375C72.5 16.6211 71.707 17.6406 70.5742 18.0938L38.6289 29.5352C37.8359 29.7617 37.043 29.875 36.25 29.875C35.3438 29.875 34.5508 29.7617 33.7578 29.5352L10.7617 21.2656C9.74219 22.8516 8.94922 24.5508 8.49609 26.4766V26.5898C9.85547 27.043 10.875 28.4023 10.875 29.875C10.875 31.3477 9.96875 32.4805 8.83594 33.1602C8.83594 33.2734 8.94922 33.2734 8.94922 33.3867L11.668 50.6055C11.7812 51.1719 11.4414 51.625 10.9883 51.625C10.875 51.625 10.875 51.625 10.7617 51.625C10.4219 51.625 9.96875 51.3984 9.96875 50.9453L7.25 33.7266C7.13672 33.6133 7.25 33.6133 7.25 33.5C7.13672 33.5 7.13672 33.5 7.13672 33.5C7.13672 33.6133 7.25 33.6133 7.25 33.7266L4.41797 50.9453C4.41797 51.3984 3.96484 51.625 3.625 51.625C3.51172 51.625 3.51172 51.625 3.39844 51.625C2.94531 51.625 2.60547 51.1719 2.71875 50.6055L5.4375 33.3867C5.4375 33.2734 5.55078 33.2734 5.55078 33.1602C4.41797 32.4805 3.625 31.3477 3.625 29.875C3.625 28.0625 4.98438 26.5898 6.79688 26.3633C6.79688 26.25 6.68359 26.25 6.68359 26.1367C7.13672 24.0977 7.92969 22.2852 9.0625 20.6992L1.8125 18.0938C0.679688 17.6406 0 16.6211 0 15.375C0 14.2422 0.679688 13.2227 1.8125 12.7695L33.7578 1.32812C34.5508 1.10156 35.3438 0.875 36.25 0.875C37.043 0.875 37.8359 1.10156 38.5156 1.32812L70.5742 12.7695ZM9.0625 29.875C9.0625 28.9688 8.15625 28.0625 7.25 28.0625C6.23047 28.0625 5.4375 28.9688 5.4375 29.875C5.4375 30.8945 6.23047 31.6875 7.25 31.6875C8.15625 31.6875 9.0625 30.8945 9.0625 29.875ZM70.0078 16.2812C70.3477 16.168 70.6875 15.8281 70.6875 15.375C70.6875 15.0352 70.3477 14.6953 70.0078 14.4688L37.9492 3.02734C37.3828 2.80078 36.8164 2.6875 36.25 2.6875C35.5703 2.6875 35.0039 2.80078 34.4375 3.02734L2.37891 14.4688C2.03906 14.6953 1.8125 15.0352 1.8125 15.375C1.8125 15.8281 2.03906 16.168 2.37891 16.2812L10.082 19.1133C12.9141 15.7148 16.8789 13.3359 21.4102 12.7695L36.1367 10.957C36.5898 10.8438 37.043 11.1836 37.043 11.75C37.043 12.2031 36.7031 12.6562 36.25 12.6562L21.6367 14.582C17.7852 15.0352 14.3867 16.9609 11.8945 19.793L34.4375 27.8359C35.0039 28.0625 35.5703 28.0625 36.25 28.0625C36.8164 28.0625 37.3828 28.0625 37.9492 27.8359L70.0078 16.2812ZM56.1875 27.2695C56.6406 27.1562 57.0938 27.4961 57.207 28.0625L58.793 42.2227C58.9062 47.5469 48.9375 51.625 36.25 51.625C23.4492 51.625 13.5938 47.5469 13.5938 42.3359L15.1797 28.0625C15.293 27.4961 15.7461 27.1562 16.1992 27.2695C16.7656 27.2695 17.1055 27.7227 16.9922 28.1758L15.293 42.4492C15.4062 45.9609 23.6758 49.8125 36.25 49.8125C48.7109 49.8125 57.0938 45.9609 57.0938 42.3359L55.3945 28.1758C55.2812 27.7227 55.6211 27.2695 56.1875 27.2695Z" fill="#3C3D3E"/>
</svg>
