<svg width="14" height="16" viewBox="0 0 14 16" fill="none" >
<path d="M13.4062 2.9375C13.7812 3.3125 14 3.8125 14 4.34375V11C14 12.125 13.0938 13 12 13H5C3.875 13 3 12.125 3 11V2C3 0.90625 3.875 0 5 0H9.65625C10.1875 0 10.6875 0.21875 11.0625 0.59375L13.4062 2.9375ZM12.5 11H12.4688V5H10C9.4375 5 9 4.5625 9 4V1.53125H5C4.71875 1.53125 4.5 1.75 4.5 2.03125V11C4.5 11.2812 4.71875 11.5 5 11.5H12C12.25 11.5 12.5 11.2812 12.5 11ZM10.25 16C10.6562 16 11 15.6875 11 15.25C11 14.8438 10.6562 14.5 10.25 14.5H3.75C2.5 14.5 1.5 13.5 1.5 12.25V3.75C1.5 3.34375 1.15625 3 0.75 3C0.3125 3 0 3.34375 0 3.75V12.25C0 14.3438 1.65625 16 3.75 16H10.25Z" fill="#3C3D3E"/>
</svg>
