<svg width="12" height="11" viewBox="0 0 12 11" fill="none" >
<path d="M3.5625 3.8125H9.91406L6.9375 1.25781C6.70312 1.04688 6.67969 0.695312 6.86719 0.460938C7.07812 0.226562 7.42969 0.203125 7.66406 0.390625L11.7891 3.92969C11.9062 4.07031 12 4.21094 12 4.375C12 4.53906 11.9062 4.70312 11.7891 4.82031L7.66406 8.35938C7.57031 8.45312 7.42969 8.5 7.3125 8.5C7.14844 8.5 6.98438 8.42969 6.86719 8.28906C6.67969 8.05469 6.70312 7.70312 6.9375 7.49219L9.91406 4.9375H3.5625C2.20312 4.9375 1.125 6.01562 1.125 7.35156V10.1406C1.125 10.5156 0.867188 10.75 0.5625 10.75C0.234375 10.75 0 10.5156 0 10.1875V7.39844C0 5.42969 1.59375 3.8125 3.5625 3.8125Z" fill="#3C3D3E"/>
</svg>
