<svg width="24" height="16" viewBox="0 0 24 16" fill="none" >
<rect x="0.499674" y="0.166667" width="23" height="15.6667" rx="1.16667" fill="white" stroke="#D9D9D9" stroke-width="0.333333"/>
<path fill-rule="evenodd" clip-rule="evenodd" d="M12.167 11.4327C11.3726 12.1183 10.3422 12.5321 9.21617 12.5321C6.70373 12.5321 4.66699 10.4717 4.66699 7.93012C4.66699 5.38851 6.70373 3.32812 9.21617 3.32812C10.3422 3.32812 11.3726 3.74197 12.167 4.4275C12.9614 3.74197 13.9919 3.32812 15.1179 3.32812C17.6303 3.32812 19.667 5.38851 19.667 7.93012C19.667 10.4717 17.6303 12.5321 15.1179 12.5321C13.9919 12.5321 12.9614 12.1183 12.167 11.4327Z" fill="#ED0006"/>
<path fill-rule="evenodd" clip-rule="evenodd" d="M12.167 11.4327C13.1451 10.5886 13.7653 9.33265 13.7653 7.93012C13.7653 6.52758 13.1451 5.27159 12.167 4.4275C12.9614 3.74197 13.9918 3.32812 15.1178 3.32812C17.6303 3.32812 19.667 5.38851 19.667 7.93012C19.667 10.4717 17.6303 12.5321 15.1178 12.5321C13.9918 12.5321 12.9614 12.1183 12.167 11.4327Z" fill="#F9A000"/>
<path fill-rule="evenodd" clip-rule="evenodd" d="M12.1667 11.4349C13.1448 10.5908 13.765 9.33483 13.765 7.9323C13.765 6.52977 13.1448 5.27378 12.1667 4.42969C11.1886 5.27378 10.5684 6.52977 10.5684 7.9323C10.5684 9.33483 11.1886 10.5908 12.1667 11.4349Z" fill="#FF5E00"/>
</svg>
