<svg width="58" height="60" viewBox="0 0 58 60" fill="none" >
<path d="M52.5625 20.168C55.7344 21.5273 58 24.8125 58 28.4375C58 32.1758 55.7344 35.3477 52.5625 36.8203V52C52.5625 55.2852 48.7109 56.8711 46.332 54.7188L41.3477 49.9609C36.9297 45.6562 31.2656 42.8242 25.375 41.6914V39.8789C31.832 41.0117 37.8359 44.0703 42.5938 48.6016L47.5781 53.3594C48.8242 54.4922 50.75 53.6992 50.75 52V4.875C50.75 3.28906 48.8242 2.49609 47.5781 3.62891L42.5938 8.38672C37.8359 12.918 31.832 15.9766 25.375 17.1094V15.2969C31.2656 14.1641 36.9297 11.332 41.3477 7.02734L46.332 2.26953C48.7109 0.117188 52.5625 1.70312 52.5625 4.875V20.168ZM52.5625 34.7812C54.7148 33.5352 56.1875 31.1562 56.1875 28.4375C56.1875 25.832 54.7148 23.4531 52.5625 22.207V34.7812ZM21.75 54.7188C21.75 57.3242 19.7109 59.25 17.2188 59.25H11.7812C9.17578 59.25 7.25 57.3242 7.25 54.7188V41.125C3.17188 41.125 0 37.9531 0 33.875V23C0 19.0352 3.17188 15.75 7.25 15.75H19.4844C20.2773 15.75 20.957 15.75 21.75 15.75V54.7188ZM19.9375 41.125C19.7109 41.125 19.5977 41.125 19.4844 41.125H9.0625V54.7188C9.0625 56.3047 10.1953 57.4375 11.7812 57.4375H17.2188C18.6914 57.4375 19.9375 56.3047 19.9375 54.7188V41.125ZM19.4844 39.3125C19.5977 39.3125 19.7109 39.3125 19.9375 39.3125V17.5625C19.7109 17.5625 19.5977 17.5625 19.4844 17.5625H7.25C4.19141 17.5625 1.8125 20.0547 1.8125 23V33.875C1.8125 36.9336 4.19141 39.3125 7.25 39.3125H19.4844Z" fill="#3C3D3E"/>
</svg>
