<svg
height="59"
width="44"
  viewBox="0 0 44 59"
  fill="none"
  
>
  <path
    d="M35.3438 25.625C35.7969 25.625 36.25 26.0781 36.25 26.5312C36.25 27.0977 35.7969 27.4375 35.3438 27.4375H8.15625C7.58984 27.4375 7.25 27.0977 7.25 26.5312C7.25 26.0781 7.58984 25.625 8.15625 25.625H35.3438ZM24.4688 36.5C24.9219 36.5 25.375 36.9531 25.375 37.4062C25.375 37.9727 24.9219 38.3125 24.4688 38.3125H8.15625C7.58984 38.3125 7.25 37.9727 7.25 37.4062C7.25 36.9531 7.58984 36.5 8.15625 36.5H24.4688ZM36.25 0.25C40.2148 0.25 43.5 3.53516 43.5 7.5V51C43.5 55.0781 40.2148 58.25 36.25 58.25H7.25C3.17188 58.25 0 55.0781 0 51V7.5C0 3.53516 3.17188 0.25 7.25 0.25H36.25ZM41.6875 51V7.5C41.6875 4.55469 39.1953 2.0625 36.25 2.0625H7.25C4.19141 2.0625 1.8125 4.55469 1.8125 7.5V51C1.8125 54.0586 4.19141 56.4375 7.25 56.4375H36.25C39.1953 56.4375 41.6875 54.0586 41.6875 51ZM35.3438 14.75C35.7969 14.75 36.25 15.2031 36.25 15.6562C36.25 16.2227 35.7969 16.5625 35.3438 16.5625H8.15625C7.58984 16.5625 7.25 16.2227 7.25 15.6562C7.25 15.2031 7.58984 14.75 8.15625 14.75H35.3438Z"
    fill="currentColor"
  />
</svg>
