<svg width="58" height="59" viewBox="0 0 58 59" fill="none" >
<g clip-path="url(#clip0_1042_7041)">
<path d="M57.0929 24.0481L42.0949 16.7459V10.1375C42.0949 9.87753 41.9697 9.6321 41.7596 9.47901L29.2536 0.402959C28.9692 0.196409 28.5829 0.196409 28.2974 0.402959L15.7914 9.48022C15.5799 9.63331 15.456 9.87753 15.456 10.1388V16.7471L0.45684 24.0481C0.17739 24.1842 0 24.4685 0 24.7795V57.9271C0 58.3767 0.3645 58.74 0.812835 58.74H56.7369C57.1864 58.74 57.5497 58.3755 57.5497 57.9271V24.7795C57.5497 24.4685 57.3723 24.1842 57.0929 24.0481ZM55.924 26.6725L42.0961 20.1965V18.5575L55.924 25.2898V26.6737V26.6725ZM41.7559 46.9326L40.6709 46.9399V45.929H41.7559V46.9326ZM17.0817 10.5531L28.7748 2.06629L40.468 10.5531V44.3021H39.8581C39.4085 44.3021 39.0452 44.6666 39.0452 45.115V47.7588C39.0452 47.9751 39.1315 48.1828 39.2858 48.3359C39.4377 48.4878 39.6442 48.5716 39.8593 48.5716H39.8654L40.4704 48.568V54.4692H39.8605C39.411 54.4692 39.0477 54.8337 39.0477 55.2821V57.1119H36.2009V42.4699C36.2009 42.1795 36.0454 41.9098 35.7939 41.7652L29.1843 37.9598C28.9328 37.8152 28.6242 37.8152 28.3727 37.9598L21.7631 41.7652C21.5116 41.9098 21.3561 42.1795 21.3561 42.4699V57.1119H18.5093V55.2821C18.5093 54.8325 18.1448 54.4692 17.6965 54.4692H17.0865V48.568L17.6916 48.5716H17.6977C17.9127 48.5716 18.1181 48.4866 18.2712 48.3359C18.4255 48.1828 18.5117 47.9751 18.5117 47.7588V45.115C18.5117 44.6654 18.1472 44.3021 17.6989 44.3021H17.089V10.5531H17.0817ZM40.6721 56.0973H41.7571V57.1143H40.6721V56.0973ZM26.0241 47.1489H31.5268V57.1131H26.0241V47.1489ZM26.0994 45.522C26.4032 44.1369 27.6097 43.5087 28.7748 43.5087C29.94 43.5087 31.1465 44.1381 31.4503 45.522H26.0994ZM33.144 45.9254C32.9873 43.1479 30.7687 41.8818 28.7748 41.8818C26.781 41.8818 24.5624 43.1467 24.4057 45.9254C24.3996 46.0323 24.3972 46.1404 24.3972 46.2486V57.1143H22.9793V42.9425L28.7748 39.6061L34.5704 42.9425V57.1143H33.1525V46.2486C33.1525 46.1404 33.1501 46.0323 33.144 45.9254ZM15.7938 56.0973H16.8788V57.1143H15.7938V56.0973ZM15.7938 45.929H16.8788V46.9399L15.7938 46.9326V45.929ZM15.4548 18.5563V20.1953L1.62689 26.6725V25.2886L15.4548 18.5563ZM1.62689 28.4682L15.4548 21.9923V44.3021H14.9797C14.5302 44.3021 14.1669 44.6666 14.1669 45.115V47.7394C14.1669 48.1865 14.5278 48.5498 14.9749 48.5522L15.4548 48.5558V54.4692H14.9797C14.5302 54.4692 14.1669 54.8337 14.1669 55.2821V57.1119H13.2605V50.4549C13.2605 48.3627 12.1974 46.4114 10.4855 45.3604C10.4855 45.3604 10.466 45.3482 10.4648 45.3482C9.05418 44.4905 7.29972 44.4904 5.89275 45.3458L5.86845 45.3604C4.15652 46.4114 3.09339 48.3627 3.09339 50.4549V57.1119H1.6281V28.467L1.62689 28.4682ZM8.98979 57.1143H7.3629V49.9968H8.98979V57.1143ZM9.80262 48.3699H6.54885C6.0993 48.3699 5.73602 48.7344 5.73602 49.1828V57.1143H4.71906V50.4573C4.71906 48.9276 5.48572 47.5061 6.73353 46.7406C7.62291 46.2 8.72978 46.2 9.63495 46.7491C10.8682 47.5061 11.6336 48.9264 11.6336 50.4561V57.1131H10.6167V49.1816C10.6167 48.732 10.2522 48.3687 9.80384 48.3687L9.80262 48.3699ZM52.8306 57.1143H51.8137V49.1828C51.8137 48.7332 51.4492 48.3699 51.0008 48.3699H47.7471C47.2975 48.3699 46.9342 48.7344 46.9342 49.1828V57.1143H45.9173V50.4573C45.9173 48.9276 46.6839 47.5061 47.9318 46.7406C48.8223 46.2 49.928 46.2 50.832 46.7491C52.0652 47.5061 52.8318 48.9264 52.8318 50.4561V57.1131L52.8306 57.1143ZM50.1868 57.1143H48.5599V49.9968H50.1868V57.1143ZM54.4575 57.1143V50.4573C54.4575 48.3651 53.3944 46.4138 51.6946 45.3713L51.6618 45.3507C50.2512 44.4929 48.4967 44.4929 47.0898 45.3482L47.0655 45.3628C45.3535 46.4138 44.2904 48.3651 44.2904 50.4573V57.1143H43.384V55.2845C43.384 54.835 43.0195 54.4717 42.5712 54.4717H42.0973V48.5583L42.5772 48.5546C43.0244 48.551 43.3852 48.1877 43.3852 47.7418V45.1174C43.3852 44.6678 43.0207 44.3046 42.5724 44.3046H42.0985V21.9947L55.9265 28.4707V57.1155H54.4612L54.4575 57.1143Z" fill="#3C3D3E"/>
<path d="M28.7152 13.7893C28.7347 13.7905 28.7553 13.7917 28.7748 13.7917C28.7942 13.7917 28.8149 13.7917 28.8343 13.7893C30.6823 13.6544 32.1306 12.0956 32.1306 10.2403C32.1306 8.38499 30.6823 6.82614 28.8343 6.69128C28.7954 6.68885 28.7553 6.68885 28.7152 6.69128C26.8672 6.82614 25.4189 8.38499 25.4189 10.2403C25.4189 12.0956 26.8672 13.6544 28.7152 13.7893ZM27.047 10.2403C27.047 10.1917 27.0507 10.1431 27.0543 10.0957L28.0919 10.3557L27.0908 10.6425C27.0628 10.5125 27.047 10.3788 27.047 10.2415V10.2403ZM27.3739 9.17231L28.1891 9.96084L27.126 9.69476C27.1819 9.50765 27.2657 9.33147 27.3727 9.17231H27.3739ZM30.4235 9.69476L29.3604 9.96084L30.1757 9.17231C30.2826 9.33147 30.3676 9.50765 30.4223 9.69476H30.4235ZM30.5037 10.2403C30.5037 10.3776 30.4879 10.5112 30.46 10.6412L29.4588 10.3545L30.4964 10.0945C30.5001 10.1419 30.5037 10.1905 30.5037 10.2391V10.2403ZM30.0517 11.4747L29.347 10.7457L30.3312 11.0276C30.2583 11.1892 30.1635 11.3399 30.0517 11.4747ZM29.3045 12.0276L29.0554 11.0288L29.7626 11.7603C29.6241 11.8696 29.471 11.9607 29.3045 12.0288V12.0276ZM27.7882 11.7603L28.4953 11.0288L28.2462 12.0276C28.081 11.9595 27.9267 11.8684 27.7882 11.759V11.7603ZM28.2025 10.7469L27.4978 11.4759C27.3848 11.3411 27.2913 11.1904 27.2184 11.0288L28.2025 10.7469ZM28.7748 12.1624C28.7286 12.1576 28.6824 12.1491 28.6363 12.1418L28.7748 11.5889L28.9133 12.1418C28.8671 12.1503 28.8222 12.1576 28.7748 12.1624ZM29.9157 8.85762L29.0773 9.66803L29.4102 8.50163C29.5973 8.59275 29.7674 8.71304 29.9157 8.85762ZM28.7748 8.31938C28.861 8.32788 28.9449 8.34489 29.0263 8.36555L28.7748 9.24764L28.5221 8.36555C28.6047 8.34611 28.6885 8.3291 28.7748 8.31938ZM28.1393 8.50284L28.4722 9.66924L27.6339 8.85884C27.7809 8.71547 27.9522 8.59397 28.1393 8.50284Z" fill="#3C3D3E"/>
<path d="M6.75304 39.5251H9.59979C10.1599 39.5251 10.6167 39.0694 10.6167 38.5081V33.8303C10.6167 32.4853 9.52203 31.3906 8.17702 31.3906C6.83202 31.3906 5.7373 32.4853 5.7373 33.8303V38.5081C5.7373 39.0682 6.19293 39.5251 6.75426 39.5251H6.75304ZM7.36297 33.8303C7.36297 33.382 7.72747 33.0175 8.17581 33.0175C8.62414 33.0175 8.98864 33.382 8.98864 33.8303V37.8969H7.36176V33.8303H7.36297Z" fill="#3C3D3E"/>
<path d="M49.3738 31.3906C48.0276 31.3906 46.9341 32.4853 46.9341 33.8303V38.5081C46.9341 39.0682 47.3897 39.5251 47.951 39.5251H50.7978C51.3579 39.5251 51.8147 39.0694 51.8147 38.5081V33.8303C51.8147 32.4853 50.72 31.3906 49.375 31.3906H49.3738ZM50.1866 37.8982H48.5598V33.8316C48.5598 33.3832 48.9242 33.0187 49.3726 33.0187C49.8209 33.0187 50.1854 33.3832 50.1854 33.8316V37.8982H50.1866Z" fill="#3C3D3E"/>
<path d="M21.15 28.6419H23.9967C24.4463 28.6419 24.8096 28.2774 24.8096 27.829V23.9653C24.8096 22.7321 23.806 21.7285 22.5728 21.7285C21.3395 21.7285 20.3359 22.7321 20.3359 23.9653V27.829C20.3359 28.2786 20.7004 28.6419 21.1488 28.6419H21.15ZM21.9628 23.9653C21.9628 23.6288 22.2362 23.3554 22.5728 23.3554C22.9093 23.3554 23.1827 23.6288 23.1827 23.9653V27.0162H21.9628V23.9653Z" fill="#3C3D3E"/>
<path d="M33.5548 28.6419H36.4015C36.8511 28.6419 37.2144 28.2774 37.2144 27.829V23.9653C37.2144 22.7321 36.2108 21.7285 34.9775 21.7285C33.7443 21.7285 32.7407 22.7321 32.7407 23.9653V27.829C32.7407 28.2786 33.1052 28.6419 33.5536 28.6419H33.5548ZM34.3676 23.9653C34.3676 23.6288 34.641 23.3554 34.9775 23.3554C35.3141 23.3554 35.5875 23.6288 35.5875 23.9653V27.0162H34.3676V23.9653Z" fill="#3C3D3E"/>
<path d="M28.832 15.6346C28.7943 15.6322 28.7555 15.6322 28.7178 15.6346C27.5526 15.7173 26.6401 16.6965 26.6401 17.8666V21.7303C26.6401 22.1798 27.0046 22.5431 27.453 22.5431H30.0968C30.5464 22.5431 30.9096 22.1786 30.9096 21.7303V17.8666C30.9096 16.6978 29.9972 15.7173 28.832 15.6346ZM29.284 20.9162H28.267V17.8654C28.267 17.5665 28.4857 17.3126 28.7749 17.264C29.0641 17.3126 29.2828 17.5665 29.2828 17.8654V20.9162H29.284Z" fill="#3C3D3E"/>
<path d="M28.832 27.8378C28.7943 27.8353 28.7555 27.8353 28.7178 27.8378C27.5526 27.9204 26.6401 28.8997 26.6401 30.0697V33.9334C26.6401 34.383 27.0046 34.7462 27.453 34.7462H30.0968C30.5464 34.7462 30.9096 34.3817 30.9096 33.9334V30.0697C30.9096 28.9009 29.9972 27.9204 28.832 27.8378ZM29.284 33.1194H28.267V30.0685C28.267 29.7696 28.4857 29.5157 28.7749 29.4671C29.0641 29.5157 29.2828 29.7696 29.2828 30.0685V33.1194H29.284Z" fill="#3C3D3E"/>
</g>
<defs>
<clipPath id="clip0_1042_7041">
<rect width="57.5509" height="58.4937" fill="white" transform="translate(0 0.25)"/>
</clipPath>
</defs>
</svg>
