<svg width="57" height="49" viewBox="0 0 57 49" fill="none" >
<g clip-path="url(#clip0_1042_7007)">
<path d="M55.8801 20.3868H31.1373L28.3905 11.9448L27.8676 10.3365L24.6843 0.5553C24.5763 0.2241 24.2676 0 23.9193 0H0.8037C0.36 0 0 0.36 0 0.8037V47.9241C0 48.3678 0.36 48.7278 0.8037 48.7278H55.8801C56.3238 48.7278 56.6838 48.3678 56.6838 47.9241V21.1905C56.6838 20.7468 56.3238 20.3868 55.8801 20.3868ZM52.8651 40.7889V47.1204H50.8554V40.7889C50.8554 39.1815 49.5477 37.8747 47.9412 37.8747C46.3347 37.8747 45.027 39.1824 45.027 40.7889V47.1204H43.0173V40.7889C43.0173 39.1815 41.7096 37.8747 40.1031 37.8747C38.4966 37.8747 37.1889 39.1824 37.1889 40.7889V47.1204H35.1792V40.7889C35.1792 39.1815 33.8715 37.8747 32.265 37.8747C30.6585 37.8747 29.3508 39.1824 29.3508 40.7889V47.1204H27.3411V40.7889C27.3411 39.1815 26.0334 37.8747 24.4269 37.8747C22.8204 37.8747 21.5127 39.1824 21.5127 40.7889V47.1204H19.503V40.7889C19.503 39.1815 18.1953 37.8747 16.5888 37.8747C14.9823 37.8747 13.6746 39.1824 13.6746 40.7889V47.1204H11.6649V40.7889C11.6649 39.1815 10.3572 37.8747 8.7507 37.8747C7.1442 37.8747 5.8365 39.1824 5.8365 40.7889V47.1204H3.8268V40.7889C3.8268 39.4245 2.8836 38.2797 1.6155 37.9638V36.7857H55.0836V37.9638C53.8155 38.2797 52.8723 39.4245 52.8723 40.7889H52.8651ZM49.2471 47.1204H46.6344V40.7889C46.6344 40.0689 47.2203 39.4821 47.9412 39.4821C48.6621 39.4821 49.248 40.068 49.248 40.7889V47.1204H49.2471ZM41.4081 47.1204H38.7954V40.7889C38.7954 40.0689 39.3813 39.4821 40.1022 39.4821C40.8231 39.4821 41.409 40.068 41.409 40.7889V47.1204H41.4081ZM33.5682 47.1204H30.9555V40.7889C30.9555 40.0689 31.5414 39.4821 32.2623 39.4821C32.9832 39.4821 33.5691 40.068 33.5691 40.7889V47.1204H33.5682ZM25.7292 47.1204H23.1165V40.7889C23.1165 40.0689 23.7024 39.4821 24.4233 39.4821C25.1442 39.4821 25.7301 40.068 25.7301 40.7889V47.1204H25.7292ZM17.8893 47.1204H15.2766V40.7889C15.2766 40.0689 15.8625 39.4821 16.5834 39.4821C17.3043 39.4821 17.8902 40.068 17.8902 40.7889V47.1204H17.8893ZM10.0503 47.1204H7.4376V40.7889C7.4376 40.0689 8.0235 39.4821 8.7444 39.4821C9.4653 39.4821 10.0512 40.068 10.0512 40.7889V47.1204H10.0503ZM1.6083 15.3675C1.9701 15.5997 2.2113 16.0056 2.2113 16.4664V19.9836H1.6083V15.3666V15.3675ZM55.0764 32.2461H54.4734V28.7289C54.4734 28.2672 54.7146 27.8622 55.0764 27.63V32.247V32.2461ZM55.0764 25.9029C53.8083 26.2188 52.8651 27.3636 52.8651 28.728V33.0498C52.8651 33.4935 53.2251 33.8535 53.6688 33.8535H55.0755V35.1774H1.6083V33.8535H3.015C3.4587 33.8535 3.8187 33.4935 3.8187 33.0498V28.728C3.8187 27.3636 2.8755 26.2188 1.6074 25.9029V25.0092H55.0755V25.9029H55.0764ZM1.6083 27.6291C1.9701 27.8613 2.2113 28.2672 2.2113 28.728V32.2452H1.6083V27.6282V27.6291ZM29.7891 21.4398C29.8971 21.771 30.2058 21.9951 30.5541 21.9951H55.0773V23.4018H1.6083V21.5928H3.015C3.4587 21.5928 3.8187 21.2328 3.8187 20.7891V16.4673C3.8187 15.1029 2.8755 13.9581 1.6074 13.6422V11.9448H26.6985L29.7882 21.4398H29.7891ZM23.3361 1.6083L26.1756 10.3365H1.6083V1.6083H23.3361ZM1.6083 39.69C1.9701 39.9222 2.2113 40.3281 2.2113 40.7889V47.1204H1.6083V39.6891V39.69ZM54.4734 47.1204V40.7889C54.4734 40.3272 54.7146 39.9222 55.0764 39.69V47.1213H54.4734V47.1204Z" fill="#3C3D3E"/>
<path d="M6.6328 33.8542H10.8538C11.2975 33.8542 11.6575 33.4942 11.6575 33.0505V28.7287C11.6575 27.1213 10.3498 25.8145 8.7433 25.8145C7.1368 25.8145 5.8291 27.1222 5.8291 28.7287V33.0505C5.8291 33.4942 6.1891 33.8542 6.6328 33.8542ZM7.4374 28.7278C7.4374 28.0078 8.0233 27.421 8.7442 27.421C9.4651 27.421 10.051 28.0069 10.051 28.7278V32.245H7.4383V28.7278H7.4374Z" fill="#3C3D3E"/>
<path d="M14.4726 33.8542H18.6936C19.1373 33.8542 19.4973 33.4942 19.4973 33.0505V28.7287C19.4973 27.1213 18.1896 25.8145 16.5831 25.8145C14.9766 25.8145 13.6689 27.1222 13.6689 28.7287V33.0505C13.6689 33.4942 14.0289 33.8542 14.4726 33.8542ZM15.2763 28.7278C15.2763 28.0078 15.8622 27.421 16.5831 27.421C17.304 27.421 17.8899 28.0069 17.8899 28.7278V32.245H15.2772V28.7278H15.2763Z" fill="#3C3D3E"/>
<path d="M6.6328 21.5924H10.8538C11.2975 21.5924 11.6575 21.2324 11.6575 20.7887V16.4669C11.6575 14.8595 10.3498 13.5527 8.7433 13.5527C7.1368 13.5527 5.8291 14.8604 5.8291 16.4669V20.7887C5.8291 21.2324 6.1891 21.5924 6.6328 21.5924ZM7.4374 16.4669C7.4374 15.7469 8.0233 15.1601 8.7442 15.1601C9.4651 15.1601 10.051 15.746 10.051 16.4669V19.9841H7.4383V16.4669H7.4374Z" fill="#3C3D3E"/>
<path d="M14.4726 21.5924H18.6936C19.1373 21.5924 19.4973 21.2324 19.4973 20.7887V16.4669C19.4973 14.8595 18.1896 13.5527 16.5831 13.5527C14.9766 13.5527 13.6689 14.8604 13.6689 16.4669V20.7887C13.6689 21.2324 14.0289 21.5924 14.4726 21.5924ZM15.2763 16.4669C15.2763 15.7469 15.8622 15.1601 16.5831 15.1601C17.304 15.1601 17.8899 15.746 17.8899 16.4669V19.9841H15.2772V16.4669H15.2763Z" fill="#3C3D3E"/>
<path d="M22.3115 33.8542H26.5325C26.9762 33.8542 27.3362 33.4942 27.3362 33.0505V28.7287C27.3362 27.1213 26.0285 25.8145 24.422 25.8145C22.8155 25.8145 21.5078 27.1222 21.5078 28.7287V33.0505C21.5078 33.4942 21.8678 33.8542 22.3115 33.8542ZM23.1152 28.7278C23.1152 28.0078 23.7011 27.421 24.422 27.421C25.1429 27.421 25.7288 28.0069 25.7288 28.7278V32.245H23.1161V28.7278H23.1152Z" fill="#3C3D3E"/>
<path d="M22.3115 21.5924H26.5325C26.9762 21.5924 27.3362 21.2324 27.3362 20.7887V16.4669C27.3362 14.8595 26.0285 13.5527 24.422 13.5527C22.8155 13.5527 21.5078 14.8604 21.5078 16.4669V20.7887C21.5078 21.2324 21.8678 21.5924 22.3115 21.5924ZM23.1152 16.4669C23.1152 15.7469 23.7011 15.1601 24.422 15.1601C25.1429 15.1601 25.7288 15.746 25.7288 16.4669V19.9841H23.1161V16.4669H23.1152Z" fill="#3C3D3E"/>
<path d="M30.1509 33.8542H34.3719C34.8156 33.8542 35.1756 33.4942 35.1756 33.0505V28.7287C35.1756 27.1213 33.8679 25.8145 32.2614 25.8145C30.6549 25.8145 29.3472 27.1222 29.3472 28.7287V33.0505C29.3472 33.4942 29.7072 33.8542 30.1509 33.8542ZM30.9555 28.7278C30.9555 28.0078 31.5414 27.421 32.2623 27.421C32.9832 27.421 33.5691 28.0069 33.5691 28.7278V32.245H30.9564V28.7278H30.9555Z" fill="#3C3D3E"/>
<path d="M37.9907 33.8542H42.2117C42.6554 33.8542 43.0154 33.4942 43.0154 33.0505V28.7287C43.0154 27.1213 41.7077 25.8145 40.1012 25.8145C38.4947 25.8145 37.187 27.1222 37.187 28.7287V33.0505C37.187 33.4942 37.547 33.8542 37.9907 33.8542ZM38.7944 28.7278C38.7944 28.0078 39.3803 27.421 40.1012 27.421C40.8221 27.421 41.408 28.0069 41.408 28.7278V32.245H38.7953V28.7278H38.7944Z" fill="#3C3D3E"/>
<path d="M45.8296 33.8542H50.0506C50.4943 33.8542 50.8543 33.4942 50.8543 33.0505V28.7287C50.8543 27.1213 49.5466 25.8145 47.9401 25.8145C46.3336 25.8145 45.0259 27.1222 45.0259 28.7287V33.0505C45.0259 33.4942 45.3859 33.8542 45.8296 33.8542ZM46.6333 28.7278C46.6333 28.0078 47.2192 27.421 47.9401 27.421C48.661 27.421 49.2469 28.0069 49.2469 28.7278V32.245H46.6342V28.7278H46.6333Z" fill="#3C3D3E"/>
<path d="M16.6831 8.92805C17.1268 8.92805 17.4868 8.56805 17.4868 8.12435V4.30565C17.4868 3.86195 17.1268 3.50195 16.6831 3.50195C16.2394 3.50195 15.8794 3.86195 15.8794 4.30565V8.12435C15.8794 8.56805 16.2394 8.92805 16.6831 8.92805Z" fill="#3C3D3E"/>
<path d="M20.3022 8.92805C20.7459 8.92805 21.1059 8.56805 21.1059 8.12435V4.30565C21.1059 3.86195 20.7459 3.50195 20.3022 3.50195C19.8585 3.50195 19.4985 3.86195 19.4985 4.30565V8.12435C19.4985 8.56805 19.8585 8.92805 20.3022 8.92805Z" fill="#3C3D3E"/>
<path d="M9.04491 8.92805C9.48861 8.92805 9.84861 8.56805 9.84861 8.12435V4.30565C9.84861 3.86195 9.48861 3.50195 9.04491 3.50195C8.60121 3.50195 8.24121 3.86195 8.24121 4.30565V8.12435C8.24121 8.56805 8.60121 8.92805 9.04491 8.92805Z" fill="#3C3D3E"/>
<path d="M5.02538 8.92805C5.46908 8.92805 5.82908 8.56805 5.82908 8.12435V4.30565C5.82908 3.86195 5.46908 3.50195 5.02538 3.50195C4.58168 3.50195 4.22168 3.86195 4.22168 4.30565V8.12435C4.22168 8.56805 4.58168 8.92805 5.02538 8.92805Z" fill="#3C3D3E"/>
<path d="M12.6636 8.92805C13.1073 8.92805 13.4673 8.56805 13.4673 8.12435V4.30565C13.4673 3.86195 13.1073 3.50195 12.6636 3.50195C12.2199 3.50195 11.8599 3.86195 11.8599 4.30565V8.12435C11.8599 8.56805 12.2199 8.92805 12.6636 8.92805Z" fill="#3C3D3E"/>
</g>
<defs>
<clipPath id="clip0_1042_7007">
<rect width="56.6847" height="48.7287" fill="white"/>
</clipPath>
</defs>
</svg>
