<svg width="28" height="23" viewBox="0 0 28 23" fill="none" >
<path d="M14.0078 2.29688C13.8359 2.25391 13.6211 2.25391 13.4492 2.29688L2.19141 7.06641C1.67578 7.28125 1.375 7.75391 1.375 8.3125V22.0625C1.375 22.4492 1.03125 22.75 0.6875 22.75C0.300781 22.75 0 22.4492 0 22.0625V8.3125C0 7.23828 0.644531 6.20703 1.67578 5.77734L12.9336 1.05078C13.4492 0.835938 14.0078 0.835938 14.5234 1.05078L25.7812 5.77734C26.8125 6.20703 27.5 7.23828 27.5 8.3125V22.0625C27.5 22.4492 27.1562 22.75 26.8125 22.75C26.4258 22.75 26.125 22.4492 26.125 22.0625V8.3125C26.125 7.75391 25.7812 7.28125 25.2656 7.06641L14.0078 2.29688ZM4.125 10.375C4.125 9.64453 4.72656 9 5.5 9H22C22.7305 9 23.375 9.64453 23.375 10.375V22.0625C23.375 22.4492 23.0312 22.75 22.6875 22.75C22.3008 22.75 22 22.4492 22 22.0625V10.375H5.5V22.0625C5.5 22.4492 5.15625 22.75 4.8125 22.75C4.42578 22.75 4.125 22.4492 4.125 22.0625V10.375ZM20.625 18.625V20.6875C20.625 21.8477 19.6797 22.75 18.5625 22.75H8.9375C7.77734 22.75 6.875 21.8477 6.875 20.6875V13.8125C6.875 12.6953 7.77734 11.75 8.9375 11.75H13.0625C14.1797 11.75 15.125 12.6953 15.125 13.8125V16.5625H18.5625C19.6797 16.5625 20.625 17.5078 20.625 18.625ZM15.125 17.9375V21.375H18.5625C18.9062 21.375 19.25 21.0742 19.25 20.6875V18.625C19.25 18.2812 18.9062 17.9375 18.5625 17.9375H15.125ZM13.75 21.375V17.9375H8.25V20.6875C8.25 21.0742 8.55078 21.375 8.9375 21.375H13.75ZM13.0625 13.125H8.9375C8.55078 13.125 8.25 13.4688 8.25 13.8125V16.5625H13.75V13.8125C13.75 13.4688 13.4062 13.125 13.0625 13.125Z" fill="#3C3D3E"/>
</svg>
