<svg width="21" height="18" viewBox="0 0 21 18" fill="none" >
<path d="M19.8125 1.3125C20.0938 1.625 20.0312 2.09375 19.6875 2.375L12.4062 8.0625L13.6875 9.65625C13.8438 9.84375 13.75 10.125 13.5625 10.25L10.9062 11.4688C10.6875 12.4062 9.96875 14.625 8.5 15.7812C6.625 17.2188 0.46875 17.0312 0 17C0 17 1.1875 10.5312 3.125 9C4.625 7.8125 6.90625 7.625 7.875 7.625L9.65625 5.3125C9.8125 5.125 10.0938 5.125 10.25 5.3125L11.5 6.875L18.7812 1.1875C19.0938 0.90625 19.5625 0.96875 19.8125 1.3125ZM7.5625 14.5625C8.46875 13.8438 9.0625 12.4375 9.34375 11.4688L7.46875 9.15625C6.28125 9.25 4.90625 9.53125 4.0625 10.1875C3.65625 10.5625 3.1875 11.4062 2.78125 12.5L3.59375 12.3125C3.78125 12.2812 3.875 12.5312 3.75 12.6562L2.34375 13.75C2.15625 14.3125 2 14.9062 1.84375 15.5C5.21875 15.4688 7.03125 14.9688 7.5625 14.5625ZM11.4062 9.5625C11.5312 9.5 11.5625 9.34375 11.4688 9.25L10.125 7.5625C10.0312 7.46875 9.90625 7.5 9.8125 7.5625L9.0625 8.5L10.3125 10.0625L11.4062 9.5625Z" fill="#3C3D3E"/>
</svg>
