<svg width="49" height="52" viewBox="0 0 49 52" fill="none" >
<g clip-path="url(#clip0_1042_7072)">
<path d="M26.4765 21.0371H21.9981C21.5042 21.0371 21.103 21.4383 21.103 21.9322V29.7844C21.103 30.2782 21.5042 30.6794 21.9981 30.6794H26.4765C26.9703 30.6794 27.3715 30.2782 27.3715 29.7844V21.9322C27.3715 21.4383 26.9703 21.0371 26.4765 21.0371ZM25.5814 28.8883H22.8931V22.8262H25.5814V28.8883Z" fill="#3C3D3E"/>
<path d="M48.4506 8.40505C48.3632 6.25166 46.8227 4.46683 44.7841 4.00877V0.89505C44.7841 0.401193 44.3829 0 43.889 0C43.3952 0 42.994 0.401193 42.994 0.89505V3.94664C40.8269 4.27518 39.1421 6.08739 39.0084 8.31133C38.9958 8.3724 38.9884 8.43453 38.9884 8.49876V16.6595H34.8827C34.1383 14.325 32.5619 12.417 30.417 11.1755C30.3633 11.1334 30.3043 11.0997 30.239 11.0755C28.531 10.1299 26.4787 9.59915 24.2053 9.59915C18.9572 9.59915 14.8768 12.4296 13.5289 16.6606H9.46647V8.49982C9.46647 8.46823 9.46436 8.43664 9.4612 8.4061C9.3717 6.17479 7.7206 4.34047 5.57353 3.9656V0.89505C5.57353 0.401193 5.17234 0 4.67848 0C4.18462 0 3.78343 0.401193 3.78343 0.89505V3.98561C1.72481 4.40049 0.148473 6.16426 0.020007 8.31238C0.007371 8.3724 0 8.43558 0 8.49982V50.5672C0 51.061 0.401193 51.4622 0.89505 51.4622H47.5598C48.0537 51.4622 48.4548 51.061 48.4548 50.5672V8.49876C48.4548 8.46717 48.4527 8.43558 48.4496 8.40399L48.4506 8.40505ZM40.7785 16.67V9.53807H46.6658V16.67H40.7785ZM40.7985 18.4601H46.6658V32.7578H40.7985V18.4601ZM43.7027 5.77465H43.7522C44.9589 5.77465 45.9898 6.53702 46.392 7.60371H41.0628C41.465 6.53597 42.4959 5.77465 43.7027 5.77465ZM35.2755 18.4496H38.9884V32.7578H30.6802V18.4496H35.2766H35.2755ZM19.2015 20.6999V18.4496H29.3103V32.7578H19.2015V20.6999ZM32.9873 16.6595H30.6802V13.5395C30.7444 13.5921 30.8097 13.6437 30.8729 13.6985C31.8269 14.5303 32.5366 15.5296 32.9884 16.6595H32.9873ZM29.3103 12.6213V16.6595H19.2015V12.5665C20.6556 11.7999 22.3741 11.3882 24.2053 11.3882C26.0365 11.3882 27.835 11.8199 29.3103 12.6213ZM17.5398 13.6995C17.6356 13.6163 17.7336 13.5353 17.8336 13.4563V16.6595H15.4243C15.8761 15.5296 16.5858 14.5303 17.5398 13.6985V13.6995ZM13.1362 18.4496H17.8336V32.7578H9.46752V18.4496H13.1362ZM1.7901 9.53702H7.67742V16.669H1.7901V9.53702ZM1.7901 18.4601H7.67742V32.7578H1.7901V18.4601ZM4.71428 5.77465H4.76377C5.97051 5.77465 7.0014 6.53702 7.40364 7.60371H2.07336C2.4756 6.53597 3.50649 5.77465 4.71323 5.77465H4.71428ZM1.7901 34.5479H7.67742V49.6711H1.7901V34.5479ZM13.073 49.6711V44.5809H14.4945V49.6711H13.073ZM15.3896 42.7918H12.1779C11.6841 42.7918 11.2829 43.193 11.2829 43.6869V49.6721H9.46647V34.5489H17.8326V49.6721H16.2846V43.6869C16.2846 43.193 15.8835 42.7918 15.3896 42.7918ZM22.55 49.6711V39.6381H25.9238V49.6711H22.55ZM26.8199 37.848H21.656C21.1621 37.848 20.7609 38.2492 20.7609 38.743V49.6711H19.2025V34.5479H29.3113V49.6711H27.715V38.743C27.715 38.2492 27.3138 37.848 26.8199 37.848ZM34.0277 49.6711V44.5809H35.4492V49.6711H34.0277ZM36.3443 42.7918H33.1326C32.6388 42.7918 32.2376 43.193 32.2376 43.6869V49.6721H30.6792V34.5489H38.9873V49.6721H37.2393V43.6869C37.2393 43.193 36.8382 42.7918 36.3443 42.7918ZM46.6647 49.6711H40.7974V34.5479H46.6647V49.6711Z" fill="#3C3D3E"/>
<path d="M15.3899 38.791H12.1783C11.6844 38.791 11.2832 39.1922 11.2832 39.6861C11.2832 40.1799 11.6844 40.5811 12.1783 40.5811H15.3899C15.8838 40.5811 16.285 40.1799 16.285 39.6861C16.285 39.1922 15.8838 38.791 15.3899 38.791Z" fill="#3C3D3E"/>
<path d="M36.3445 38.791H33.1328C32.639 38.791 32.2378 39.1922 32.2378 39.6861C32.2378 40.1799 32.639 40.5811 33.1328 40.5811H36.3445C36.8384 40.5811 37.2395 40.1799 37.2395 39.6861C37.2395 39.1922 36.8384 38.791 36.3445 38.791Z" fill="#3C3D3E"/>
<path d="M45.4087 23.1465H42.1971C41.7895 23.1465 41.46 23.4761 41.46 23.8836C41.46 24.2911 41.7895 24.6207 42.1971 24.6207H45.4087C45.8162 24.6207 46.1458 24.2911 46.1458 23.8836C46.1458 23.4761 45.8162 23.1465 45.4087 23.1465Z" fill="#3C3D3E"/>
<path d="M45.4087 26.3047H42.1971C41.7895 26.3047 41.46 26.6343 41.46 27.0418C41.46 27.4493 41.7895 27.7789 42.1971 27.7789H45.4087C45.8162 27.7789 46.1458 27.4493 46.1458 27.0418C46.1458 26.6343 45.8162 26.3047 45.4087 26.3047Z" fill="#3C3D3E"/>
<path d="M6.36867 23.1465H3.15702C2.74951 23.1465 2.41992 23.4761 2.41992 23.8836C2.41992 24.2911 2.74951 24.6207 3.15702 24.6207H6.36867C6.77618 24.6207 7.10577 24.2911 7.10577 23.8836C7.10577 23.4761 6.77618 23.1465 6.36867 23.1465Z" fill="#3C3D3E"/>
<path d="M6.36867 26.3047H3.15702C2.74951 26.3047 2.41992 26.6343 2.41992 27.0418C2.41992 27.4493 2.74951 27.7789 3.15702 27.7789H6.36867C6.77618 27.7789 7.10577 27.4493 7.10577 27.0418C7.10577 26.6343 6.77618 26.3047 6.36867 26.3047Z" fill="#3C3D3E"/>
<path d="M34.7388 28.1033C35.2327 28.1033 35.6339 27.7021 35.6339 27.2083V23.9966C35.6339 23.5028 35.2327 23.1016 34.7388 23.1016C34.2449 23.1016 33.8438 23.5028 33.8438 23.9966V27.2083C33.8438 27.7021 34.2449 28.1033 34.7388 28.1033Z" fill="#3C3D3E"/>
<path d="M13.7837 28.1033C14.2776 28.1033 14.6788 27.7021 14.6788 27.2083V23.9966C14.6788 23.5028 14.2776 23.1016 13.7837 23.1016C13.2899 23.1016 12.8887 23.5028 12.8887 23.9966V27.2083C12.8887 27.7021 13.2899 28.1033 13.7837 28.1033Z" fill="#3C3D3E"/>
</g>
<defs>
<clipPath id="clip0_1042_7072">
<rect width="48.4548" height="51.4612" fill="white"/>
</clipPath>
</defs>
</svg>
