<svg  viewBox="0 0 26 23" fill="none" xmlns="http://www.w3.org/2000/svg">
<path d="M12.9022 0.966797C13.16 0.708984 13.5467 0.708984 13.8045 0.966797L17.4998 4.18945V3.1582C17.4998 2.59961 17.9295 2.12695 18.5311 2.12695H21.9686C22.5272 2.12695 22.9998 2.59961 22.9998 3.1582V9.04492L25.492 11.2363C25.7928 11.4941 25.7928 11.9238 25.535 12.2246C25.3201 12.5254 24.8904 12.5254 24.5897 12.2676L22.9998 10.8496V19.3145C22.9998 21.248 21.4529 22.752 19.5623 22.752H7.18732C5.25373 22.752 3.74982 21.248 3.74982 19.3145V10.8496L2.11701 12.2676C1.81623 12.5254 1.38654 12.5254 1.1717 12.2246C0.913884 11.9238 0.913884 11.4941 1.21467 11.2363L12.9022 0.966797ZM21.6248 7.8418V3.50195H18.8748V5.39258L21.6248 7.8418ZM5.12482 9.64648V19.3145C5.12482 20.4746 6.02717 21.377 7.18732 21.377H9.93732V14.502C9.93732 13.7715 10.5389 13.127 11.3123 13.127H15.4373C16.1678 13.127 16.8123 13.7715 16.8123 14.502V21.377H19.5623C20.6795 21.377 21.6248 20.4746 21.6248 19.3145V9.64648L13.3748 2.38477L5.12482 9.64648ZM11.3123 14.502V21.377H15.4373V14.502H11.3123Z" fill="#3C3D3E"/>
</svg>
