<svg
  viewBox="0 0 14 12"
  fill="none"
  class="w-4 h-4"
>
  <path
    d="M2.40625 0.0625C2.76172 0.0625 3.0625 0.363281 3.0625 0.71875V2.03125C3.0625 2.41406 2.76172 2.6875 2.40625 2.6875H1.09375C0.710938 2.6875 0.4375 2.41406 0.4375 2.03125V0.71875C0.4375 0.363281 0.710938 0.0625 1.09375 0.0625H2.40625ZM13.3438 0.71875C13.6992 0.71875 14 1.01953 14 1.375C14 1.75781 13.6992 2.03125 13.3438 2.03125H5.03125C4.64844 2.03125 4.375 1.75781 4.375 1.375C4.375 1.01953 4.64844 0.71875 5.03125 0.71875H13.3438ZM13.3438 5.09375C13.6992 5.09375 14 5.39453 14 5.75C14 6.13281 13.6992 6.40625 13.3438 6.40625H5.03125C4.64844 6.40625 4.375 6.13281 4.375 5.75C4.375 5.39453 4.64844 5.09375 5.03125 5.09375H13.3438ZM13.3438 9.46875C13.6992 9.46875 14 9.76953 14 10.125C14 10.5078 13.6992 10.7812 13.3438 10.7812H5.03125C4.64844 10.7812 4.375 10.5078 4.375 10.125C4.375 9.76953 4.64844 9.46875 5.03125 9.46875H13.3438ZM0.4375 5.09375C0.4375 4.73828 0.710938 4.4375 1.09375 4.4375H2.40625C2.76172 4.4375 3.0625 4.73828 3.0625 5.09375V6.40625C3.0625 6.78906 2.76172 7.0625 2.40625 7.0625H1.09375C0.710938 7.0625 0.4375 6.78906 0.4375 6.40625V5.09375ZM2.40625 8.8125C2.76172 8.8125 3.0625 9.11328 3.0625 9.46875V10.7812C3.0625 11.1641 2.76172 11.4375 2.40625 11.4375H1.09375C0.710938 11.4375 0.4375 11.1641 0.4375 10.7812V9.46875C0.4375 9.11328 0.710938 8.8125 1.09375 8.8125H2.40625Z"
    fill="currentColor"
  />
</svg>
