<svg
  viewBox="0 0 15 15"
  fill="none"
>
  <path
    d="M5.66016 3.375C6.97266 3.375 8.03906 4.44141 8.01172 5.75391C8.01172 6.79297 6.45312 8.70703 5.87891 9.41797C5.82422 9.47266 5.71484 9.5 5.66016 9.5C5.57812 9.5 5.49609 9.47266 5.44141 9.41797C4.86719 8.70703 3.30859 6.79297 3.30859 5.75391C3.30859 4.44141 4.375 3.375 5.66016 3.375ZM5.6875 6.4375C6.15234 6.4375 6.5625 6.05469 6.5625 5.5625C6.5625 5.09766 6.15234 4.6875 5.6875 4.6875C5.19531 4.6875 4.8125 5.09766 4.8125 5.5625C4.8125 6.05469 5.19531 6.4375 5.6875 6.4375ZM13.7812 13.6289C14.0547 13.9023 14.0547 14.3125 13.7812 14.5586C13.6719 14.6953 13.5078 14.75 13.3438 14.75C13.1523 14.75 12.9883 14.6953 12.8789 14.5586L9.21484 10.8945C8.23047 11.6875 7 12.125 5.6875 12.125C2.54297 12.125 0 9.58203 0 6.4375C0 3.32031 2.54297 0.75 5.6875 0.75C8.80469 0.75 11.375 3.32031 11.375 6.4375C11.375 7.77734 10.9102 9.00781 10.1172 9.96484L13.7812 13.6289ZM5.6875 10.8125C8.09375 10.8125 10.0625 8.87109 10.0625 6.4375C10.0625 4.03125 8.09375 2.0625 5.6875 2.0625C3.25391 2.0625 1.3125 4.03125 1.3125 6.4375C1.3125 8.87109 3.25391 10.8125 5.6875 10.8125Z"
    fill="currentColor"
  />
</svg>
