<svg width="29" height="14" viewBox="0 0 29 14" fill="none" >
  <g clip-path="url(#clip0_994_2959)">
    <path
      d="M28.7269 12.4018L25.7766 9.77381V2.84556C25.7766 2.16941 25.238 1.62565 24.5683 1.62565H20.5404C19.8707 1.62565 19.3321 2.16941 19.3321 2.84556V4.035L15.0324 0.202477C14.7254 -0.0668413 14.2671 -0.0668413 13.9651 0.202477L0.270893 12.4018C-0.0612828 12.6967 -0.091737 13.2152 0.200398 13.5505C0.492532 13.8859 1.00602 13.9166 1.3382 13.6217L3.22128 11.9443V13.9935H3.83234V14.0003H24.8277V13.9935H25.7768V11.9443L27.6599 13.6217C27.9921 13.9215 28.5008 13.8859 28.7977 13.5505C29.0947 13.2152 29.0594 12.6965 28.7272 12.4018H28.7269ZM20.9434 3.25209H24.1656V8.34011L20.9434 5.46813V3.25181V3.25209ZM14.4989 1.89497L24.1656 10.5058V12.2922H4.83225V10.5058L14.4989 1.89497Z"
      fill="#3C3D3E" />
    <path
      d="M10.844 11.5705H12.5979C13.3364 11.5705 13.9351 10.9661 13.9351 10.2205V7.91934C13.9351 7.17374 13.3364 6.56934 12.5979 6.56934H10.844C10.1055 6.56934 9.50684 7.17374 9.50684 7.91934V10.2205C9.50684 10.9661 10.1055 11.5705 10.844 11.5705ZM10.9168 7.99279H12.5252V10.1471H10.9168V7.99279Z"
      fill="#3C3D3E" />
    <path
      d="M16.386 11.5705H18.1399C18.8784 11.5705 19.4771 10.9661 19.4771 10.2205V7.91934C19.4771 7.17374 18.8784 6.56934 18.1399 6.56934H16.386C15.6475 6.56934 15.0488 7.17374 15.0488 7.91934V10.2205C15.0488 10.9661 15.6475 11.5705 16.386 11.5705ZM16.4587 7.99279H18.0672V10.1471H16.4587V7.99279Z"
      fill="#3C3D3E" />
  </g>
  <defs>
    <clipPath id="clip0_994_2959">
      <rect width="29" height="14" fill="white" />
    </clipPath>
  </defs>
</svg>