<svg width="20" height="19" viewBox="0 0 20 19" fill="currentColor" >
    <path
        d="M5.625 10.75C5.625 8.36719 7.57812 6.375 10 6.375C12.3828 6.375 14.375 8.36719 14.375 10.75C14.375 13.1719 12.3828 15.125 10 15.125C7.57812 15.125 5.625 13.1719 5.625 10.75ZM10 7.625C8.24219 7.625 6.875 9.03125 6.875 10.75C6.875 12.5078 8.24219 13.875 10 13.875C11.7188 13.875 13.125 12.5078 13.125 10.75C13.125 9.03125 11.7188 7.625 10 7.625ZM14.1406 2.03906L14.5703 3.25H17.5C18.8672 3.25 20 4.38281 20 5.75V15.75C20 17.1562 18.8672 18.25 17.5 18.25H2.5C1.09375 18.25 0 17.1562 0 15.75V5.75C0 4.38281 1.09375 3.25 2.5 3.25H5.39062L5.82031 2.03906C6.05469 1.29688 6.75781 0.75 7.57812 0.75H12.3828C13.2031 0.75 13.9062 1.29688 14.1406 2.03906ZM2.5 4.5C1.79688 4.5 1.25 5.08594 1.25 5.75V15.75C1.25 16.4531 1.79688 17 2.5 17H17.5C18.1641 17 18.75 16.4531 18.75 15.75V5.75C18.75 5.08594 18.1641 4.5 17.5 4.5H13.6719L12.9688 2.42969C12.8906 2.19531 12.6562 2 12.3828 2H7.57812C7.30469 2 7.07031 2.19531 6.99219 2.42969L6.28906 4.5H2.5Z" />
</svg>