<svg width="16" height="13" viewBox="0 0 16 13" fill="none" >
    <path
        d="M4.77344 0.679688C4.85547 0.625 4.9375 0.625 5.04688 0.652344L11.0352 2.375L14.9727 0.789062C15.3828 0.625 15.875 0.925781 15.875 1.39062V10.5508C15.875 10.8242 15.7109 11.0703 15.4375 11.1523L11.1992 12.8477C11.1172 12.9023 11.0352 12.9023 10.9258 12.875L4.9375 11.1523L1 12.7383C0.589844 12.9023 0.125 12.6016 0.125 12.1367V2.97656C0.125 2.70312 0.261719 2.45703 0.535156 2.375L4.77344 0.679688ZM1 11.8086L4.5 10.4141V1.71875L1 3.11328V11.8086ZM10.625 3.16797L5.375 1.66406V10.3594L10.625 11.8633V3.16797ZM11.5 11.8086L15 10.4141V1.71875L11.5 3.11328V11.8086Z"
        fill="currentColor" />
</svg>