<svg width="20" height="21" viewBox="0 0 20 21" fill="none" >
  <path
    d="M17.5 5.5C18.8672 5.5 20 6.63281 20 8V18.0391C20 19.4062 18.8672 20.5 17.5 20.5H2.5C1.09375 20.5 0 19.4062 0 17.9609V8C0 6.63281 1.09375 5.5 2.5 5.5H17.5ZM8.04688 19.25V16.75C8.04688 16.0859 7.46094 15.5 6.79688 15.5H5.66406C5 15.5 4.41406 16.0859 4.41406 16.75V19.25H8.04688ZM15.5469 19.25V16.75C15.5469 16.0859 14.9609 15.5 14.2969 15.5H13.1641C12.5 15.5 11.9141 16.0859 11.9141 16.75V19.25H15.5469ZM18.75 18V8C18.75 7.33594 18.1641 6.75 17.5 6.75H2.5C1.79688 6.75 1.25 7.33594 1.25 8V18C1.25 18.7031 1.79688 19.25 2.5 19.25H3.16406V16.75C3.16406 15.3828 4.29688 14.25 5.66406 14.25H6.79688C8.16406 14.25 9.29688 15.3828 9.29688 16.75V19.25H10.6641V16.75C10.6641 15.3828 11.7969 14.25 13.1641 14.25H14.2969C15.6641 14.25 16.7969 15.3828 16.7969 16.75V19.25H17.5C18.1641 19.25 18.75 18.7031 18.75 18ZM6.25 8.625C7.42188 8.66406 8.4375 9.67969 8.4375 10.8516C8.4375 12.0234 7.42188 13 6.25 13C5.03906 13 4.0625 12.0234 4.0625 10.8125C4.0625 9.64062 5.03906 8.66406 6.25 8.625ZM6.25 11.75C6.75781 11.75 7.1875 11.3594 7.1875 10.8125C7.1875 10.3047 6.75781 9.91406 6.25 9.875C5.70312 9.91406 5.3125 10.3047 5.3125 10.8125C5.3125 11.3594 5.70312 11.75 6.25 11.75ZM13.75 8.625C14.9219 8.66406 15.9375 9.64062 15.9375 10.8125C15.9375 11.9844 14.9219 12.9609 13.75 12.9609C12.5391 12.9609 11.5625 11.9844 11.5625 10.8125C11.5625 9.64062 12.5391 8.66406 13.75 8.625ZM13.75 11.75C14.2578 11.75 14.6875 11.3594 14.6875 10.8125C14.6875 10.3047 14.2578 9.91406 13.75 9.875C13.2031 9.91406 12.8125 10.3047 12.8125 10.8125C12.8125 11.3594 13.2031 11.75 13.75 11.75ZM3.55469 4.09375C3.32031 4.32812 2.89062 4.32812 2.65625 4.09375C2.42188 3.85938 2.42188 3.42969 2.65625 3.19531L5.15625 0.695312C5.39062 0.460938 5.82031 0.460938 6.05469 0.695312L8.55469 3.19531C8.78906 3.42969 8.78906 3.85938 8.55469 4.09375C8.4375 4.21094 8.28125 4.25 8.125 4.25C7.92969 4.25 7.77344 4.21094 7.65625 4.09375L5.625 2.02344L3.55469 4.09375ZM13.9062 4.09375L11.4062 1.59375C11.1719 1.35938 11.1719 0.929688 11.4062 0.695312C11.6406 0.460938 12.0703 0.460938 12.3047 0.695312L14.375 2.76562L16.4062 0.695312C16.6406 0.460938 17.0703 0.460938 17.3047 0.695312C17.5391 0.929688 17.5391 1.35938 17.3047 1.59375L14.8047 4.09375C14.6875 4.21094 14.5312 4.28906 14.375 4.28906C14.1797 4.28906 14.0234 4.21094 13.9062 4.09375Z"
    fill="#3C3D3E" />
</svg>