<svg
  height="59"
  width="58"
  viewBox="0 0 58 59"
  fill="none"
  
>
  <path
    d="M25.9414 37.1797C25.6016 37.5195 25.0352 37.5195 24.6953 37.1797L17.4453 29.9297C17.1055 29.5898 17.1055 29.0234 17.4453 28.6836C17.7852 28.3438 18.3516 28.3438 18.6914 28.6836L25.375 35.2539L39.1953 21.4336C39.5352 21.0938 40.1016 21.0938 40.4414 21.4336C40.7812 21.7734 40.7812 22.3398 40.4414 22.6797L25.9414 37.1797ZM58 29.25C58 45.3359 44.9727 58.25 29 58.25C12.9141 58.25 0 45.3359 0 29.25C0 13.2773 12.9141 0.25 29 0.25C44.9727 0.25 58 13.2773 58 29.25ZM29 2.0625C13.9336 2.0625 1.8125 14.2969 1.8125 29.25C1.8125 44.3164 13.9336 56.4375 29 56.4375C43.9531 56.4375 56.1875 44.3164 56.1875 29.25C56.1875 14.2969 43.9531 2.0625 29 2.0625Z"
    fill="currentColor"
  />
</svg>
