<svg width="47" height="55" viewBox="0 0 47 55" fill="none" >
<g clip-path="url(#clip0_2351_17344)">
<path d="M32.7159 54.9994C32.2392 54.9994 31.7181 54.7987 31.1836 54.57L31.1192 54.5425C30.7074 54.3672 30.4462 54.1472 30.2157 53.953C30.1391 53.8885 30.0669 53.8276 29.9854 53.7642C29.8228 53.6378 29.6551 53.4819 29.4931 53.3311C29.36 53.2073 29.151 53.0127 29.0274 52.924C29.0251 52.9243 29.023 52.9247 29.0206 52.9251C28.8545 52.9534 28.5765 53.0011 28.2356 52.9095C27.8556 52.8074 27.4029 52.666 26.8342 52.2792C26.5597 52.0925 26.2547 51.8118 25.9596 51.5402C25.7188 51.3185 25.4455 51.0671 25.2901 50.966C25.1515 50.8759 25.1079 50.8671 24.9454 50.8339C24.8245 50.8093 24.6739 50.7786 24.4819 50.7146C24.3928 50.685 24.2432 50.6518 24.0981 50.6198C23.6404 50.5184 23.1216 50.4036 22.7414 50.0795C22.1571 49.581 21.9491 48.7488 22.0033 48.1864C22.0551 47.647 22.4246 47.2524 22.6688 46.9912C22.6955 46.9626 22.7284 46.9276 22.7538 46.8994C22.7826 46.7878 22.8371 46.6014 22.992 46.4211C23.1093 46.2845 23.3739 46.0556 23.8288 46.0556C24.145 46.0556 24.4173 46.1852 24.7056 46.3227C24.771 46.354 24.8606 46.3966 24.9409 46.4311C25.1728 46.187 25.59 45.7726 26.2743 45.8248C26.7282 45.8592 27.1144 46.0992 27.4878 46.3313C27.7626 46.5022 28.0742 46.6957 28.3048 46.7243C28.8127 46.7871 29.6851 46.6223 30.3221 46.502C30.481 46.472 30.6312 46.4436 30.7705 46.4195C31.2426 46.3375 31.5625 46.2383 31.9329 46.1233C32.0915 46.074 32.2556 46.0231 32.4362 45.9724C32.7313 45.8896 33.0576 45.7912 33.3732 45.6962C33.6615 45.6092 33.9337 45.5273 34.1525 45.4662C34.3158 45.4207 34.4633 45.3998 34.5885 45.3895C34.5892 45.3818 34.5899 45.3743 34.5906 45.3671C34.6271 44.9993 34.6724 44.5415 34.9411 44.1487C35.2065 43.7611 35.6129 43.5875 35.9098 43.4608C35.9565 43.4408 36.0156 43.4156 36.0673 43.3917C36.0625 43.3324 36.0509 43.2485 36.026 43.1328C35.9729 42.8869 35.8821 42.5971 35.7859 42.2904C35.7515 42.181 35.7159 42.0676 35.6812 41.9535C35.4495 41.1902 34.942 39.9677 34.672 39.3819C34.5944 39.2133 34.5334 39.0669 34.4846 38.9492C34.3516 38.6295 34.3371 38.6061 34.258 38.552C34.1733 38.518 33.9365 38.4857 33.7781 38.4639C33.308 38.3995 32.7751 38.3266 32.364 37.9699C31.917 37.5821 31.817 37.0388 31.7439 36.642C31.7229 36.5288 31.6922 36.3612 31.6648 36.2948C31.5613 36.1834 31.3758 36.0969 31.0672 35.9584C30.9129 35.8891 30.738 35.8107 30.5517 35.7147C30.4054 35.6391 30.1851 35.562 29.9517 35.4804C29.3847 35.282 28.742 35.0571 28.2639 34.5798C27.8572 34.1738 27.7067 33.6391 27.5738 33.1672C27.523 32.9865 27.4402 32.6929 27.3732 32.5874C27.2462 32.5546 26.9131 32.5747 26.7085 32.5871C26.2212 32.6163 25.669 32.6495 25.1233 32.4531C24.2099 32.1243 23.3233 31.4418 22.564 30.8282C21.9149 30.3036 21.3912 29.7142 20.8848 29.1445C20.812 29.0625 20.7396 28.9811 20.6671 28.9002C20.4102 28.6133 20.1963 28.3108 19.9894 28.0184C19.7375 27.6622 19.4996 27.3256 19.2615 27.1392C19.0834 26.9998 18.7905 26.911 18.4804 26.8171C18.1106 26.705 17.7283 26.5891 17.3871 26.3484C16.9556 26.044 16.721 25.6817 16.5323 25.3907C16.4309 25.2341 16.3433 25.0989 16.2334 24.9802C16.1452 24.885 16.0009 24.7784 15.8484 24.6656C15.4691 24.3853 14.997 24.0366 14.685 23.4077C14.4101 22.8537 14.2941 22.1579 14.1818 21.4851C14.1258 21.1498 14.068 20.8031 13.9937 20.4978C13.9118 20.161 13.8595 19.8007 13.8093 19.4524C13.7301 18.9048 13.6316 18.2232 13.4243 17.9652C13.2187 17.7092 12.6867 17.5648 12.1722 17.4251C11.9235 17.3576 11.6662 17.2877 11.4106 17.1987C11.1866 17.1207 10.9509 17.0266 10.7227 16.9356C10.2215 16.7354 9.46438 16.433 9.14125 16.4935C8.93811 16.5317 8.58799 16.9448 8.35624 17.2182C8.16043 17.4492 7.95783 17.6883 7.73038 17.8858C7.56622 18.0283 7.406 18.1883 7.25097 18.3431C6.89941 18.6943 6.53587 19.0572 6.07488 19.2688C5.64411 19.4665 4.74304 19.7372 4.09876 19.4981C3.80192 19.3879 3.57 19.1776 3.4459 18.9062C3.24312 18.4629 3.42712 18.0204 3.48756 17.8749C3.55641 17.7096 3.6485 17.5349 3.73987 17.3644C3.25349 17.361 2.72347 17.3368 2.30236 17.0729C1.58887 16.6252 1.03364 15.7086 0.9521 14.8435C0.918482 14.4866 1.01934 14.1311 1.15667 13.8035C1.11518 13.7799 1.07387 13.7531 1.03293 13.7224C0.765592 13.5223 0.502551 13.1857 0.345549 12.9375C0.0150931 12.4149 -0.0796804 11.9453 0.0640893 11.5415C0.140802 11.3258 0.325342 11.0305 0.768275 10.8489C0.930999 10.7823 1.09766 10.7412 1.25877 10.7016C1.34693 10.68 1.48462 10.646 1.55954 10.618C1.63107 10.5128 1.71047 10.3307 1.76769 10.1611C1.57188 10.0459 1.35641 9.86275 1.22015 9.55637C1.15649 9.41353 0.998235 9.03626 0.902567 8.61989C0.756652 7.98461 0.817271 7.50057 1.088 7.14026C1.49428 6.59926 2.17736 6.54534 2.7798 6.49802C2.95772 6.48392 3.14173 6.46946 3.29784 6.44428C3.58609 6.39786 3.91172 6.38929 4.22679 6.38125C4.4825 6.37465 4.93313 6.36304 5.13698 6.31037C5.16273 6.23288 5.19062 6.10986 5.21083 6.0213C5.2913 5.66635 5.39161 5.2248 5.74997 4.88645C6.34883 4.32117 7.35021 3.80963 8.20174 4.22833C8.74141 4.49365 9.06364 5.11821 9.37515 5.72206C9.37658 5.72474 9.37801 5.72741 9.37926 5.73009C9.37926 5.72991 9.37926 5.72956 9.37944 5.72938C9.57059 5.02447 9.736 4.45526 9.97812 4.07924C10.4189 3.39469 11.1583 3.07455 11.818 3.28256C12.2024 3.40379 12.4111 3.69286 12.5558 3.96051C12.7215 3.88123 12.9145 3.80945 13.1314 3.79035C13.111 3.44218 13.1493 3.11865 13.3277 2.83798C13.4685 2.61658 13.7476 2.34019 14.2783 2.28073C14.4829 2.25788 14.6816 2.27144 14.8584 2.28501C14.8886 2.16557 14.9278 2.02987 14.9897 1.8956C15.1783 1.48584 15.4753 1.30782 15.6912 1.23051C16.1699 1.05928 16.6403 1.23319 17.0556 1.38674C17.0649 1.39013 17.0745 1.3937 17.0843 1.39745C17.1916 1.13035 17.371 0.795392 17.7415 0.589883C18.1658 0.354557 18.6168 0.351165 19.0147 0.34813C19.1898 0.346701 19.355 0.345452 19.5193 0.32724C19.6384 0.314027 19.8351 0.261891 20.0254 0.211362C20.6385 0.0485268 21.4019 -0.153946 22.08 0.180652C22.6581 0.465971 22.934 1.05625 23.1776 1.57725C23.2645 1.76312 23.4093 2.07308 23.4903 2.15253C23.6527 2.27894 23.8821 2.31805 24.2712 2.37625C24.4552 2.40375 24.6639 2.43482 24.884 2.48499C25.1228 2.53927 25.4487 2.58408 25.7638 2.62747C26.2885 2.6996 26.7842 2.76781 27.1672 2.90333C27.5209 3.02849 27.8168 3.179 28.0471 3.35077C28.5663 3.73821 28.6664 4.17191 28.6591 4.46758C28.649 4.86771 28.4277 5.14213 28.1743 5.34925C28.3088 5.48387 28.423 5.64885 28.4767 5.86347C28.5636 6.21074 28.459 6.57087 28.2031 6.82441C28.2072 6.83227 28.2111 6.83977 28.2151 6.84726C28.288 6.98707 28.3637 7.13151 28.4282 7.27846C28.4668 7.36666 28.5446 7.50628 28.6195 7.64162C28.7107 7.80571 28.805 7.97551 28.8761 8.13406C28.9471 8.29207 29.1632 8.77326 28.8761 9.23605C28.6773 9.5569 28.243 9.80169 27.7215 9.62493C27.5996 9.58368 27.4937 9.52673 27.3914 9.47174C27.3163 9.43138 27.1779 9.35711 27.1182 9.34711C26.7482 9.35854 26.0285 9.48905 25.4993 9.68224C25.2728 9.76491 25.0021 9.9356 24.7403 10.1008C24.4377 10.2916 24.125 10.4887 23.7913 10.6137C23.5595 10.7005 23.3251 10.7364 23.1121 10.7514C23.1474 10.8353 23.1838 10.9221 23.2175 11.0072C23.2514 11.0933 23.3714 11.262 23.468 11.3976C23.721 11.7532 24.0361 12.196 24.0586 12.7377C24.0822 13.3027 23.76 13.6812 23.5674 13.9072C23.4295 14.069 23.3975 14.1168 23.3963 14.1624C23.3741 14.9462 23.4887 15.9452 23.795 16.4099C24.0656 16.8204 24.8329 17.2634 25.3933 17.5869C25.6036 17.7083 25.8023 17.8229 25.9827 17.9372C26.1908 18.069 26.412 18.1411 26.6681 18.2247C27.1198 18.372 27.6818 18.5555 28.119 19.1151C28.5666 19.6877 28.7574 20.4849 28.9418 21.2559C29.0044 21.5176 29.0635 21.7651 29.127 21.9735C29.2352 22.329 29.3064 22.6725 29.3751 23.0046C29.4643 23.4359 29.5485 23.8436 29.6917 24.1239C29.8704 24.4735 30.1223 24.7133 30.471 25.0452C30.5941 25.1621 30.7212 25.2832 30.8567 25.4201C31.0082 25.5732 31.1579 25.7406 31.3027 25.9024C31.6757 26.3193 32.0614 26.7505 32.4863 26.9589C33.1495 27.2845 34.4333 27.404 34.9815 27.4551C35.2304 27.4783 35.5006 27.4195 35.7619 27.3627C36.1489 27.2787 36.5875 27.1835 37.0263 27.3602C37.4389 27.5265 37.7543 27.8891 37.9147 28.3814C38.0234 28.7152 38.0551 29.0836 38.0014 29.3919C37.924 29.8363 37.6277 30.1126 37.3752 30.3038C37.3875 30.3086 37.3995 30.3134 37.4113 30.3181C37.7017 30.4331 38.0307 30.5636 38.378 30.7369C39.1407 31.1178 40.3285 31.7402 41.1676 32.1884C41.3882 32.3062 41.6066 32.4196 41.8177 32.5292C42.4163 32.8397 42.9815 33.133 43.501 33.4773C44.2432 33.969 44.7881 34.4125 45.3231 34.9603L45.3419 34.9796C45.9291 35.5808 46.6598 36.3291 46.8976 37.059C47.0646 37.5716 46.9936 38.0813 46.9046 38.4188C46.7953 38.833 46.6029 39.2038 46.3765 39.4363C46.0729 39.7486 45.6158 39.8854 45.1225 39.8113C44.7752 39.7591 44.4346 39.6111 44.1633 39.3945C43.8389 39.1353 43.6762 38.7668 43.5328 38.4414C43.4573 38.2706 43.3719 38.077 43.2953 37.9854C42.9817 37.6108 42.6128 37.2861 42.2832 37.0941C41.9848 36.9202 41.515 36.7594 40.9946 36.6526C40.885 36.6301 40.7838 36.6051 40.6862 36.581C40.5927 36.5579 40.4636 36.526 40.3774 36.513C40.3475 36.5565 40.3041 36.6274 40.2479 36.7386C40.1558 36.9209 40.0655 37.1384 39.9782 37.3487C39.9364 37.4494 39.8933 37.5535 39.8507 37.6512C39.6387 38.1395 39.4312 38.7989 39.3658 39.1228C39.4436 39.1535 39.5258 39.1844 39.5936 39.2099C40.117 39.407 40.7101 39.6304 41.0792 40.0689C41.6552 40.7531 41.694 41.7594 41.7171 42.3606C41.7273 42.6245 41.7312 42.9696 41.6718 43.2981C41.5844 43.7806 41.3746 44.1491 41.0483 44.3935C40.6134 44.7192 40.0689 44.6837 39.5886 44.6522C39.5727 44.6512 39.5555 44.6501 39.5378 44.649C39.5369 44.657 39.5358 44.6651 39.535 44.6733C39.5391 44.6885 39.5437 44.7053 39.5477 44.7195C39.6101 44.9427 39.7399 45.4073 39.4731 45.9203C39.3009 46.2513 39.0089 46.5123 38.7263 46.7648C38.5616 46.9119 38.3914 47.0642 38.2861 47.1955C38.1956 47.3083 38.0894 47.5031 37.9867 47.6916C37.7688 48.0914 37.5435 48.5047 37.1669 48.7692C36.8242 49.0099 36.4039 49.1106 36.0037 49.1106C35.6728 49.1106 35.3558 49.0418 35.1071 48.9268C34.9501 48.8542 34.8261 48.7558 34.7271 48.646C34.5522 48.9322 34.3795 49.2434 34.2777 49.4805C34.0345 50.0472 33.9247 50.5066 33.9169 50.7362C33.9487 50.7719 33.9968 50.8198 34.0322 50.855C34.2128 51.0346 34.4858 51.3062 34.5672 51.7208C34.6686 52.236 34.4866 52.6431 34.3535 52.9404C34.3178 53.0206 34.2838 53.0963 34.2589 53.1659C34.2393 53.2207 34.2124 53.335 34.1887 53.4357C34.0785 53.9022 33.912 54.6075 33.2702 54.8894C33.0936 54.9671 32.9074 55.0001 32.7141 55.0001L32.7159 54.9994ZM29.0875 51.1282C29.2778 51.1282 29.5077 51.1623 29.7583 51.2849C30.093 51.4488 30.4077 51.7416 30.7121 52.025C30.8455 52.1491 30.9835 52.2775 31.0829 52.355C31.1924 52.4399 31.2861 52.5189 31.3685 52.5883C31.5674 52.7558 31.6618 52.8326 31.82 52.9001L31.8876 52.929C31.9894 52.9725 32.2213 53.0716 32.4221 53.1409C32.4323 53.0993 32.4418 53.0595 32.4496 53.0256C32.4858 52.8722 32.5233 52.7137 32.5764 52.5649C32.6245 52.4305 32.6764 52.3144 32.7222 52.2119C32.7358 52.1816 32.7513 52.1469 32.7656 52.1136C32.5464 51.8954 32.1866 51.5327 32.1376 50.9551C32.0781 50.2522 32.3756 49.3825 32.6356 48.7767C32.7887 48.4199 33.0337 47.9798 33.2803 47.5876C33.1579 47.6234 33.0372 47.6583 32.9196 47.6913C32.7626 47.7352 32.6174 47.7804 32.4636 47.8281C32.07 47.9502 31.663 48.0766 31.0769 48.1784C30.9508 48.2003 30.8068 48.2275 30.6545 48.2562C29.8596 48.4064 28.8702 48.5933 28.0849 48.4962C27.4637 48.4192 26.9531 48.1019 26.5429 47.8472C26.4521 47.7907 26.3319 47.7161 26.2355 47.6629C26.2289 47.6699 26.2227 47.6765 26.2168 47.6827C26.0283 47.8818 25.7127 48.2151 25.2029 48.2651C24.8155 48.3032 24.4518 48.1709 24.1394 48.0296C24.0861 48.0923 24.0304 48.1519 23.9755 48.2105C23.9198 48.27 23.8353 48.3605 23.7866 48.4239C23.8006 48.5235 23.8499 48.6596 23.8955 48.7138C24.0041 48.7704 24.315 48.8392 24.4853 48.8768C24.6746 48.9188 24.8703 48.962 25.0471 49.0209C25.1371 49.0508 25.2102 49.0657 25.3028 49.0847C25.5432 49.1336 25.8423 49.1947 26.2661 49.4702C26.5472 49.6532 26.8505 49.9322 27.1715 50.2277C27.4075 50.4448 27.6749 50.6911 27.8408 50.8039C28.1641 51.0239 28.398 51.103 28.661 51.1751C28.6784 51.1724 28.7006 51.1687 28.7186 51.1656C28.81 51.1501 28.9361 51.1285 29.0875 51.1285V51.1282ZM35.8377 46.8473C35.9445 47.0078 36.0017 47.179 36.0455 47.3228C36.0804 47.3208 36.1118 47.3163 36.134 47.309C36.2073 47.224 36.3379 46.9844 36.418 46.8375C36.5514 46.5929 36.7025 46.3158 36.8915 46.0797C37.0896 45.8324 37.3264 45.6208 37.5354 45.4341C37.6223 45.3564 37.74 45.2513 37.819 45.1711C37.7731 45.005 37.7128 44.7644 37.7591 44.4731C37.7636 44.4451 37.7679 44.3962 37.772 44.3489C37.7854 44.1962 37.8036 43.9871 37.8804 43.7693C38.0021 43.4236 38.2351 43.1569 38.5543 42.9974C38.9125 42.8187 39.3163 42.845 39.7068 42.8705C39.7688 42.8746 39.8499 42.8798 39.9269 42.8832C39.9355 42.7873 39.9402 42.6434 39.9319 42.4291C39.9232 42.2006 39.9123 41.916 39.8651 41.6558C39.8134 41.37 39.7427 41.2568 39.7163 41.2229C39.6052 41.1218 39.1889 40.9649 38.9642 40.8802C38.5702 40.7319 38.2301 40.6038 37.9746 40.3799C37.8083 40.2342 37.5785 39.9993 37.5045 39.6431C37.4419 39.342 37.5199 39.098 37.5665 38.9523C37.5842 38.8967 37.5984 38.8528 37.6085 38.7998C37.7024 38.3156 37.9617 37.5164 38.2119 36.9406C38.2485 36.8561 38.2872 36.7633 38.3279 36.6651C38.5799 36.0578 38.8656 35.3697 39.3728 35.0107C39.9947 34.5702 40.6703 34.7371 41.1173 34.8475C41.2017 34.8684 41.2815 34.888 41.3562 34.9034C41.8608 35.0069 42.5881 35.2033 43.1861 35.5517C43.452 35.7065 43.6955 35.8884 43.9092 36.0711C43.5079 35.6782 43.0809 35.3404 42.5141 34.9649C42.074 34.6734 41.5497 34.4015 40.9948 34.1135C40.779 34.0015 40.5558 33.8856 40.3257 33.7628C39.4974 33.3205 38.3272 32.707 37.5798 32.3339C37.3012 32.1948 37.0226 32.0844 36.7531 31.9775C36.2681 31.7852 35.8849 31.6334 35.6011 31.3569C35.2764 31.0406 35.1505 30.618 35.2555 30.1977C35.3209 29.9358 35.4572 29.7435 35.5568 29.6032C35.5802 29.5701 35.6045 29.5359 35.6165 29.516C35.7068 29.3671 35.8209 29.2493 35.937 29.1507C35.6264 29.2134 35.2417 29.272 34.8172 29.2323C33.6955 29.1279 32.5414 28.9743 31.699 28.5608C30.9615 28.1989 30.4122 27.5849 29.9709 27.0915C29.8348 26.9394 29.7062 26.7957 29.5864 26.6746C29.4696 26.5566 29.3525 26.445 29.2391 26.3372C28.8354 25.9529 28.4178 25.5557 28.1006 24.9349C27.8478 24.4399 27.7348 23.8936 27.6255 23.3652C27.5622 23.059 27.5023 22.7696 27.4179 22.4923C27.3387 22.2322 27.2704 21.9467 27.2042 21.6705C27.0772 21.14 26.9193 20.4797 26.7108 20.213C26.618 20.0941 26.4735 20.0387 26.1143 19.9214C25.8069 19.8211 25.4242 19.6963 25.0271 19.4449C24.8772 19.3501 24.694 19.2442 24.4999 19.1322C23.7453 18.6966 22.806 18.1543 22.303 17.3912C21.6233 16.3599 21.5922 14.7541 21.6104 14.1117C21.6297 13.4278 21.9909 13.0038 22.2066 12.7504C22.2105 12.7458 22.2145 12.7411 22.2186 12.7363C22.1596 12.6392 22.0721 12.5162 22.0117 12.4313C21.8511 12.2057 21.6691 11.95 21.5555 11.662C21.5287 11.5943 21.4972 11.5193 21.464 11.4399C21.3692 11.2144 21.2617 10.9589 21.1952 10.7057C21.069 10.225 21.1187 9.81901 21.3429 9.49905C21.7063 8.98073 22.3076 8.97859 22.7057 8.97698C22.8612 8.97645 23.0742 8.97555 23.1647 8.94163C23.3264 8.8811 23.5604 8.73344 23.7868 8.59078C24.1123 8.38563 24.481 8.15298 24.8869 8.00497C25.3878 7.82213 26.0406 7.67073 26.5937 7.60127C26.4183 7.26399 26.249 6.91529 26.249 6.54695C26.249 6.41125 26.2736 6.28055 26.3212 6.15861C25.9671 5.81062 25.9183 5.45584 25.9412 5.21677C25.9657 4.96002 26.0835 4.72469 26.292 4.51525C26.0685 4.47115 25.7835 4.43187 25.5217 4.39598C25.1685 4.34742 24.8034 4.29725 24.4887 4.22565C24.3343 4.19065 24.1761 4.16691 24.0084 4.14191C23.4993 4.06585 22.9224 3.97979 22.3779 3.54895C21.9807 3.23489 21.7567 2.75531 21.5589 2.33215C21.4808 2.16503 21.3561 1.89846 21.2719 1.78597C21.2342 1.78455 21.1666 1.78633 21.0577 1.80365C20.8851 1.83097 20.6825 1.88471 20.4865 1.93685C20.2328 2.00416 19.9703 2.07379 19.7185 2.10182C19.4626 2.13021 19.2328 2.132 19.0301 2.13361C18.931 2.13432 18.8087 2.13521 18.7159 2.14146C18.7107 2.15592 18.7057 2.17003 18.7012 2.18253C18.595 2.48106 18.3972 3.0367 17.7884 3.23221C17.3358 3.37755 16.893 3.22935 16.4978 3.08384C16.4122 3.34898 16.2607 3.65858 15.9376 3.86927C15.623 4.07442 15.2693 4.09477 14.9689 4.08156C14.9789 4.14441 14.9888 4.20351 14.9968 4.2519C15.0875 4.79397 15.159 5.22194 14.9289 5.60511C14.7778 5.85668 14.5274 6.02719 14.2424 6.0729C14.187 6.08183 14.1333 6.08594 14.0816 6.08594C13.6741 6.08594 13.3764 5.83222 13.1706 5.65492C12.8807 5.81258 12.4487 6.04076 11.9421 5.87989C11.666 5.79223 11.4729 5.61725 11.33 5.42656C11.2452 5.68599 11.159 6.00398 11.107 6.1961C11.0718 6.32591 11.0385 6.44857 11.0063 6.56034C10.9652 6.70282 10.9386 6.91958 10.9151 7.1108C10.8915 7.3022 10.8693 7.48307 10.8295 7.65126C10.73 8.07067 10.5151 8.35456 10.1906 8.49508C9.89837 8.62149 9.56165 8.60167 9.26678 8.4408C9.13714 8.3701 9.01197 8.27136 8.88393 8.13852C8.72478 7.97372 8.57547 7.77339 8.4174 7.56128C8.36786 7.49486 8.31654 7.42612 8.26719 7.36166C8.09463 7.13615 7.94496 6.84637 7.7867 6.53945C7.69426 6.36019 7.53922 6.05969 7.42406 5.88936C7.32088 5.93131 7.16978 6.01684 7.02601 6.14182C7.00348 6.20717 6.97559 6.32983 6.95609 6.41571C6.86239 6.82887 6.72059 7.45308 6.13139 7.81392C5.61299 8.13138 4.93259 8.14888 4.27436 8.16584C4.01847 8.17245 3.754 8.17923 3.58448 8.20655C3.35649 8.24333 3.12545 8.26154 2.92178 8.27761C2.84578 8.2835 2.75441 8.29082 2.66625 8.29939C2.69575 8.40938 2.73688 8.53632 2.78677 8.66541C2.89692 8.7088 3.03658 8.76879 3.1766 8.87503C3.44482 9.07857 3.6063 9.37514 3.63169 9.71028C3.67818 10.3243 3.31196 11.3436 2.86349 11.8487C2.79232 11.9289 2.71471 11.9975 2.63317 12.0564C2.71757 12.0796 2.80322 12.1153 2.88834 12.1674C3.13618 12.3192 3.30481 12.5754 3.35077 12.8707C3.41496 13.2834 3.23006 13.644 3.01602 14.0617C2.92518 14.2388 2.7587 14.5636 2.73635 14.6993C2.7739 14.9962 3.00082 15.3836 3.23006 15.5441C3.35434 15.5777 3.68229 15.5786 3.88203 15.5793C4.13005 15.58 4.3863 15.5809 4.62431 15.6136C5.0853 15.6768 5.42309 15.8645 5.62819 16.1716C5.84134 16.4908 5.87389 16.8827 5.72565 17.3378C5.8113 17.2568 5.90017 17.168 5.98797 17.0804C6.15642 16.912 6.34758 16.7213 6.55894 16.5379C6.68304 16.4303 6.83343 16.2528 6.99275 16.0648C7.43479 15.5431 7.98501 14.894 8.8124 14.7387C9.64677 14.5821 10.572 14.9517 11.3883 15.2777C11.6075 15.3652 11.8148 15.4481 12.0006 15.5127C12.1971 15.5811 12.4136 15.6398 12.6429 15.7022C13.3968 15.9068 14.251 16.1389 14.8207 16.8481C15.333 17.4858 15.4589 18.3559 15.5805 19.1972C15.627 19.5184 15.6708 19.8218 15.7327 20.076C15.8224 20.4451 15.8857 20.8247 15.9471 21.1918C16.0379 21.736 16.1318 22.2988 16.2888 22.6153C16.4032 22.8462 16.6006 22.9994 16.9134 23.2304C17.1156 23.3799 17.3451 23.5493 17.5471 23.7675C17.7622 23.9996 17.9073 24.2235 18.0351 24.421C18.19 24.6601 18.2774 24.7893 18.4203 24.8902C18.5256 24.9645 18.7781 25.0411 19.0011 25.1086C19.4126 25.2332 19.9247 25.3885 20.3662 25.7342C20.8106 26.082 21.1364 26.543 21.4516 26.9887C21.6374 27.2515 21.8128 27.4997 22.0011 27.7098C22.075 27.7923 22.149 27.8755 22.2236 27.9593C22.6821 28.4751 23.1561 29.0084 23.6906 29.4405C24.3365 29.9626 25.08 30.5391 25.7313 30.7737C25.9305 30.8455 26.272 30.825 26.6023 30.805C27.1759 30.7705 27.826 30.7314 28.3835 31.1067C28.962 31.4961 29.1474 32.1548 29.2965 32.6842C29.3548 32.8909 29.4523 33.2371 29.5297 33.3178C29.7193 33.5071 30.1577 33.6605 30.5443 33.7958C30.8254 33.8942 31.1162 33.996 31.3739 34.1288C31.5168 34.2025 31.6612 34.2674 31.8011 34.33C32.2351 34.5247 32.6837 34.7261 33.0528 35.1667C33.3589 35.5322 33.4392 35.9687 33.5038 36.3194C33.5206 36.4103 33.5437 36.5358 33.5664 36.6172C33.6842 36.6488 33.8893 36.6769 34.0222 36.6951C34.4217 36.7497 34.8746 36.8118 35.2458 37.0629C35.7901 37.4307 35.9586 37.8356 36.1369 38.2645C36.1846 38.3791 36.2338 38.4977 36.2975 38.6357C36.5966 39.2851 37.1345 40.5829 37.3932 41.4355C37.4256 41.5417 37.4598 41.6512 37.493 41.7569C37.7455 42.5621 37.9842 43.3229 37.7863 44.0057C37.5891 44.6861 36.9784 44.9468 36.6136 45.1027C36.5541 45.1281 36.4736 45.1625 36.4165 45.1907C36.3963 45.2855 36.3808 45.4412 36.3708 45.543C36.3355 45.8987 36.2957 46.3017 36.0385 46.6364C35.9747 46.7195 35.9075 46.7891 35.8381 46.8478L35.8377 46.8473ZM44.8171 37.0386C44.9723 37.2711 45.0801 37.5157 45.1709 37.7212C45.182 37.7462 45.1944 37.7742 45.2072 37.803C45.2158 37.7283 45.2147 37.6596 45.1988 37.6107C45.1845 37.5669 45.115 37.3966 44.8172 37.0384L44.8171 37.0386ZM9.40125 44.1271C8.88196 44.1271 8.27828 43.9962 7.82962 43.6334C7.14528 43.0803 6.69806 42.2867 6.53623 41.338C6.41928 40.6526 6.48688 39.6404 6.54642 38.7475C6.57378 38.339 6.59953 37.9529 6.6015 37.6785C6.60347 37.3946 6.61294 37.1438 6.62135 36.9224C6.62796 36.7456 6.63512 36.5562 6.63422 36.4001C6.58147 36.3832 6.52657 36.3617 6.47078 36.3346C6.1743 36.1901 5.95722 35.9314 5.85958 35.6063C5.77053 35.3101 5.70169 34.8275 5.68827 34.4052C5.66449 33.6571 5.80469 33.1607 6.12978 32.8434C6.3161 32.6613 6.65282 32.4583 7.19804 32.5249C7.4119 32.551 7.61862 32.6115 7.81853 32.6699C7.93423 32.7036 8.11609 32.7569 8.21694 32.7711C8.30778 32.7049 8.46335 32.533 8.56134 32.4249C8.7888 32.1739 9.04648 31.8893 9.39446 31.6927C9.4692 31.6506 9.56755 31.582 9.67163 31.5097C9.91678 31.3392 10.1945 31.146 10.5232 31.0317C11.0619 30.8444 11.588 30.9316 12.0045 31.2772C12.7639 31.9073 13.496 33.7474 13.7115 34.7784C13.9012 35.6852 13.7982 36.5435 13.6986 37.3736C13.6668 37.6391 13.6339 37.9137 13.6103 38.1895C13.5379 39.0376 13.3453 41.1091 13.12 42.0244C12.991 42.548 12.8524 42.8603 12.6413 43.1028C12.3503 43.4369 12.0095 43.5218 11.8058 43.5727C11.4437 43.6631 11.1188 43.5634 10.8363 43.4286C10.6442 43.7932 10.3633 43.9518 10.1564 44.0205C9.96042 44.0857 9.69433 44.1275 9.40143 44.1275L9.40125 44.1271ZM7.509 34.7596C7.5664 34.7771 7.62684 34.7994 7.68818 34.8289C7.98036 34.9683 8.19942 35.219 8.30474 35.5345C8.44672 35.96 8.42973 36.4142 8.4081 36.9891C8.40023 37.1979 8.39147 37.4346 8.3895 37.6915C8.38718 38.0188 8.35964 38.4306 8.33049 38.8662C8.28006 39.6211 8.2173 40.5608 8.29884 41.0382C8.38789 41.5598 8.60837 41.966 8.95457 42.2458C9.01572 42.2952 9.16897 42.3286 9.31667 42.3395C9.34153 42.2497 9.37318 42.152 9.41824 42.054C9.61995 41.6167 9.96006 41.4669 10.1448 41.4168C10.6186 41.2877 11.028 41.5005 11.3606 41.6851C11.3677 41.6585 11.375 41.6296 11.3829 41.598C11.5424 40.9502 11.7173 39.334 11.828 38.0376C11.8541 37.7312 11.889 37.4412 11.9226 37.1607C12.0125 36.4108 12.0903 35.7632 11.9607 35.1431C11.8702 34.7105 11.6733 34.1401 11.4339 33.6169C11.2408 33.195 11.0796 32.932 10.975 32.7868C10.882 32.8433 10.7715 32.92 10.6934 32.9745C10.56 33.0672 10.4223 33.163 10.2746 33.2466C10.1782 33.3011 10.0167 33.4793 9.8871 33.6224C9.60618 33.9326 9.25659 34.3186 8.74928 34.4854C8.30385 34.6318 7.85805 34.5368 7.4786 34.4304C7.48468 34.54 7.49505 34.6541 7.50864 34.76L7.509 34.7596Z" fill="#3C3D3E"/>
</g>
<defs>
<clipPath id="clip0_2351_17344">
<rect width="47" height="55" fill="white"/>
</clipPath>
</defs>
</svg>
