<svg width="17" height="19" viewBox="0 0 17 19" fill="none" >
    <g clip-path="url(#clip0_1212_23400)">
        <path
            d="M6.65385 16.5788H10.3462C13.517 16.5788 16.1 14.0543 16.1 10.9462C16.1 10.7015 15.8986 10.5074 15.6538 10.5074H1.34615C1.10144 10.5074 0.9 10.7015 0.9 10.9462C0.9 14.0543 3.48298 16.5788 6.65385 16.5788ZM6.65385 15.7014C4.12294 15.7014 2.03989 13.8006 1.81243 11.3849H15.1876C14.9601 13.8006 12.8771 15.7014 10.3462 15.7014H6.65385Z"
            fill="currentColor" stroke="currentColor" stroke-width="0.2" />
        <path
            d="M3.59968 18.0659L3.59968 18.0659C3.37337 17.9747 3.26053 17.7191 3.3556 17.493L3.35558 17.493L3.4478 17.5316L3.35565 17.4929L3.59968 18.0659ZM3.59968 18.0659L3.60102 18.0664C3.65595 18.0876 3.71162 18.0978 3.76744 18.098L3.59968 18.0659ZM3.76859 18.098V17.998M3.76859 18.098V17.898H3.76744V17.998C3.76783 17.998 3.76821 17.998 3.76859 17.998M3.76859 18.098C3.7684 18.098 3.76821 18.098 3.76801 18.098L3.76859 18.098ZM3.76859 17.998V17.998C3.76821 17.998 3.76783 17.998 3.76744 17.998H3.76859Z"
            fill="currentColor" stroke="currentColor" stroke-width="0.2" />
        <path
            d="M12.5334 17.8269L12.5332 17.8266L11.7775 16.0213C11.7775 16.0213 11.7775 16.0212 11.7775 16.0212L11.7775 16.0211L11.8697 15.9825C11.797 15.8097 11.8824 15.611 12.0589 15.541L12.5334 17.8269ZM12.5334 17.8269C12.6051 17.9966 12.7715 18.0975 12.9451 18.098L12.5334 17.8269ZM12.6024 15.6878C12.5093 15.4632 12.2477 15.3573 12.0218 15.4482L13.3581 17.493C13.3581 17.493 13.358 17.4929 13.358 17.4929L12.6025 15.6879C12.6025 15.6879 12.6024 15.6878 12.6024 15.6878ZM12.9462 18.098C13.0016 18.0978 13.0588 18.0878 13.1135 18.0661L12.9462 18.098Z"
            fill="currentColor" stroke="currentColor" stroke-width="0.2" />
        <path
            d="M11.0828 5.16133C11.0828 5.40603 11.2843 5.60007 11.529 5.60007C11.7737 5.60007 11.9751 5.40603 11.9751 5.16133C11.9751 3.674 10.7173 2.47227 9.17976 2.47227C7.6422 2.47227 6.38437 3.67515 6.38437 5.16133C6.38437 5.40603 6.58582 5.60007 6.83053 5.60007C7.07524 5.60007 7.27668 5.40603 7.27668 5.16133C7.27668 4.16635 8.12627 3.34974 9.17976 3.34974C10.2332 3.34974 11.0828 4.16744 11.0828 5.16133Z"
            fill="currentColor" stroke="currentColor" stroke-width="0.2" />
        <path
            d="M8.63735 2.64839C8.50939 2.85771 8.58136 3.12731 8.79218 3.25081C9.00263 3.37408 9.27551 3.30649 9.40226 3.09927L9.40241 3.09904C9.89739 2.28485 10.8074 1.77747 11.777 1.77747C13.3011 1.77747 14.5373 2.99031 14.5373 4.47656V10.943C14.5373 11.1877 14.7388 11.3818 14.9835 11.3818H14.9846C15.2294 11.3818 15.4308 11.1877 15.4308 10.943V4.47656C15.4308 2.50205 13.7905 0.9 11.7781 0.9C10.4978 0.9 9.29393 1.5691 8.63735 2.64839ZM8.63735 2.64839C8.63737 2.64835 8.6374 2.64831 8.63742 2.64827L8.72273 2.70045L8.63729 2.64848C8.63731 2.64845 8.63733 2.64842 8.63735 2.64839Z"
            fill="currentColor" stroke="currentColor" stroke-width="0.2" />
        <path
            d="M5.84615 5.96497H12.1842C12.4289 5.96497 12.6304 5.77093 12.6304 5.52624C12.6304 5.28154 12.4289 5.0875 12.1842 5.0875H5.84615C5.60144 5.0875 5.4 5.28154 5.4 5.52624C5.4 5.77093 5.60144 5.96497 5.84615 5.96497Z"
            fill="currentColor" stroke="currentColor" stroke-width="0.2" />
        <path
            d="M1.69381 12.7384H15.4246C15.6693 12.7384 15.8707 12.5444 15.8707 12.2997C15.8707 12.055 15.6693 11.8609 15.4246 11.8609H1.69381C1.4491 11.8609 1.24766 12.055 1.24766 12.2997C1.24766 12.5444 1.4491 12.7384 1.69381 12.7384Z"
            fill="currentColor" stroke="currentColor" stroke-width="0.2" />
    </g>
    <defs>
        <clipPath id="clip0_1212_23400">
            <rect width="17" height="19" fill="white" />
        </clipPath>
    </defs>
</svg>