<svg
  height="59"
  width="73"
  viewBox="0 0 73 59"
  fill="none"
  
>
  <path
    d="M59.8125 2.62891C62.3047 0.136719 66.2695 0.136719 68.7617 2.62891L70.1211 3.98828C72.6133 6.48047 72.6133 10.4453 70.1211 12.9375L46.5586 36.6133C45.6523 37.4062 44.5195 38.0859 43.3867 38.3125L33.6445 40.3516C33.3047 40.3516 33.0781 40.3516 32.8516 40.125C32.625 39.8984 32.5117 39.5586 32.625 39.2188L34.6641 29.5898C34.8906 28.3438 35.457 27.2109 36.3633 26.418L59.8125 2.62891ZM67.5156 3.875C65.7031 2.17578 62.8711 2.17578 61.0586 3.875L56.5273 8.51953L64.3438 16.2227L68.875 11.6914C70.6875 9.87891 70.6875 7.04688 68.875 5.23438L67.5156 3.875ZM36.3633 29.9297L34.6641 38.3125L42.9336 36.5C43.8398 36.3867 44.6328 35.9336 45.1992 35.2539L62.9844 17.4688L55.2812 9.76562L37.6094 27.6641C37.043 28.3438 36.5898 29.0234 36.3633 29.9297ZM35.3438 14.75C35.7969 14.75 36.25 15.2031 36.25 15.6562C36.25 16.2227 35.7969 16.5625 35.3438 16.5625H6.34375C3.73828 16.5625 1.8125 18.6016 1.8125 21.0938V51.9062C1.8125 54.5117 3.73828 56.4375 6.34375 56.4375H58.9062C61.3984 56.4375 63.4375 54.5117 63.4375 51.9062V30.1562C63.4375 29.7031 63.7773 29.25 64.3438 29.25C64.7969 29.25 65.25 29.7031 65.25 30.1562V51.9062C65.25 55.418 62.3047 58.25 58.9062 58.25H6.34375C2.83203 58.25 0 55.418 0 51.9062V21.0938C0 17.6953 2.83203 14.75 6.34375 14.75H35.3438ZM12.6875 36.5C12.6875 35.5938 13.4805 34.6875 14.5 34.6875C15.4062 34.6875 16.3125 35.5938 16.3125 36.5C16.3125 37.5195 15.4062 38.3125 14.5 38.3125C13.4805 38.3125 12.6875 37.5195 12.6875 36.5ZM27.1875 36.5C27.1875 37.5195 26.2812 38.3125 25.375 38.3125C24.3555 38.3125 23.5625 37.5195 23.5625 36.5C23.5625 35.5938 24.3555 34.6875 25.375 34.6875C26.2812 34.6875 27.1875 35.5938 27.1875 36.5Z"
    fill="currentColor"
  />
</svg>
