<svg width="59" height="52" viewBox="0 0 59 52" fill="none" >
<path d="M58.7734 1.21484C59 1.66797 59 2.23438 58.6602 2.57422L37.8164 20.5859C37.4766 20.9258 36.9102 20.9258 36.5703 20.5859L22.6367 6.65234L2.35938 22.5117C2.01953 22.7383 1.45312 22.7383 1.11328 22.2852C0.773438 21.9453 0.886719 21.3789 1.33984 21.0391L22.1836 4.72656C22.5234 4.5 22.9766 4.5 23.3164 4.83984L37.25 18.7734L57.4141 1.10156C57.8672 0.875 58.4336 0.875 58.7734 1.21484ZM11.7617 37.125V48C11.7617 50.0391 10.1758 51.625 8.13672 51.625C6.21094 51.625 4.51172 50.0391 4.51172 48V37.125C4.51172 35.1992 6.21094 33.5 8.13672 33.5C10.1758 33.5 11.7617 35.1992 11.7617 37.125ZM9.94922 48V37.125C9.94922 36.2188 9.15625 35.3125 8.13672 35.3125C7.23047 35.3125 6.32422 36.2188 6.32422 37.125V48C6.32422 49.0195 7.23047 49.8125 8.13672 49.8125C9.15625 49.8125 9.94922 49.0195 9.94922 48ZM19.0117 26.25C19.0117 24.3242 20.7109 22.625 22.6367 22.625C24.6758 22.625 26.2617 24.3242 26.2617 26.25V48C26.2617 50.0391 24.6758 51.625 22.6367 51.625C20.7109 51.625 19.0117 50.0391 19.0117 48V26.25ZM20.8242 26.25V48C20.8242 49.0195 21.7305 49.8125 22.6367 49.8125C23.6562 49.8125 24.4492 49.0195 24.4492 48V26.25C24.4492 25.3438 23.6562 24.4375 22.6367 24.4375C21.7305 24.4375 20.8242 25.3438 20.8242 26.25ZM40.875 33.5V48C40.875 50.0391 39.1758 51.625 37.25 51.625C35.2109 51.625 33.625 50.0391 33.625 48V33.5C33.625 31.5742 35.2109 29.875 37.25 29.875C39.1758 29.875 40.875 31.5742 40.875 33.5ZM39.0625 48V33.5C39.0625 32.5938 38.1562 31.6875 37.25 31.6875C36.2305 31.6875 35.4375 32.5938 35.4375 33.5V48C35.4375 49.0195 36.2305 49.8125 37.25 49.8125C38.1562 49.8125 39.0625 49.0195 39.0625 48ZM48.125 26.25C48.125 24.3242 49.7109 22.625 51.75 22.625C53.6758 22.625 55.375 24.3242 55.375 26.25V48C55.375 50.0391 53.6758 51.625 51.75 51.625C49.7109 51.625 48.125 50.0391 48.125 48V26.25ZM49.9375 26.25V48C49.9375 49.0195 50.7305 49.8125 51.75 49.8125C52.6562 49.8125 53.5625 49.0195 53.5625 48V26.25C53.5625 25.3438 52.6562 24.4375 51.75 24.4375C50.7305 24.4375 49.9375 25.3438 49.9375 26.25Z" fill="#3C3D3E"/>
</svg>
