<svg width="auto" height="auto" viewBox="0 0 17 16" fill="none" >
    <g clip-path="url(#clip0_1760_4746)">
        <path
            d="M16.587 15.1923H16.305V9.76126H16.5828C16.8083 9.76126 16.9911 9.59181 16.9989 9.37549C17.0029 9.26575 16.9622 9.16191 16.8845 9.08303C16.8066 9.00415 16.7021 8.96074 16.59 8.96074H14.4849V5.85254C14.4849 5.08 14.3316 4.3265 14.0293 3.61294C13.727 2.89923 13.2906 2.26052 12.7319 1.71424C12.1733 1.16797 11.5201 0.741104 10.7902 0.445614C10.0602 0.149836 9.28958 0 8.49953 0C7.70948 0 6.9389 0.149836 6.20917 0.44547C5.47929 0.741104 4.82595 1.16797 4.26745 1.7141C3.70879 2.26037 3.2724 2.89909 2.97007 3.61279C2.66773 4.3265 2.5145 5.08 2.5145 5.8524V8.96059H0.416455C0.194645 8.96059 0.00793575 9.13365 0.000266803 9.34636C-0.00371515 9.45611 0.0369893 9.55994 0.114711 9.63882C0.192581 9.71771 0.297144 9.76111 0.409228 9.76111H0.69416V15.1921H0.426336C0.198627 15.1921 0.013245 15.3733 0.013245 15.5961C0.013245 15.8189 0.19848 16 0.426336 16H16.587C16.8147 16 17.0001 15.8189 17.0001 15.5961C17.0001 15.3733 16.8149 15.1921 16.587 15.1921V15.1923ZM15.4864 9.76111V15.1921H14.1918V9.76111H15.4864ZM13.3731 9.76111V15.1921H12.0786V9.76111H13.3731ZM11.2599 9.76111V15.1921H9.96533V9.76111H11.2599ZM7.03373 9.76111V15.1921H5.73915V9.76111H7.03373ZM4.92049 9.76111V15.1921H3.62591V9.76111H4.92049ZM9.14682 9.76111V15.1921H7.85224V9.76111H9.14682ZM3.34924 5.45236C3.39511 4.87421 3.53993 4.31554 3.78032 3.79017C4.03694 3.22904 4.39561 2.72099 4.84631 2.28028C5.29701 1.83956 5.81658 1.48884 6.39042 1.23791C6.92769 1.00299 7.49903 0.861377 8.09027 0.816382V5.45236H3.34924ZM8.09027 6.25273V8.96059H3.33302V6.25273H8.09027ZM13.666 6.25273V8.96059H8.90879V6.25273H13.666ZM8.90893 5.45236V0.816238C9.50018 0.861088 10.0715 1.0027 10.6088 1.23777C11.1826 1.4887 11.7022 1.83942 12.1529 2.28013C12.6036 2.72084 12.9623 3.2289 13.219 3.79003C13.4593 4.31539 13.6041 4.87407 13.6501 5.45221H8.90908L8.90893 5.45236ZM2.8074 9.76111V15.1921H1.51282V9.76111H2.8074Z"
            fill="#3C3D3E" />
    </g>
    <defs>
        <clipPath id="clip0_1760_4746">
            <rect width="17" height="16" fill="white" />
        </clipPath>
    </defs>
</svg>