<svg width="46" height="53" viewBox="0 0 46 53" fill="none" xmlns="http://www.w3.org/2000/svg">
<path d="M31.8906 36.25C39.4062 36.25 45.5 42.3438 45.5 49.8594C45.5 51.3828 44.2812 52.5 42.7578 52.5H2.64062C1.11719 52.5 0 51.3828 0 49.8594C0 42.3438 5.99219 36.25 13.5078 36.25H31.8906ZM42.7578 50.875C43.3672 50.875 43.875 50.4688 43.875 49.8594C43.875 43.2578 38.4922 37.875 31.8906 37.875H13.5078C6.90625 37.875 1.625 43.2578 1.625 49.8594C1.625 50.4688 2.03125 50.875 2.64062 50.875H42.7578ZM6.5 18.375V22.4375C6.5 22.9453 5.89062 23.25 5.58594 23.25C5.17969 23.25 4.875 22.9453 4.875 22.4375V18.375C4.875 8.32031 13.2031 0.195312 23.3594 0.601562C33.1094 0.90625 40.625 9.13281 40.625 18.8828V22.4375C40.625 28.3281 35.8516 33 30.0625 33H21.125C19.1953 33 17.6719 31.375 17.875 29.4453C17.9766 27.8203 19.5 26.5 21.2266 26.5H24.0703C25.4922 26.5 26.8125 27.3125 27.3203 28.6328C27.8281 29.75 27.5234 30.6641 27.1172 31.375H30.0625C34.9375 31.375 39 27.4141 39 22.4375V18.7812C39 10.0469 32.0938 2.53125 23.3594 2.22656C14.1172 1.82031 6.5 9.23438 6.5 18.375ZM24.375 31.375C25.1875 31.375 26 30.6641 26 29.75C26 28.9375 25.1875 28.125 24.375 28.125H21.125C20.2109 28.125 19.5 28.9375 19.5 29.75C19.5 30.6641 20.2109 31.375 21.125 31.375H24.375ZM22.75 8.625C16.4531 8.625 11.375 13.8047 11.375 20C11.375 22.5391 12.0859 24.875 13.6094 26.9062C13.9141 27.2109 13.8125 27.7188 13.4062 28.0234C13.1016 28.2266 12.5938 28.2266 12.2891 27.8203C10.5625 25.5859 9.75 22.8438 9.75 20C9.75 12.8906 15.5391 7 22.75 7C29.8594 7 35.75 12.8906 35.75 20C35.75 22.8438 34.8359 25.5859 33.1094 27.8203C32.9062 28.0234 32.7031 28.125 32.5 28.125C32.2969 28.125 32.0938 28.125 31.9922 28.0234C31.5859 27.7188 31.4844 27.2109 31.7891 26.9062C33.3125 24.875 34.125 22.5391 34.125 20C34.125 13.8047 28.9453 8.625 22.75 8.625Z" fill="#3C3D3E"/>
</svg>
