<svg width="27" height="15" viewBox="0 0 27 15" fill="none" >
  <g clip-path="url(#clip0_994_4157)">
    <path
      d="M14.5025 13.9583H13.9558V4.00803H19.4958C19.794 4.00803 20.0357 3.77474 20.0357 3.48693C20.0357 3.19912 19.794 2.96582 19.4958 2.96582H7.50177C7.20361 2.96582 6.96191 3.19912 6.96191 3.48693C6.96191 3.77474 7.20361 4.00803 7.50177 4.00803H12.8763V13.9583H12.3298C12.0316 13.9583 11.7899 14.1916 11.7899 14.4794C11.7899 14.7672 12.0316 15.0005 12.3298 15.0005H14.5027C14.8009 15.0005 15.0425 14.7672 15.0425 14.4794C15.0425 14.1916 14.8009 13.9583 14.5027 13.9583H14.5025Z"
      fill="#3C3D3E" />
    <path
      d="M9.29879 7.95012C9.28368 7.67546 9.04813 7.45724 8.75976 7.45724H3.62743L1.04939 0.348871C0.950888 0.0772542 0.642919 -0.0659297 0.361527 0.0291521C0.0801349 0.124234 -0.0682022 0.421665 0.0303016 0.693282L2.69173 8.03174L1.99573 14.4243C1.9645 14.7106 2.17961 14.9669 2.47612 14.9971C2.49539 14.999 2.51432 15 2.53326 15C2.80601 15 3.0404 14.801 3.06947 14.5332L3.30385 12.381H8.69548L8.92986 14.5332C8.95893 14.801 9.19331 15 9.46607 15C9.48484 15 9.50394 14.999 9.52321 14.9971C9.81972 14.9669 10.0348 14.7106 10.0036 14.4243L9.29863 7.95028L9.29879 7.95012ZM3.41747 11.3386L3.7266 8.49945H8.27289L8.58202 11.3386H3.41747Z"
      fill="#3C3D3E" />
    <path
      d="M26.6384 0.0294129C26.357 -0.0656689 26.049 0.0773547 25.9505 0.349132L23.3725 7.4575H18.2403C17.9519 7.4575 17.7164 7.67572 17.7013 7.95039L16.9963 14.4244C16.9651 14.7107 17.1802 14.967 17.4767 14.9972C17.496 14.9991 17.5149 15.0001 17.5338 15.0001C17.8066 15.0001 18.041 14.8011 18.07 14.5333L18.3044 12.3811H23.6961L23.9304 14.5333C23.9595 14.8011 24.1939 15.0001 24.4666 15.0001C24.4854 15.0001 24.5045 14.9991 24.5238 14.9972C24.8203 14.967 25.0354 14.7107 25.0042 14.4244L24.3082 8.03184L26.9696 0.693543C27.0681 0.421926 26.9198 0.124655 26.6384 0.0295733V0.0294129ZM18.4179 11.3389L18.727 8.49971H23.2733L23.5824 11.3389H18.4177H18.4179Z"
      fill="#3C3D3E" />
  </g>
  <defs>
    <clipPath id="clip0_994_4157">
      <rect width="27" height="15" fill="white" />
    </clipPath>
  </defs>
</svg>