<svg width="58" height="58" viewBox="0 0 58 58" fill="none" >
<g clip-path="url(#clip0_1042_7050)">
<path d="M15.659 32.1367C15.2095 32.1367 14.8462 32.5012 14.8462 32.9496V36.0004C14.8462 36.45 15.2107 36.8133 15.659 36.8133C16.1074 36.8133 16.4719 36.4488 16.4719 36.0004V32.9496C16.4719 32.5 16.1074 32.1367 15.659 32.1367Z" fill="#3C3D3E"/>
<path d="M41.8919 32.1367C41.4424 32.1367 41.0791 32.5012 41.0791 32.9496V36.0004C41.0791 36.45 41.4436 36.8133 41.8919 36.8133C42.3403 36.8133 42.7048 36.4488 42.7048 36.0004V32.9496C42.7048 32.5 42.3403 32.1367 41.8919 32.1367Z" fill="#3C3D3E"/>
<path d="M15.659 40.7793C15.2095 40.7793 14.8462 41.1438 14.8462 41.5921V44.643C14.8462 45.0925 15.2107 45.4558 15.659 45.4558C16.1074 45.4558 16.4719 45.0913 16.4719 44.643V41.5921C16.4719 41.1426 16.1074 40.7793 15.659 40.7793Z" fill="#3C3D3E"/>
<path d="M41.8919 40.7793C41.4424 40.7793 41.0791 41.1438 41.0791 41.5921V44.643C41.0791 45.0925 41.4436 45.4558 41.8919 45.4558C42.3403 45.4558 42.7048 45.0913 42.7048 44.643V41.5921C42.7048 41.1426 42.3403 40.7793 41.8919 40.7793Z" fill="#3C3D3E"/>
<path d="M15.659 49.4219C15.2095 49.4219 14.8462 49.7864 14.8462 50.2347V53.2856C14.8462 53.7351 15.2107 54.0984 15.659 54.0984C16.1074 54.0984 16.4719 53.7339 16.4719 53.2856V50.2347C16.4719 49.7852 16.1074 49.4219 15.659 49.4219Z" fill="#3C3D3E"/>
<path d="M41.8919 49.4219C41.4424 49.4219 41.0791 49.7864 41.0791 50.2347V53.2856C41.0791 53.7351 41.4436 54.0984 41.8919 54.0984C42.3403 54.0984 42.7048 53.7339 42.7048 53.2856V50.2347C42.7048 49.7852 42.3403 49.4219 41.8919 49.4219Z" fill="#3C3D3E"/>
<path d="M57.5414 24.118C57.5378 24.0901 57.5366 24.0621 57.5317 24.0354C57.5317 24.033 57.5317 24.0305 57.5317 24.0293L55.7019 15.8949C55.6181 15.5243 55.2888 15.2595 54.9085 15.2595C54.5282 15.2595 54.1978 15.5231 54.1151 15.8949L52.2853 24.0293C52.2853 24.0293 52.2853 24.0342 52.2853 24.0354C52.2793 24.0621 52.2781 24.0901 52.2756 24.118C52.272 24.146 52.2671 24.1727 52.2671 24.2006C52.2671 24.2031 52.2671 24.2043 52.2671 24.2067V28.797L49.0133 25.9685V16.6834C49.0133 16.6834 49.0133 16.6786 49.0133 16.6774C49.0133 16.6506 49.0085 16.6227 49.0048 16.5947C49.0012 16.5668 49 16.5388 48.9951 16.5121C48.9951 16.5097 48.9951 16.5085 48.9951 16.506L47.1653 8.37162C47.0815 8.00104 46.7522 7.73617 46.3719 7.73617C45.9916 7.73617 45.6624 7.99983 45.5785 8.37162L43.7488 16.506C43.7488 16.506 43.7488 16.5097 43.7488 16.5121C43.7427 16.5388 43.7415 16.5668 43.739 16.5947C43.7354 16.6227 43.7305 16.6494 43.7305 16.6774C43.7305 16.6798 43.7305 16.681 43.7305 16.6834V21.3721L40.0697 18.19V9.16015C40.0697 9.16015 40.0697 9.15529 40.0697 9.15408C40.0697 9.12735 40.0649 9.0994 40.0612 9.07267C40.0576 9.04473 40.0564 9.01557 40.0515 8.98884C40.0515 8.98641 40.0515 8.98398 40.0515 8.98276L38.2217 0.848336C38.1379 0.477761 37.8086 0.212891 37.4283 0.212891C37.048 0.212891 36.7188 0.476546 36.6349 0.848336L34.8051 8.98276C34.8051 8.98276 34.8051 8.98641 34.8051 8.98884C34.7991 9.01557 34.7978 9.04473 34.7954 9.07267C34.793 9.10062 34.7869 9.12735 34.7869 9.15408C34.7869 9.15651 34.7869 9.15894 34.7869 9.16015V13.5937L29.3218 8.84182C29.0157 8.57574 28.56 8.57574 28.2539 8.84182L22.7888 13.5937V9.16015C22.7888 9.16015 22.7888 9.15529 22.7888 9.15408C22.7888 9.12735 22.7839 9.0994 22.7803 9.07267C22.7766 9.04473 22.7754 9.01557 22.7706 8.98884C22.7706 8.98641 22.7706 8.98398 22.7706 8.98276L20.9408 0.848336C20.8569 0.477761 20.5277 0.212891 20.1474 0.212891C19.7671 0.212891 19.4378 0.476546 19.354 0.848336L17.5242 8.98276C17.5242 8.98276 17.5242 8.98641 17.5242 8.98884C17.5181 9.01557 17.5169 9.04473 17.5145 9.07267C17.512 9.10062 17.506 9.12735 17.506 9.15408C17.506 9.15651 17.506 9.15894 17.506 9.16015V18.19L13.8452 21.3721V16.6834C13.8452 16.6834 13.8452 16.6786 13.8452 16.6774C13.8452 16.6506 13.8403 16.6227 13.8367 16.596C13.833 16.568 13.8318 16.5388 13.827 16.5121C13.827 16.5097 13.827 16.5073 13.827 16.506L11.9972 8.37162C11.9133 8.00104 11.5841 7.73617 11.2038 7.73617C10.8235 7.73617 10.4942 7.99983 10.4104 8.37162L8.58058 16.506C8.58058 16.506 8.58058 16.5097 8.58058 16.5121C8.5745 16.5388 8.57329 16.568 8.57086 16.596C8.56843 16.6239 8.56236 16.6506 8.56236 16.6774C8.56236 16.6798 8.56236 16.6822 8.56236 16.6834V25.9685L5.30858 28.797V24.2067C5.30858 24.2067 5.30858 24.2019 5.30858 24.2006C5.30858 24.1739 5.30372 24.146 5.30008 24.1192C5.29643 24.0913 5.29522 24.0621 5.29036 24.0354C5.29036 24.033 5.29036 24.0305 5.29036 24.0293L3.46057 15.8949C3.37673 15.5243 3.04747 15.2595 2.66717 15.2595C2.28688 15.2595 1.95761 15.5231 1.87378 15.8949L0.0196898 24.0281C0.0196898 24.0281 0.0196898 24.0318 0.0196898 24.0342C0.0136148 24.0609 0.0123998 24.0901 0.00996984 24.118C0.00753984 24.1447 0.00146484 24.1727 0.00146484 24.1994C0.00146484 24.2019 0.00146484 24.2043 0.00146484 24.2055V57.149C0.00146484 57.5986 0.365965 57.9618 0.8143 57.9618H56.7383C57.1879 57.9618 57.5512 57.5973 57.5512 57.149V24.2067C57.5512 24.2067 57.5512 24.2019 57.5512 24.2006C57.5512 24.1727 57.5463 24.146 57.5426 24.118H57.5414ZM53.8904 25.0195H55.9243V36.6106H53.8904V25.0195ZM54.9073 19.778L55.7201 23.3939H54.0933L54.9061 19.778H54.9073ZM52.2635 36.6119H51.2465V30.0691L52.2635 30.9536V36.6131V36.6119ZM50.0267 29.0072V36.6106H49.0097V28.1227L50.0267 29.0072ZM26.6719 44.8872L28.7763 42.7525L30.8807 44.8872L30.7811 45.9661H26.774L26.6744 44.8872H26.6719ZM26.8432 47.593H30.7069V56.3374H26.8432V47.593ZM32.3338 46.8167L32.5343 44.66C32.5562 44.4207 32.4723 44.185 32.3035 44.0136L29.3547 41.0223C29.2016 40.8668 28.9926 40.7805 28.7751 40.7805C28.5576 40.7805 28.3486 40.868 28.1955 41.0223L25.2467 44.0136C25.0779 44.185 24.994 44.4207 25.0159 44.66L25.2164 46.8167V56.3374H22.7766V21.055H34.7748V56.3374H32.335V46.8167H32.3338ZM12.2013 31.7312H10.1674V17.4963H12.2013V31.7312ZM10.1686 33.3581H12.2025V56.3374H10.1686V33.3581ZM13.8282 28.2733H17.489V56.3362H13.8282V28.2733ZM21.1498 22.7827H19.1158V9.97177H21.1498V22.7827ZM19.1158 24.4096H21.1498V56.3374H19.1158V24.4096ZM25.2164 19.4281V13.6253L26.6403 12.3872V19.4269H25.2164V19.4281ZM30.9111 19.4281V12.3884L32.335 13.6265V19.4293H30.9111V19.4281ZM38.4343 22.7827H36.4004V9.97177H38.4343V22.7827ZM36.4016 24.4096H38.4356V56.3374H36.4016V24.4096ZM40.0612 28.2733H43.722V56.3362H40.0612V28.2733ZM47.3828 31.7312H45.3489V17.4963H47.3828V31.7312ZM45.3489 33.3581H47.3828V56.3374H45.3489V33.3581ZM46.3659 12.2535L47.1799 15.8694H45.553L46.3671 12.2535H46.3659ZM43.722 26.6464H42.5022V22.4656L43.722 23.5263V26.6464ZM41.2823 21.4049V26.6464H40.0624V20.343L41.2823 21.4037V21.4049ZM37.4186 4.72905L38.2327 8.34489H36.6058L37.4198 4.72905H37.4186ZM34.7748 19.4281H33.5549V14.6872L34.7748 15.7479V19.4281ZM28.7751 10.5319L29.69 11.3277V19.4281H27.8602V11.3277L28.7751 10.5319ZM23.9965 14.686V19.4269H22.7766V15.7467L23.9965 14.686ZM20.1328 4.72905L20.9468 8.34489H19.32L20.134 4.72905H20.1328ZM17.489 26.6464H16.2691V21.4049L17.489 20.3442V26.6476V26.6464ZM15.0492 22.4656V26.6464H13.8294V23.5263L15.0492 22.4656ZM11.1855 12.2535L11.9996 15.8694H10.3727L11.1868 12.2535H11.1855ZM8.5417 36.6119H7.52474V29.0084L8.5417 28.1239V36.6119ZM6.30488 30.0691V36.6119H5.28793V30.9524L6.30488 30.0679V30.0691ZM1.62713 25.0195H3.66104V36.6106H1.62713V25.0195ZM2.64409 19.778L3.45814 23.3939H1.83125L2.6453 19.778H2.64409ZM1.62713 38.2387H8.5417V56.3374H7.32184V50.0328C7.32184 48.7995 6.31825 47.7959 5.08502 47.7959C3.8518 47.7959 2.84821 48.7995 2.84821 50.0328V56.3374H1.62835V38.2387H1.62713ZM4.47388 56.3374V50.0328C4.47388 49.6962 4.74725 49.4228 5.08381 49.4228C5.42036 49.4228 5.69374 49.6962 5.69374 50.0328V56.3374H4.47388ZM51.8564 56.3374V50.0328C51.8564 49.6962 52.1298 49.4228 52.4664 49.4228C52.8029 49.4228 53.0763 49.6962 53.0763 50.0328V56.3374H51.8564ZM54.7032 56.3374V50.0328C54.7032 48.7995 53.6996 47.7959 52.4664 47.7959C51.2332 47.7959 50.2296 48.7995 50.2296 50.0328V56.3374H49.0097V38.2387H55.9243V56.3374H54.7044H54.7032Z" fill="#3C3D3E"/>
<path d="M3.66073 45.4558H6.50747C6.95703 45.4558 7.32031 45.0913 7.32031 44.643V43.0161C7.32031 41.7829 6.31672 40.7793 5.08349 40.7793C3.85027 40.7793 2.84668 41.7829 2.84668 43.0161V44.643C2.84668 45.0925 3.21118 45.4558 3.65951 45.4558H3.66073ZM4.47356 43.0161C4.47356 42.6796 4.74694 42.4062 5.08349 42.4062C5.42005 42.4062 5.69342 42.6796 5.69342 43.0161V43.8289H4.47356V43.0161Z" fill="#3C3D3E"/>
<path d="M52.4658 40.7793C51.2326 40.7793 50.229 41.7829 50.229 43.0161V44.643C50.229 45.0925 50.5935 45.4558 51.0418 45.4558H53.8886C54.3381 45.4558 54.7014 45.0913 54.7014 44.643V43.0161C54.7014 41.7829 53.6978 40.7793 52.4646 40.7793H52.4658ZM53.0757 43.8289H51.8559V43.0161C51.8559 42.6796 52.1293 42.4062 52.4658 42.4062C52.8024 42.4062 53.0757 42.6796 53.0757 43.0161V43.8289Z" fill="#3C3D3E"/>
<path d="M28.8146 24.0344C28.7879 24.0332 28.7611 24.0332 28.7344 24.0344C26.7552 24.1316 25.2061 25.7609 25.2061 27.7438V34.3729C25.2061 34.4069 25.2121 34.4397 25.2158 34.4725V37.2196C25.2158 37.6691 25.5803 38.0324 26.0286 38.0324H31.5192C31.9687 38.0324 32.332 37.6679 32.332 37.2196V34.4725C32.3357 34.4397 32.3417 34.4069 32.3417 34.3716V27.7426C32.3417 25.7597 30.7914 24.1304 28.8134 24.0332L28.8146 24.0344ZM26.8329 27.7438C26.8329 26.643 27.6822 25.7366 28.7745 25.6613C29.8668 25.7354 30.7161 26.643 30.7161 27.7438V33.56H26.8317V27.7438H26.8329ZM29.0795 35.1869V36.4068H28.4695V35.1869H29.0795ZM26.8427 35.1869H27.2497V36.4068H26.8427V35.1869ZM30.3005 36.4068V35.1869H30.7076V36.4068H30.3005Z" fill="#3C3D3E"/>
</g>
<defs>
<clipPath id="clip0_1042_7050">
<rect width="57.5509" height="57.7538" fill="white" transform="translate(0 0.208984)"/>
</clipPath>
</defs>
</svg>
