<svg width="51" height="59" viewBox="0 0 51 59" fill="none" >
<path d="M24.1289 46.2422C23.7891 46.582 23.2227 46.582 22.8828 46.2422L14.7266 38.0859C14.3867 37.7461 14.3867 37.1797 14.7266 36.8398C15.0664 36.5 15.6328 36.5 15.9727 36.8398L23.5625 44.3164L36.4766 31.4023C36.8164 31.0625 37.3828 31.0625 37.7227 31.4023C38.0625 31.7422 38.0625 32.3086 37.7227 32.6484L24.1289 46.2422ZM14.5 7.5H36.25V1.15625C36.25 0.703125 36.5898 0.25 37.1562 0.25C37.6094 0.25 38.0625 0.703125 38.0625 1.15625V7.5H43.5C47.4648 7.5 50.75 10.7852 50.75 14.75V51C50.75 55.0781 47.4648 58.25 43.5 58.25H7.25C3.17188 58.25 0 55.0781 0 51V14.75C0 10.7852 3.17188 7.5 7.25 7.5H12.6875V1.15625C12.6875 0.703125 13.0273 0.25 13.5938 0.25C14.0469 0.25 14.5 0.703125 14.5 1.15625V7.5ZM1.8125 51C1.8125 54.0586 4.19141 56.4375 7.25 56.4375H43.5C46.4453 56.4375 48.9375 54.0586 48.9375 51V22H1.8125V51ZM7.25 9.3125C4.19141 9.3125 1.8125 11.8047 1.8125 14.75V20.1875H48.9375V14.75C48.9375 11.8047 46.4453 9.3125 43.5 9.3125H38.0625V13.8438C38.0625 14.4102 37.6094 14.75 37.1562 14.75C36.5898 14.75 36.25 14.4102 36.25 13.8438V9.3125H14.5V13.8438C14.5 14.4102 14.0469 14.75 13.5938 14.75C13.0273 14.75 12.6875 14.4102 12.6875 13.8438V9.3125H7.25Z" fill="#3C3D3E"/>
</svg>
