<svg width="28" height="23" viewBox="0 0 28 23" fill="none" >
<path d="M0 8.74219C0 8.48438 0.0429688 8.22656 0.171875 7.96875L3.52344 1.86719C3.86719 1.17969 4.55469 0.75 5.32812 0.75H22.1289C22.9023 0.75 23.5898 1.17969 23.9336 1.86719L27.2852 7.96875C27.4141 8.22656 27.5 8.48438 27.5 8.74219C27.5 9.64453 26.7266 10.375 25.8242 10.375H24.75V22.0625C24.75 22.4492 24.4062 22.75 24.0625 22.75C23.6758 22.75 23.375 22.4492 23.375 22.0625V10.375H4.125V15.875H15.125V12.4375C15.125 12.0938 15.4258 11.75 15.8125 11.75C16.1562 11.75 16.5 12.0938 16.5 12.4375V20.6875C16.5 21.8477 15.5547 22.75 14.4375 22.75H4.8125C3.65234 22.75 2.75 21.8477 2.75 20.6875V10.375H1.63281C0.730469 10.375 0 9.64453 0 8.74219ZM25.8242 9C25.9961 9 26.125 8.91406 26.125 8.74219C26.125 8.69922 26.082 8.65625 26.082 8.61328L22.7305 2.51172C22.6016 2.29688 22.3867 2.125 22.1289 2.125H5.32812C5.07031 2.125 4.85547 2.29688 4.72656 2.51172L1.375 8.61328C1.375 8.65625 1.375 8.69922 1.375 8.74219C1.375 8.91406 1.46094 9 1.63281 9H25.8242ZM4.8125 21.375H14.4375C14.7812 21.375 15.125 21.0742 15.125 20.6875V17.25H4.125V20.6875C4.125 21.0742 4.42578 21.375 4.8125 21.375Z" fill="#3C3D3E"/>
</svg>
