<svg
  width="16"
  height="16"
  viewBox="0 0 16 16"
  fill="none"
  
>
  <g clip-path="url(#clip0_2374_21755)">
    <path
      d="M0.218848 8.53125C-0.0749023 8.2375 -0.0749023 7.7625 0.218848 7.47188L4.21885 3.46875C4.5126 3.175 4.9876 3.175 5.27822 3.46875C5.56885 3.7625 5.57197 4.2375 5.27822 4.52812L2.55947 7.24687L10.2501 7.25C10.6657 7.25 11.0001 7.58437 11.0001 8C11.0001 8.41563 10.6657 8.75 10.2501 8.75H2.55947L5.27822 11.4688C5.57197 11.7625 5.57197 12.2375 5.27822 12.5281C4.98447 12.8187 4.50947 12.8219 4.21885 12.5281L0.218848 8.53125ZM10.7501 2.5C10.3345 2.5 10.0001 2.16562 10.0001 1.75C10.0001 1.33437 10.3345 1 10.7501 1H13.2501C14.7688 1 16.0001 2.23125 16.0001 3.75V12.25C16.0001 13.7688 14.7688 15 13.2501 15H10.7501C10.3345 15 10.0001 14.6656 10.0001 14.25C10.0001 13.8344 10.3345 13.5 10.7501 13.5H13.2501C13.9407 13.5 14.5001 12.9406 14.5001 12.25V3.75C14.5001 3.05938 13.9407 2.5 13.2501 2.5H10.7501Z"
      fill="currentColor"
    />
  </g>
  <defs>
    <clipPath id="clip0_2374_21755">
      <rect
        width="16"
        height="16"
        fill="white"
      />
    </clipPath>
  </defs>
</svg>
