<svg
  width="42"
  height="18"
  viewBox="0 0 42 18"
  fill="none"
  
>
  <path
    d="M19.8518 8.73711V13.6181H18.2773V1.54688H22.3711C23.3682 1.54688 24.3129 1.91426 25.0477 2.59654C25.7825 3.22635 26.1499 4.17105 26.1499 5.16823C26.1499 6.16542 25.7825 7.05764 25.0477 7.73992C24.3129 8.42221 23.4207 8.78959 22.3711 8.78959L19.8518 8.73711ZM19.8518 3.01641V7.21509H22.476C23.0533 7.21509 23.6307 7.00516 23.998 6.58529C24.8378 5.79804 24.8378 4.48595 24.0505 3.6987L23.998 3.64621C23.5782 3.22635 23.0533 2.96393 22.476 3.01641H19.8518Z"
    fill="#5F6368"
  />
  <path
    fill-rule="evenodd"
    clip-rule="evenodd"
    d="M13.3732 7.57527C13.3732 7.09147 13.3298 6.62627 13.2491 6.17969H6.82324V8.81889H10.4952C10.337 9.67175 9.85631 10.3943 9.13371 10.8782V12.5901H11.3387C12.6289 11.4023 13.3732 9.65314 13.3732 7.57527Z"
    fill="#4285F4"
  />
  <path
    fill-rule="evenodd"
    clip-rule="evenodd"
    d="M6.82273 14.2374C8.6649 14.2374 10.2093 13.6265 11.3382 12.5845L9.1332 10.8725C8.52224 11.2819 7.74072 11.5238 6.82273 11.5238C5.04569 11.5238 3.54156 10.3236 3.00504 8.71094H0.725586V10.4787C1.84826 12.7085 4.15562 14.2374 6.82273 14.2374Z"
    fill="#34A853"
  />
  <path
    fill-rule="evenodd"
    clip-rule="evenodd"
    d="M3.00516 8.71199C2.8687 8.30261 2.79117 7.86533 2.79117 7.41564C2.79117 6.96596 2.8687 6.52867 3.00516 6.1193V4.35156H0.725703C0.26361 5.27265 0 6.31468 0 7.41564C0 8.5166 0.26361 9.55864 0.725703 10.4797L3.00516 8.71199Z"
    fill="#FBBC05"
  />
  <path
    fill-rule="evenodd"
    clip-rule="evenodd"
    d="M6.82273 3.30738C7.82445 3.30738 8.72383 3.65163 9.43092 4.32771L11.3878 2.37079C10.2062 1.26983 8.6618 0.59375 6.82273 0.59375C4.15562 0.59375 1.84826 2.12269 0.725586 4.35252L3.00504 6.12026C3.54156 4.50759 5.04569 3.30738 6.82273 3.30738Z"
    fill="#EA4335"
  />
  <path
    d="M29.7718 5.10938C30.9264 5.10938 31.8186 5.42428 32.5009 6.05408C33.1832 6.68388 33.4981 7.52361 33.4981 8.57328V13.6117H32.0285V12.4571H31.9761C31.3463 13.4018 30.454 13.8741 29.4044 13.8741C28.5121 13.8741 27.7249 13.6117 27.0951 13.0869C26.5178 12.562 26.1504 11.8273 26.1504 11.04C26.1504 10.2003 26.4653 9.51799 27.0951 8.99315C27.7249 8.46832 28.6171 8.25838 29.6668 8.25838C30.6115 8.25838 31.3463 8.41583 31.9236 8.78322V8.41583C31.9236 7.891 31.7136 7.36616 31.2938 7.05126C30.8739 6.68388 30.3491 6.47394 29.7718 6.47394C28.8795 6.47394 28.1972 6.84133 27.7249 7.5761L26.3603 6.73636C27.2001 5.63421 28.3022 5.10938 29.7718 5.10938ZM27.7774 11.0925C27.7774 11.5124 27.9873 11.8797 28.3022 12.0897C28.6696 12.3521 29.0895 12.5095 29.5093 12.5095C30.1391 12.5095 30.7689 12.2471 31.2413 11.7748C31.7661 11.3024 32.0285 10.7251 32.0285 10.0953C31.5562 9.72792 30.8739 9.51799 29.9817 9.51799C29.3519 9.51799 28.827 9.67544 28.4072 9.99034C27.9873 10.2528 27.7774 10.6201 27.7774 11.0925Z"
    fill="#5F6368"
  />
  <path
    d="M41.9997 5.375L36.8038 17.2887H35.2293L37.1712 13.1426L33.7598 5.42748H35.4392L37.906 11.3581H37.9584L40.3727 5.42748H41.9997V5.375Z"
    fill="#5F6368"
  />
</svg>
