<svg
  height="59"
  width="58"
  viewBox="0 0 58 59"
  fill="none"
>
  <path
    d="M37.1562 16.5625C37.1562 14.0703 39.082 12.0312 41.6875 12.0312C44.1797 12.0312 46.2188 14.0703 46.2188 16.5625C46.2188 19.168 44.1797 21.0938 41.6875 21.0938C39.082 21.0938 37.1562 19.168 37.1562 16.5625ZM41.6875 13.8438C40.1016 13.8438 38.9688 15.0898 38.9688 16.5625C38.9688 18.1484 40.1016 19.2812 41.6875 19.2812C43.1602 19.2812 44.4062 18.1484 44.4062 16.5625C44.4062 15.0898 43.1602 13.8438 41.6875 13.8438ZM38.0625 40.125C35.9102 40.125 33.8711 39.8984 31.9453 39.2188L28.0938 42.957C27.6406 43.5234 26.9609 43.75 26.2812 43.75H21.75V48.2812C21.75 49.8672 20.5039 51 19.0312 51H14.5V55.5312C14.5 57.1172 13.2539 58.25 11.7812 58.25H2.71875C1.13281 58.25 0 57.1172 0 55.5312V46.4688C0 45.7891 0.226562 45.1094 0.792969 44.543L19.0312 26.3047C18.3516 24.3789 18.125 22.3398 18.125 20.1875C18.125 9.19922 26.9609 0.25 38.0625 0.25C49.0508 0.25 58 9.19922 58 20.1875C58 31.2891 49.0508 40.125 38.0625 40.125ZM38.0625 38.3125C48.0312 38.3125 56.1875 30.2695 56.1875 20.1875C56.1875 10.2188 48.0312 2.0625 38.0625 2.0625C27.9805 2.0625 19.9375 10.2188 19.9375 20.1875C19.9375 22.2266 20.1641 24.0391 20.7305 25.7383C20.957 26.418 20.7305 27.0977 20.2773 27.5508L2.03906 45.9023C1.8125 46.0156 1.8125 46.2422 1.8125 46.4688V55.5312C1.8125 56.0977 2.15234 56.4375 2.71875 56.4375H11.7812C12.2344 56.4375 12.6875 56.0977 12.6875 55.5312V51C12.6875 50.0938 13.4805 49.1875 14.5 49.1875H19.0312C19.4844 49.1875 19.9375 48.8477 19.9375 48.2812V43.75C19.9375 42.8438 20.7305 41.9375 21.75 41.9375H26.2812C26.5078 41.9375 26.7344 41.9375 26.8477 41.7109L30.5859 37.9727C31.1523 37.5195 31.832 37.293 32.5117 37.5195C34.2109 38.0859 36.0234 38.3125 38.0625 38.3125Z"
    fill="currentColor"
  />
</svg>
