<svg width="17" height="23" viewBox="0 0 17 23" fill="none" >
<path d="M1.0625 11.0625C0.675781 11.0625 0.375 10.7617 0.417969 10.375V6.9375C0.417969 6.59375 0.71875 6.25 1.0625 6.25C1.40625 6.25 1.75 6.59375 1.75 6.9375V10.375C1.75 10.7617 1.40625 11.0625 1.0625 11.0625ZM16.0156 12.9531L16.4883 14.3281C16.7461 14.9727 16.7031 15.7461 16.3164 16.3047C15.9727 16.9062 15.2852 17.25 14.5977 17.25H9.14062V19.3984C11.1172 19.6133 12.5781 20.6875 12.5781 22.0625C12.5781 22.4492 12.3203 22.75 11.9336 22.75C11.5469 22.75 11.2461 22.4492 11.2461 22.0625C11.2461 21.5469 10.3867 20.9453 9.18359 20.7734V22.0625C9.18359 22.4492 8.92578 22.75 8.53906 22.75C8.19531 22.75 7.89453 22.4492 7.89453 22.0625V20.7734C6.64844 20.9453 5.83203 21.5469 5.83203 22.0625C5.83203 22.4492 5.48828 22.75 5.14453 22.75C4.80078 22.75 4.5 22.4492 4.5 22.0625C4.5 20.6875 5.96094 19.5703 7.9375 19.3984V17.25H2.4375C1.70703 17.25 1.0625 16.9062 0.675781 16.3047C0.289062 15.7461 0.246094 14.9727 0.546875 14.3281L1.19141 12.9531C1.53516 12.2227 2.26562 11.75 3.03906 11.75H3.125V4.1875C3.125 2.29688 4.62891 0.75 6.5625 0.75H10.6445C12.5781 0.75 14.082 2.29688 14.082 4.1875V11.75H14.168C14.9414 11.75 15.6719 12.2227 16.0156 12.9531ZM6.5625 2.125C5.40234 2.125 4.5 3.07031 4.5 4.1875V11.75H12.707V4.1875C12.707 3.07031 11.8047 2.125 10.6445 2.125H6.5625ZM15.3711 15.5742C15.5 15.3594 15.5 15.1445 15.4141 14.9297L14.7695 13.5547C14.6836 13.2969 14.4258 13.125 14.168 13.125H3.03906C2.78125 13.125 2.52344 13.2969 2.4375 13.5547L1.79297 14.9297C1.70703 15.1445 1.70703 15.4023 1.83594 15.5742C1.96484 15.7891 2.17969 15.875 2.4375 15.875H14.7695C15.0273 15.875 15.2422 15.7891 15.3711 15.5742ZM16.1445 6.25C16.5312 6.25 16.832 6.59375 16.7891 6.9375V10.375C16.7891 10.7617 16.4883 11.0625 16.1445 11.0625C15.7578 11.0625 15.457 10.7617 15.457 10.375L15.5 6.9375C15.5 6.59375 15.7578 6.25 16.1445 6.25Z" fill="#3C3D3E"/>
</svg>
