<svg width="18" height="18" viewBox="0 0 18 18" fill="none" >
  <g clip-path="url(#clip0_994_4152)">
    <path
      d="M11.8827 6.24902C11.5974 6.24902 11.3652 6.48115 11.3652 6.76647V7.13733C11.3652 7.42264 11.5974 7.65477 11.8827 7.65477C12.168 7.65477 12.4001 7.42264 12.4001 7.13733V6.76647C12.4001 6.48115 12.168 6.24902 11.8827 6.24902Z"
      fill="#3C3D3E" />
    <path
      d="M9.99743 5.58195L9.73374 5.84564C9.63602 5.94336 9.58203 6.07328 9.58203 6.2117C9.58203 6.35011 9.63586 6.47987 9.73374 6.57775C9.83146 6.67547 9.96138 6.72914 10.0995 6.72914C10.2376 6.72914 10.3676 6.67531 10.4654 6.57759L10.7292 6.31374C10.8269 6.21602 10.8808 6.0861 10.8808 5.94785C10.8808 5.8096 10.8269 5.67967 10.7291 5.58179C10.5272 5.38026 10.1991 5.38026 9.99743 5.58195Z"
      fill="#3C3D3E" />
    <path
      d="M13.7679 5.58181C13.5661 5.38028 13.238 5.38028 13.0365 5.58181C12.9388 5.67953 12.8848 5.80962 12.8848 5.94787C12.8848 6.08612 12.9386 6.21604 13.0363 6.31376L13.3003 6.57777C13.398 6.67549 13.528 6.72916 13.6661 6.72916C13.8041 6.72916 13.9342 6.67533 14.032 6.57761C14.1297 6.47989 14.1837 6.34997 14.1837 6.21156C14.1837 6.07314 14.1298 5.94338 14.0321 5.84566L13.7681 5.58165L13.7679 5.58181Z"
      fill="#3C3D3E" />
    <path
      d="M16.1529 0H1.8471C0.828551 0 0 0.828551 0 1.8471V16.1529C0 17.1714 0.828551 18 1.8471 18H16.1529C17.1714 18 18 17.1714 18 16.1529V1.8471C18 0.828551 17.1714 0 16.1529 0ZM1.8471 1.0413H6.13195C6.12891 1.06404 6.12731 1.08695 6.12731 1.11002V9.14242H1.0413V1.8471C1.0413 1.40271 1.40271 1.0413 1.8471 1.0413ZM16.1529 16.9587H13.5059V14.6951C13.5059 14.4139 13.2727 14.185 12.9858 14.185H10.8558V12.1788C10.8558 11.8977 10.6225 11.6688 10.3356 11.6688H8.20461V9.66258C8.20461 9.38143 7.97136 9.15251 7.68444 9.15251H7.16219V1.11002C7.16219 1.08695 7.16059 1.06388 7.15755 1.0413H11.3519V3.69372C10.9898 3.88451 10.7616 4.25778 10.7616 4.67318C10.7616 4.68743 10.7622 4.70217 10.7635 4.71707C10.7622 4.73197 10.7616 4.74655 10.7616 4.76096C10.7616 5.37181 11.2585 5.8689 11.8695 5.8689C12.4805 5.8689 12.9773 5.37197 12.9773 4.76096C12.9773 4.74671 12.9766 4.73197 12.9753 4.71707C12.9766 4.70217 12.9773 4.68759 12.9773 4.67318C12.9773 4.25778 12.749 3.88467 12.3869 3.69388V1.0413H16.1529C16.5973 1.0413 16.9587 1.40271 16.9587 1.8471V16.1529C16.9587 16.5973 16.5973 16.9587 16.1529 16.9587ZM11.9424 4.7608C11.9424 4.80101 11.9097 4.8337 11.8695 4.8337C11.8293 4.8337 11.7966 4.80101 11.7966 4.7608C11.7966 4.74655 11.796 4.73181 11.7947 4.71691C11.796 4.70201 11.7966 4.68743 11.7966 4.67302C11.7966 4.63281 11.8293 4.60012 11.8695 4.60012C11.9097 4.60012 11.9424 4.63281 11.9424 4.67302C11.9424 4.68727 11.943 4.70201 11.9443 4.71691C11.943 4.73181 11.9424 4.74639 11.9424 4.7608ZM1.0413 11.6688V10.1727H7.16444V11.6688H1.0413ZM1.0413 14.185V12.6888H9.81542V14.185H1.0413ZM12.4656 15.2052V16.9587H1.8471C1.40271 16.9587 1.0413 16.5973 1.0413 16.1529V15.2052H12.4656Z"
      fill="#3C3D3E" />
  </g>
  <defs>
    <clipPath id="clip0_994_4152">
      <rect width="18" height="18" fill="white" />
    </clipPath>
  </defs>
</svg>