<svg width="22" height="20" viewBox="0 0 22 20" fill="none" >
<path d="M19.9375 0.125C21.0547 0.125 22 1.07031 22 2.1875V4.9375C22 5.32422 21.6562 5.625 21.3125 5.625H20.625V16.625C20.625 18.1719 19.3789 19.375 17.875 19.375H4.125C2.57812 19.375 1.375 18.1719 1.375 16.625V5.625H0.6875C0.300781 5.625 0 5.32422 0 4.9375V2.1875C0 1.07031 0.902344 0.125 2.0625 0.125H19.9375ZM19.25 16.625V5.625H2.75V16.625C2.75 17.3984 3.35156 18 4.125 18H17.875C18.6055 18 19.25 17.3984 19.25 16.625ZM20.625 4.25V2.1875C20.625 1.84375 20.2812 1.5 19.9375 1.5H2.0625C1.67578 1.5 1.375 1.84375 1.375 2.1875V4.25H20.625ZM7.5625 9.75C7.17578 9.75 6.875 9.44922 6.875 9.0625C6.875 8.71875 7.17578 8.375 7.5625 8.375H14.4375C14.7812 8.375 15.125 8.71875 15.125 9.0625C15.125 9.44922 14.7812 9.75 14.4375 9.75H7.5625Z" fill="#3C3D3E"/>
</svg>
