<svg width="19" height="18" viewBox="0 0 19 18" fill="none" >
<g clip-path="url(#clip0_2106_1739)">
<path d="M10.0162 16.7409H3.68414C2.92055 16.7409 2.30085 16.1578 2.30085 15.442V8.07683H0.700478C0.614654 8.07683 0.531354 8.04958 0.464461 7.9998C0.169125 7.77938 0 7.46652 0 7.14181C0 6.8171 0.169125 6.50425 0.464461 6.28382L8.44991 0.318191C9.01661 -0.106064 9.9064 -0.106064 10.4744 0.318191C10.6384 0.440253 10.6649 0.664231 10.5349 0.81829C10.4049 0.972348 10.1664 0.997235 10.0023 0.875173C9.70951 0.655935 9.21476 0.655935 8.92195 0.875173L0.936495 6.83962C0.821642 6.92613 0.757274 7.03279 0.757274 7.14063C0.757274 7.21884 0.790089 7.29587 0.850671 7.36579H2.67823C2.88774 7.36579 3.05686 7.52459 3.05686 7.72131V15.442C3.05686 15.7667 3.33832 16.0298 3.68288 16.0298H10.0149C10.2245 16.0298 10.3936 16.1886 10.3936 16.3853C10.3936 16.5821 10.2245 16.7409 10.0149 16.7409H10.0162Z" fill="#3C3D3E"/>
<path d="M17.8432 18.0008H12.6508C12.329 18.0008 12.0198 17.8515 11.8014 17.592C11.602 17.3538 11.4922 17.0421 11.4922 16.7138V12.5033V1.38855C11.4922 0.678691 12.0109 0.101562 12.6496 0.101562H17.8419C18.1638 0.101562 18.473 0.250881 18.6901 0.510411C18.8895 0.74861 18.9993 1.06147 18.9993 1.38855V16.7138C18.9993 17.4237 18.4806 18.0008 17.8432 18.0008ZM12.6521 0.811418C12.4628 0.811418 12.252 1.04843 12.252 1.38736V12.5021V16.7127C12.252 16.8798 12.3063 17.0397 12.3997 17.1523C12.4426 17.2033 12.5322 17.2898 12.6521 17.2898H17.8445C18.0338 17.2898 18.2433 17.0528 18.2445 16.7138V1.38855C18.2445 1.22145 18.1915 1.06147 18.0969 0.948886C18.054 0.897928 17.9644 0.811418 17.8445 0.811418H12.6533H12.6521Z" fill="#3C3D3E"/>
<path d="M14.0488 15.9493H12.0622C11.8527 15.9493 11.6836 15.7905 11.6836 15.5938C11.6836 15.3971 11.8527 15.2383 12.0622 15.2383H14.0488C14.2583 15.2383 14.4274 15.3971 14.4274 15.5938C14.4274 15.7905 14.2583 15.9493 14.0488 15.9493Z" fill="#3C3D3E"/>
<path d="M14.0488 6.14073H12.0622C11.8527 6.14073 11.6836 5.98193 11.6836 5.78521C11.6836 5.58849 11.8527 5.42969 12.0622 5.42969H14.0488C14.2583 5.42969 14.4274 5.58849 14.4274 5.78521C14.4274 5.98193 14.2583 6.14073 14.0488 6.14073Z" fill="#3C3D3E"/>
<path d="M14.0488 12.6798H12.0622C11.8527 12.6798 11.6836 12.521 11.6836 12.3243C11.6836 12.1275 11.8527 11.9688 12.0622 11.9688H14.0488C14.2583 11.9688 14.4274 12.1275 14.4274 12.3243C14.4274 12.521 14.2583 12.6798 14.0488 12.6798Z" fill="#3C3D3E"/>
<path d="M12.0622 9.41026C11.8527 9.41026 11.6836 9.25146 11.6836 9.05474C11.6836 8.85802 11.8527 8.69922 12.0622 8.69922H14.0488C14.2583 8.69922 14.4274 8.85802 14.4274 9.05474C14.4274 9.25146 14.2583 9.41026 14.0488 9.41026H12.0622Z" fill="#3C3D3E"/>
<path d="M9.4896 12.7514H7.42477C6.76089 12.7514 6.2207 12.2442 6.2207 11.6209V9.2294C6.2207 8.60605 6.76089 8.09766 7.42477 8.09766H9.4896C9.69911 8.09766 9.86824 8.25646 9.86824 8.45318C9.86824 8.6499 9.69911 8.8087 9.4896 8.8087H7.42477C7.17865 8.8087 6.97798 8.99712 6.97798 9.2294V11.6209C6.97798 11.852 7.17865 12.0404 7.42477 12.0404H9.4896C9.69911 12.0404 9.86824 12.1992 9.86824 12.3959C9.86824 12.5926 9.69911 12.7514 9.4896 12.7514Z" fill="#3C3D3E"/>
</g>
<defs>
<clipPath id="clip0_2106_1739">
<rect width="19" height="18" fill="white"/>
</clipPath>
</defs>
</svg>

