<svg width="28" height="23" viewBox="0 0 28 23" fill="none" >
  <path
    d="M3.4375 15.875C3.05078 15.875 2.75 15.5742 2.75 15.1875C2.75 14.8438 3.05078 14.5 3.4375 14.5H17.1875C17.5312 14.5 17.875 14.8438 17.875 15.1875C17.875 15.5742 17.5312 15.875 17.1875 15.875H3.4375ZM24.75 18.625C24.75 19.0117 24.4062 19.3125 24.0625 19.3125H0.6875C0.300781 19.3125 0 19.0117 0 18.625C0 18.2812 0.300781 17.9375 0.6875 17.9375H24.0625C24.4062 17.9375 24.75 18.2812 24.75 18.625ZM8.9375 21.375C9.28125 21.375 9.625 21.7188 9.625 22.0625C9.625 22.4492 9.28125 22.75 8.9375 22.75H3.4375C3.05078 22.75 2.75 22.4492 2.75 22.0625C2.75 21.7188 3.05078 21.375 3.4375 21.375H8.9375ZM20.625 15.1875C20.625 14.8438 20.9258 14.5 21.3125 14.5H26.8125C27.1562 14.5 27.5 14.8438 27.5 15.1875C27.5 15.5742 27.1562 15.875 26.8125 15.875H21.3125C20.9258 15.875 20.625 15.5742 20.625 15.1875ZM26.8125 21.375C27.1562 21.375 27.5 21.7188 27.5 22.0625C27.5 22.4492 27.1562 22.75 26.8125 22.75H13.0625C12.6758 22.75 12.375 22.4492 12.375 22.0625C12.375 21.7188 12.6758 21.375 13.0625 21.375H26.8125ZM13.75 6.25C16.457 6.25 18.7773 8.3125 19.1641 10.9766C19.207 11.3633 18.9492 11.707 18.6055 11.75C18.2188 11.793 17.875 11.5781 17.832 11.1914C17.5312 9.17188 15.7695 7.625 13.75 7.625C11.6875 7.625 9.92578 9.17188 9.625 11.1914C9.58203 11.5352 9.32422 11.75 8.98047 11.75C8.9375 11.75 8.89453 11.75 8.85156 11.75C8.50781 11.707 8.25 11.3633 8.29297 10.9766C8.67969 8.3125 11 6.25 13.75 6.25ZM4.85547 11.4062L2.79297 7.625C2.70703 7.45312 2.70703 7.19531 2.79297 7.02344C2.87891 6.80859 3.05078 6.67969 3.26562 6.63672L7.69141 5.69141L8.9375 1.26562C9.02344 1.05078 9.15234 0.878906 9.36719 0.792969C9.58203 0.75 9.79688 0.75 9.96875 0.878906L13.75 3.37109L17.4883 0.878906C17.6602 0.75 17.875 0.75 18.0898 0.792969C18.3047 0.878906 18.4336 1.05078 18.5195 1.26562L19.7227 5.69141L24.1484 6.63672C24.3633 6.67969 24.5352 6.80859 24.6211 7.02344C24.707 7.19531 24.707 7.45312 24.6211 7.625L22.5586 11.4062C22.4297 11.6211 22.1719 11.75 21.957 11.75C21.8711 11.75 21.7422 11.75 21.6562 11.707C21.3125 11.4922 21.1836 11.1055 21.3555 10.7617L22.9883 7.79688L19.0781 6.9375C18.8203 6.89453 18.6484 6.72266 18.5625 6.46484L17.4453 2.55469L14.0938 4.78906C13.8789 4.91797 13.5781 4.91797 13.3633 4.78906L10.0117 2.55469L8.89453 6.46484C8.80859 6.72266 8.63672 6.89453 8.37891 6.9375L4.46875 7.79688L6.05859 10.7617C6.23047 11.1055 6.10156 11.4922 5.75781 11.707C5.45703 11.8789 5.02734 11.75 4.85547 11.4062Z"
    fill="#3C3D3E" />
</svg>