<svg width="28" height="22" viewBox="0 0 28 22" fill="none" >
<g clip-path="url(#clip0_1668_36856)">
<path d="M6.3 0C2.82187 0 0 2.77148 0 6.1875V7.21875C0 7.44219 0.11375 7.65703 0.301875 7.78594C0.49 7.91484 0.730625 7.94492 0.945 7.86328L3.21563 7.02539C3.56125 7.45937 4.01188 7.79453 4.52375 8.00508L4.26562 19.25C4.23063 20.7582 5.46438 22 7 22C8.53562 22 9.76937 20.7582 9.73438 19.25L9.47625 8.12539C10.1894 7.92344 10.8194 7.48516 11.2437 6.875H13.9956V7.5625C13.9956 7.94063 14.3106 8.25 14.6956 8.25C15.0806 8.25 15.3956 7.94063 15.3956 7.5625V0.6875C15.3956 0.309375 15.0806 0 14.6956 0C14.3106 0 13.9956 0.309375 13.9956 0.6875V1.375H11.2437C10.6487 0.519922 9.66 0 8.58375 0H6.3ZM14 2.75V5.5H10.85C10.5831 5.5 10.3425 5.64609 10.2244 5.87813C9.91375 6.48828 9.27938 6.875 8.58375 6.875H5.76625C5.07062 6.875 4.43625 6.48828 4.12563 5.87813C3.96375 5.56445 3.5875 5.41836 3.255 5.54297L1.4 6.22617V6.1875C1.4 3.52773 3.59187 1.375 6.3 1.375H8.58375C9.27938 1.375 9.91375 1.76172 10.2244 2.37188C10.3425 2.60391 10.5875 2.75 10.85 2.75H14ZM8.08062 8.25L8.33437 19.2801C8.35188 20.0148 7.74812 20.625 6.99562 20.625C6.24312 20.625 5.64375 20.0191 5.65688 19.2801L5.91937 8.25H8.08062ZM23.1 9.46602L23.6031 9.87852L26.0969 11.9195C26.25 12.0441 26.3725 12.2031 26.46 12.375H16.94C17.0275 12.2031 17.15 12.0441 17.3031 11.9195L19.7969 9.87852L20.3 9.46602V2.75C20.3 1.98945 20.9256 1.375 21.7 1.375C22.4744 1.375 23.1 1.98945 23.1 2.75V9.46602ZM16.8 13.75H26.6V19.9375C26.6 20.3156 26.285 20.625 25.9 20.625H21V17.875C21 17.4969 20.685 17.1875 20.3 17.1875C19.915 17.1875 19.6 17.4969 19.6 17.875V20.625H17.5C17.115 20.625 16.8 20.3156 16.8 19.9375V13.75ZM24.5 8.82148V2.75C24.5 1.2332 23.2444 0 21.7 0C20.1556 0 18.9 1.2332 18.9 2.75V8.82148L16.4062 10.8625C15.7675 11.3867 15.4 12.1602 15.4 12.9766V19.9375C15.4 21.0762 16.3406 22 17.5 22H25.9C27.0594 22 28 21.0762 28 19.9375V12.9766C28 12.1602 27.6325 11.3867 26.9937 10.8625L24.5 8.82148ZM22.4 3.4375C22.4 3.05766 22.0868 2.75 21.7 2.75C21.3132 2.75 21 3.05766 21 3.4375C21 3.81734 21.3132 4.125 21.7 4.125C22.0868 4.125 22.4 3.81734 22.4 3.4375Z" fill="#3C3D3E"/>
</g>
<defs>
<clipPath id="clip0_1668_36856">
<rect width="28" height="22" fill="white"/>
</clipPath>
</defs>
</svg>
