<svg width="41" height="36" viewBox="0 0 41 36" fill="none" >
<path d="M11.75 20.5C11.75 15.7344 15.6562 11.75 20.5 11.75C25.2656 11.75 29.25 15.7344 29.25 20.5C29.25 25.3438 25.2656 29.25 20.5 29.25C15.6562 29.25 11.75 25.3438 11.75 20.5ZM20.5 14.25C16.9844 14.25 14.25 17.0625 14.25 20.5C14.25 24.0156 16.9844 26.75 20.5 26.75C23.9375 26.75 26.75 24.0156 26.75 20.5C26.75 17.0625 23.9375 14.25 20.5 14.25ZM28.7812 3.07812L29.6406 5.5H35.5C38.2344 5.5 40.5 7.76562 40.5 10.5V30.5C40.5 33.3125 38.2344 35.5 35.5 35.5H5.5C2.6875 35.5 0.5 33.3125 0.5 30.5V10.5C0.5 7.76562 2.6875 5.5 5.5 5.5H11.2812L12.1406 3.07812C12.6094 1.59375 14.0156 0.5 15.6562 0.5H25.2656C26.9062 0.5 28.3125 1.59375 28.7812 3.07812ZM5.5 8C4.09375 8 3 9.17188 3 10.5V30.5C3 31.9062 4.09375 33 5.5 33H35.5C36.8281 33 38 31.9062 38 30.5V10.5C38 9.17188 36.8281 8 35.5 8H27.8438L26.4375 3.85938C26.2812 3.39062 25.8125 3 25.2656 3H15.6562C15.1094 3 14.6406 3.39062 14.4844 3.85938L13.0781 8H5.5Z" fill="#3C3D3E"/>
</svg>
