<svg width="28" height="23" viewBox="0 0 28 23" fill="none" >
<path d="M26.8125 0.75C27.1562 0.75 27.5 1.09375 27.5 1.4375V22.0625C27.5 22.4492 27.1562 22.75 26.8125 22.75C26.4258 22.75 26.125 22.4492 26.125 22.0625V20H1.375V22.0625C1.375 22.4492 1.03125 22.75 0.6875 22.75C0.300781 22.75 0 22.4492 0 22.0625V1.4375C0 1.09375 0.300781 0.75 0.6875 0.75C1.03125 0.75 1.375 1.09375 1.375 1.4375V7.625H26.125V1.4375C26.125 1.09375 26.4258 0.75 26.8125 0.75ZM26.125 18.625V9H1.375V18.625H26.125ZM16.5 6.25C15.7266 6.25 15.125 5.64844 15.125 4.875V2.125C15.125 1.39453 15.7266 0.75 16.5 0.75H19.25C19.9805 0.75 20.625 1.39453 20.625 2.125V4.875C20.625 5.64844 19.9805 6.25 19.25 6.25H16.5ZM16.5 2.125V4.875H19.25V2.125H16.5ZM12.375 17.25C11.6016 17.25 11 16.6484 11 15.875V13.125C11 12.3945 11.6016 11.75 12.375 11.75H15.125C15.8555 11.75 16.5 12.3945 16.5 13.125V15.875C16.5 16.6484 15.8555 17.25 15.125 17.25H12.375ZM12.375 13.125V15.875H15.125V13.125H12.375ZM5.5 17.25C4.72656 17.25 4.125 16.6484 4.125 15.875V13.125C4.125 12.3945 4.72656 11.75 5.5 11.75H8.25C8.98047 11.75 9.625 12.3945 9.625 13.125V15.875C9.625 16.6484 8.98047 17.25 8.25 17.25H5.5ZM5.5 13.125V15.875H8.25V13.125H5.5Z" fill="#3C3D3E"/>
</svg>
