<svg  viewBox="0 0 15 15" fill="none" >
<path d="M10.8438 4.6875C11.1992 4.6875 11.5 4.98828 11.5 5.34375C11.5 5.72656 11.1992 6 10.8438 6H5.15625C4.77344 6 4.5 5.72656 4.5 5.34375C4.5 4.98828 4.77344 4.6875 5.15625 4.6875H10.8438ZM8.21875 7.3125C8.57422 7.3125 8.875 7.61328 8.875 7.96875C8.875 8.35156 8.57422 8.625 8.21875 8.625H5.15625C4.77344 8.625 4.5 8.35156 4.5 7.96875C4.5 7.61328 4.77344 7.3125 5.15625 7.3125H8.21875ZM13.2227 0.75C14.207 0.75 14.9727 1.54297 14.9727 2.5V10.3203C14.9727 11.25 14.1797 12.043 13.2227 12.043H9.28516L5.86719 14.6133C5.64844 14.75 5.34766 14.6133 5.34766 14.3398V12.0703H2.72266C1.73828 12.0703 0.972656 11.3047 0.972656 10.3477V2.5C0.972656 1.54297 1.73828 0.75 2.72266 0.75H13.2227ZM13.6875 10.375V2.5C13.6875 2.28125 13.4688 2.0625 13.25 2.0625H2.75C2.50391 2.0625 2.3125 2.28125 2.3125 2.5V10.375C2.3125 10.6211 2.50391 10.8125 2.75 10.8125H6.6875V12.4531L8.875 10.8125H13.25C13.4688 10.8125 13.6875 10.6211 13.6875 10.375Z" fill="currentColor"/>
</svg>
