<svg width="27" height="21" viewBox="0 0 27 21" fill="none" >
  <path
    d="M25.6875 8.11719C26 8.3125 26.0781 8.70312 25.8828 8.97656C25.6875 9.25 25.2969 9.36719 25.0234 9.17188L13.5 1.86719L1.9375 9.17188C1.66406 9.36719 1.27344 9.25 1.07812 8.97656C0.882812 8.70312 0.960938 8.3125 1.27344 8.11719L13.1484 0.617188C13.3438 0.5 13.6172 0.5 13.8125 0.617188L25.6875 8.11719ZM8.1875 15.1875C8.1875 14.6797 8.57812 14.25 9.125 14.25C9.63281 14.25 10.0625 14.6797 10.0625 15.1875C10.0625 15.7344 9.63281 16.125 9.125 16.125C8.57812 16.125 8.1875 15.7344 8.1875 15.1875ZM18.8125 15.1875C18.8125 15.7344 18.3828 16.125 17.875 16.125C17.3281 16.125 16.9375 15.7344 16.9375 15.1875C16.9375 14.6797 17.3281 14.25 17.875 14.25C18.3828 14.25 18.8125 14.6797 18.8125 15.1875ZM10.8438 7.375H16.1172C17.25 7.375 18.2266 8.11719 18.5391 9.21094L19.3594 12.1797C20.3359 12.6875 21 13.7031 21 14.875V19.875C21 20.2266 20.6875 20.5 20.375 20.5C20.0234 20.5 19.75 20.2266 19.75 19.875V18.625H7.25V19.875C7.25 20.2266 6.9375 20.5 6.625 20.5C6.27344 20.5 6 20.2266 6 19.875V14.875C6 13.7031 6.625 12.6875 7.60156 12.1797L8.42188 9.21094C8.73438 8.11719 9.71094 7.375 10.8438 7.375ZM10.8438 8.625C10.2578 8.625 9.78906 9.01562 9.63281 9.5625L9.00781 11.75C9.04688 11.75 9.08594 11.75 9.125 11.75H17.875C17.875 11.75 17.9141 11.75 17.9531 11.75L17.3281 9.5625C17.1719 9.01562 16.7031 8.625 16.1172 8.625H10.8438ZM19.75 14.875C19.75 13.8594 18.8906 13 17.875 13H9.125C8.07031 13 7.25 13.8594 7.25 14.875V17.375H19.75V14.875Z"
    fill="#3C3D3E" />
</svg>