<svg
                width="17"
                height="16"
                viewBox="0 0 17 16"
                fill="none"
                
              >
                <path
                  d="M6.24088 3.452L6.2431 3.45289C6.28932 3.256 6.45732 3.11111 6.66754 3.11111H12.6551C12.6627 3.11111 12.6702 3.108 12.6778 3.10844C12.5502 0.984445 10.7684 0 9.19643 0H3.20888C2.99821 0 2.83021 0.148889 2.78443 0.345333L2.78221 0.344444L0.164876 12.3613L0.170654 12.3618C0.164431 12.3902 0.15332 12.4173 0.15332 12.448C0.15332 12.6938 0.351987 12.8884 0.597765 12.8884H4.18488L6.24088 3.452Z"
                  fill="#1565C0"
                />
                <path
                  d="M12.6776 3.10938C12.7012 3.49871 12.6754 3.92226 12.5759 4.39026C12.0065 7.05471 9.9483 8.44137 7.40475 8.44137C7.40475 8.44137 5.86253 8.44137 5.48786 8.44137C5.2563 8.44137 5.14697 8.57737 5.09675 8.68138L4.32342 12.2587L4.18786 12.8938H4.18519L3.62386 15.4698L3.62964 15.4703C3.62342 15.4987 3.6123 15.5258 3.6123 15.5565C3.6123 15.8023 3.81097 16.0009 4.05675 16.0009H7.31586L7.32164 15.9965C7.53142 15.9934 7.69808 15.8436 7.74164 15.6463L7.74964 15.6396L8.55497 11.8992C8.55497 11.8992 8.61097 11.5423 8.98608 11.5423C9.36119 11.5423 10.843 11.5423 10.843 11.5423C13.3865 11.5423 15.4656 10.1618 16.0354 7.49693C16.6763 4.49249 14.5332 3.12049 12.6776 3.10938Z"
                  fill="#039BE5"
                />
                <path
                  d="M6.66681 3.11176C6.45615 3.11176 6.28815 3.25665 6.24237 3.45353L6.24015 3.45265L5.0957 8.68153C5.14593 8.57753 5.25526 8.44153 5.48681 8.44153C5.86192 8.44153 7.36904 8.44153 7.36904 8.44153C9.91259 8.44153 12.0055 7.05487 12.5748 4.39042C12.6748 3.92242 12.7001 3.49887 12.6766 3.10953C12.6695 3.10865 12.6615 3.11176 12.6544 3.11176H6.66681Z"
                  fill="#283593"
                />
              </svg>