<svg width="11" height="13" viewBox="0 0 11 13" fill="none" >
    <path
        d="M3.8125 2H7.1875V1.0625C7.1875 0.757812 7.42188 0.5 7.75 0.5C8.05469 0.5 8.3125 0.757812 8.3125 1.0625V2H9.25C10.0703 2 10.75 2.67969 10.75 3.5V11C10.75 11.8438 10.0703 12.5 9.25 12.5H1.75C0.90625 12.5 0.25 11.8438 0.25 11V3.5C0.25 2.67969 0.90625 2 1.75 2H2.6875V1.0625C2.6875 0.757812 2.92188 0.5 3.25 0.5C3.55469 0.5 3.8125 0.757812 3.8125 1.0625V2ZM1.375 11C1.375 11.2109 1.53906 11.375 1.75 11.375H9.25C9.4375 11.375 9.625 11.2109 9.625 11V5H1.375V11Z"
        fill="#3C3D3E" />
</svg>