<svg width="55" height="56" viewBox="0 0 55 56" fill="none" >
<g clip-path="url(#clip0_1042_7061)">
<path d="M22.6037 9.91157H25.1154C25.5425 9.91157 25.8876 9.5653 25.8876 9.13938C25.8876 8.71346 25.5413 8.36719 25.1154 8.36719H22.6037C22.1767 8.36719 21.8315 8.71346 21.8315 9.13938C21.8315 9.5653 22.1778 9.91157 22.6037 9.91157Z" fill="#3C3D3E"/>
<path d="M29.5583 9.91157H32.07C32.497 9.91157 32.8422 9.5653 32.8422 9.13938C32.8422 8.71346 32.4959 8.36719 32.07 8.36719H29.5583C29.1313 8.36719 28.7861 8.71346 28.7861 9.13938C28.7861 9.5653 29.1324 9.91157 29.5583 9.91157Z" fill="#3C3D3E"/>
<path d="M29.5583 31.3594H25.1145C24.6874 31.3594 24.3423 31.7057 24.3423 32.1316C24.3423 32.5575 24.6886 32.9038 25.1145 32.9038H29.5583C29.9854 32.9038 30.3305 32.5575 30.3305 32.1316C30.3305 31.7057 29.9843 31.3594 29.5583 31.3594Z" fill="#3C3D3E"/>
<path d="M53.9 0.447266H51.5823C51.1552 0.447266 50.8089 0.793541 50.8089 1.21946V2.37833H49.4562V1.21946C49.4562 0.792386 49.1099 0.447266 48.684 0.447266H46.1723C45.7452 0.447266 45.4001 0.793541 45.4001 1.21946V2.37833H44.0473V1.21946C44.0473 0.792386 43.7011 0.447266 43.2751 0.447266H40.7635C40.3364 0.447266 39.9913 0.793541 39.9913 1.21946V2.37833H38.6385V1.21946C38.6385 0.792386 38.2922 0.447266 37.8663 0.447266H35.5486C35.1215 0.447266 34.7764 0.793541 34.7764 1.21946V5.66332H32.1493L31.9877 5.53405C30.6754 4.49522 29.0248 3.92271 27.3384 3.92271C25.6521 3.92271 24.0015 4.49522 22.6787 5.54213L22.5263 5.66332H19.8993V1.21946C19.8993 0.792386 19.553 0.447266 19.1271 0.447266H16.8093C16.3823 0.447266 16.0372 0.793541 16.0372 1.21946V2.37833H14.6844V1.21946C14.6844 0.792386 14.3381 0.447266 13.9122 0.447266H11.4005C10.9735 0.447266 10.6283 0.793541 10.6283 1.21946V2.37833H9.27555V1.21946C9.27555 0.792386 8.92928 0.447266 8.50336 0.447266H5.99171C5.56464 0.447266 5.21952 0.793541 5.21952 1.21946V2.37833H3.86674V1.21946C3.86674 0.792386 3.52046 0.447266 3.09454 0.447266H0.772193C0.346275 0.447266 0 0.793541 0 1.21946V8.56049C0 8.63782 0.0115425 8.714 0.0346275 8.78788L1.54554 13.7004V54.734C1.54554 55.161 1.89182 55.5061 2.31773 55.5061H52.3545C52.7815 55.5061 53.1267 55.1599 53.1267 54.734V13.7004L54.6376 8.78788C54.6607 8.714 54.6722 8.63782 54.6722 8.56049V1.21946C54.6722 0.792386 54.3259 0.447266 53.9 0.447266ZM36.3196 1.99281H37.0918V3.15167C37.0918 3.57875 37.4381 3.92387 37.864 3.92387H40.7623C41.1894 3.92387 41.5345 3.57759 41.5345 3.15167V1.99281H42.5006V3.15167C42.5006 3.57875 42.8469 3.92387 43.2728 3.92387H46.1712C46.5982 3.92387 46.9434 3.57759 46.9434 3.15167V1.99281H47.9095V3.15167C47.9095 3.57875 48.2557 3.92387 48.6817 3.92387H51.58C52.007 3.92387 52.3522 3.57759 52.3522 3.15167V1.99281H53.1244V7.46626H36.3173V1.99281H36.3196ZM27.3742 41.2408C27.3488 41.2408 27.3234 41.2408 27.298 41.2408C25.4177 41.3331 23.9449 42.881 23.9449 44.7647V53.9606H22.0231V40.2447H25.1142C25.5412 40.2447 25.8864 39.8984 25.8864 39.4725C25.8864 39.0465 25.5401 38.7003 25.1142 38.7003H22.0231V36.3825H32.6491V38.7003H29.558C29.131 38.7003 28.7858 39.0465 28.7858 39.4725C28.7858 39.8984 29.1321 40.2447 29.558 40.2447H32.6491V53.9606H30.7261V44.7647C30.7261 42.881 29.2533 41.3331 27.3742 41.2408ZM25.1142 15.7088C25.5412 15.7088 25.8864 15.3625 25.8864 14.9366V12.6188H28.7847V14.9366C28.7847 15.3636 29.131 15.7088 29.5569 15.7088C29.9828 15.7088 30.3291 15.3625 30.3291 14.9366V12.6188H35.9849L36.3173 13.7015V17.0627H34.1924V15.1305C34.1924 14.7034 33.8461 14.3583 33.4202 14.3583C32.9942 14.3583 32.648 14.7046 32.648 15.1305V17.0627H22.0219V15.1305C22.0219 14.7034 21.6757 14.3583 21.2497 14.3583C20.8238 14.3583 20.4776 14.7046 20.4776 15.1305V17.0627H18.3526V13.7015L18.685 12.6188H24.3408V14.9366C24.3408 15.3636 24.6871 15.7088 25.113 15.7088H25.1142ZM49.2634 12.8116V9.0118H50.0356V12.8116H49.2634ZM48.1045 12.8116H47.3323V9.0118H48.1045V12.8116ZM46.1723 12.8116H45.4001V9.0118H46.1723V12.8116ZM44.2401 12.8116H43.4679V9.0118H44.2401V12.8116ZM42.309 12.8116H41.5368V9.0118H42.309V12.8116ZM40.3768 12.8116H39.6046V9.0118H40.3768V12.8116ZM38.4446 12.8116H37.6632L36.4939 9.0118H38.4446V12.8116ZM36.3196 28.0731H34.1947V18.6071H36.3196V28.0731ZM32.6491 28.0731H30.7261V22.5477C30.7261 20.664 29.2533 19.1161 27.3742 19.0238C27.3488 19.0226 27.3234 19.0226 27.298 19.0238C25.4177 19.1161 23.9449 20.664 23.9449 22.5477V28.0731H22.0231V18.6071H32.6491V28.0731ZM29.1806 28.0731H25.4905V22.5477C25.4905 21.5019 26.2973 20.6409 27.335 20.5693C28.3726 20.6397 29.1794 21.5019 29.1794 22.5477V28.0731H29.1806ZM20.4787 28.0731H18.3537V18.6071H20.4787V28.0731ZM18.3526 29.6186H20.4776V34.8347H18.3526V29.6186ZM22.0242 29.6186H32.6503V34.8347H22.0242V29.6186ZM34.1947 29.6186H36.3196V34.8347H34.1947V29.6186ZM17.009 12.8116H16.2276V9.0118H18.1783L17.009 12.8116ZM15.0687 12.8116H14.2965V9.0118H15.0687V12.8116ZM13.1365 12.8116H12.3643V9.0118H13.1365V12.8116ZM11.2055 12.8116H10.4333V9.0118H11.2055V12.8116ZM9.27324 12.8116H8.50105V9.0118H9.27324V12.8116ZM7.34103 12.8116H6.56884V9.0118H7.34103V12.8116ZM5.40882 12.8116H4.63662V9.0118H5.40882V12.8116ZM3.47776 12.8116H2.88909L1.71983 9.0118H3.47776V12.8116ZM3.09108 14.3571H16.807V45.8474H3.09108V14.3571ZM18.3526 36.3802H20.4776V53.9606H18.3526V36.3802ZM34.1947 36.3802H36.3196V53.9606H34.1947V36.3802ZM37.8652 14.3571H51.5811V45.8474H37.8652V14.3571ZM51.7843 12.8116H51.1956V9.0118H52.9535L51.7843 12.8116ZM22.7964 7.20886C22.9719 7.20886 23.1427 7.14884 23.2789 7.03919L23.646 6.74601C24.6859 5.92187 25.9972 5.46825 27.3361 5.46825C28.675 5.46825 29.9851 5.92187 31.0309 6.74947L31.3933 7.03919C31.5306 7.14884 31.7003 7.20886 31.8758 7.20886H34.7741V8.56164C34.7741 8.63898 34.7856 8.71516 34.8087 8.78903L35.5117 11.0733H19.1617L19.8646 8.78903C19.8877 8.71516 19.8993 8.63898 19.8993 8.56164V7.20886H22.7976H22.7964ZM2.31773 1.99281V3.15167C2.31773 3.57875 2.66401 3.92387 3.08993 3.92387H5.98825C6.41532 3.92387 6.76044 3.57759 6.76044 3.15167V1.99281H7.72655V3.15167C7.72655 3.57875 8.07282 3.92387 8.49874 3.92387H11.3971C11.8241 3.92387 12.1693 3.57759 12.1693 3.15167V1.99281H13.1354V3.15167C13.1354 3.57875 13.4816 3.92387 13.9076 3.92387H16.8059C17.233 3.92387 17.5781 3.57759 17.5781 3.15167V1.99281H18.3503V7.46626H1.54554V1.99281H2.31773ZM3.09108 47.3929H16.807V53.9618H3.09108V47.3929ZM25.4916 53.9606V44.7647C25.4916 43.7189 26.2984 42.8579 27.3361 42.7863C28.3738 42.8567 29.1806 43.7189 29.1806 44.7647V53.9606H25.4905H25.4916ZM37.8652 53.9606V47.3918H51.5811V53.9606H37.8652Z" fill="#3C3D3E"/>
<path d="M10.0459 19.3809C8.87431 19.3809 7.9209 20.3343 7.9209 21.5058V23.2441C7.9209 23.6712 8.26717 24.0163 8.69309 24.0163H11.3975C11.8246 24.0163 12.1697 23.6701 12.1697 23.2441V21.5058C12.1697 20.3343 11.2163 19.3809 10.0447 19.3809H10.0459ZM10.6265 22.4719H9.46759V21.5058C9.46759 21.1861 9.7273 20.9264 10.047 20.9264C10.3668 20.9264 10.6265 21.1861 10.6265 21.5058V22.4719Z" fill="#3C3D3E"/>
<path d="M44.6264 19.3809C43.4549 19.3809 42.5015 20.3343 42.5015 21.5058V23.2441C42.5015 23.6712 42.8477 24.0163 43.2737 24.0163H45.9781C46.4051 24.0163 46.7503 23.6701 46.7503 23.2441V21.5058C46.7503 20.3343 45.7968 19.3809 44.6253 19.3809H44.6264ZM45.2059 22.4719H44.047V21.5058C44.047 21.1861 44.3067 20.9264 44.6264 20.9264C44.9462 20.9264 45.2059 21.1861 45.2059 21.5058V22.4719Z" fill="#3C3D3E"/>
<path d="M10.0459 27.1055C8.87431 27.1055 7.9209 28.0589 7.9209 29.2304V30.9687C7.9209 31.3958 8.26717 31.7409 8.69309 31.7409H11.3975C11.8246 31.7409 12.1697 31.3947 12.1697 30.9687V29.2304C12.1697 28.0589 11.2163 27.1055 10.0447 27.1055H10.0459ZM10.6265 30.1966H9.46759V29.2304C9.46759 28.9107 9.7273 28.651 10.047 28.651C10.3668 28.651 10.6265 28.9107 10.6265 29.2304V30.1966Z" fill="#3C3D3E"/>
<path d="M44.6264 27.1055C43.4549 27.1055 42.5015 28.0589 42.5015 29.2304V30.9687C42.5015 31.3958 42.8477 31.7409 43.2737 31.7409H45.9781C46.4051 31.7409 46.7503 31.3947 46.7503 30.9687V29.2304C46.7503 28.0589 45.7968 27.1055 44.6253 27.1055H44.6264ZM45.2059 30.1966H44.047V29.2304C44.047 28.9107 44.3067 28.651 44.6264 28.651C44.9462 28.651 45.2059 28.9107 45.2059 29.2304V30.1966Z" fill="#3C3D3E"/>
<path d="M10.0459 34.834C8.87431 34.834 7.9209 35.7874 7.9209 36.959V38.6973C7.9209 39.1243 8.26717 39.4694 8.69309 39.4694H11.3975C11.8246 39.4694 12.1697 39.1232 12.1697 38.6973V36.959C12.1697 35.7874 11.2163 34.834 10.0447 34.834H10.0459ZM10.6265 37.9251H9.46759V36.959C9.46759 36.6392 9.7273 36.3795 10.047 36.3795C10.3668 36.3795 10.6265 36.6392 10.6265 36.959V37.9251Z" fill="#3C3D3E"/>
<path d="M44.6264 34.834C43.4549 34.834 42.5015 35.7874 42.5015 36.959V38.6973C42.5015 39.1243 42.8477 39.4694 43.2737 39.4694H45.9781C46.4051 39.4694 46.7503 39.1232 46.7503 38.6973V36.959C46.7503 35.7874 45.7968 34.834 44.6253 34.834H44.6264ZM45.2059 37.9251H44.047V36.959C44.047 36.6392 44.3067 36.3795 44.6264 36.3795C44.9462 36.3795 45.2059 36.6392 45.2059 36.959V37.9251Z" fill="#3C3D3E"/>
</g>
<defs>
<clipPath id="clip0_1042_7061">
<rect width="54.6734" height="55.0589" fill="white" transform="translate(0 0.449219)"/>
</clipPath>
</defs>
</svg>
