<svg
  
  viewBox="0 0 20 20"
  fill="currentColor"
>
  <path
    d="M18.9082 3.75V12.75C18.9082 14.6484 17.3965 16.125 15.5332 16.125H13.002C12.5098 16.125 12.1582 15.7734 12.1582 15.2812C12.1582 14.8242 12.5098 14.4375 13.002 14.4375H15.5332C16.4473 14.4375 17.2207 13.6992 17.2207 12.75V3.75C17.2207 2.83594 16.4473 2.0625 15.5332 2.0625H13.002C12.5098 2.0625 12.1582 1.71094 12.1582 1.21875C12.1582 0.761719 12.5098 0.375 13.002 0.375H15.5332C17.3965 0.375 18.9082 1.88672 18.9082 3.75ZM13.0371 7.6875L8.53711 2.90625C8.2207 2.55469 7.69336 2.55469 7.3418 2.87109C6.99023 3.1875 6.99023 3.71484 7.30664 4.06641L10.4707 7.40625H1.75195C1.25977 7.40625 0.908203 7.79297 0.908203 8.25C0.908203 8.74219 1.25977 9.09375 1.75195 9.09375H10.4707L7.30664 12.4688C6.99023 12.8203 6.99023 13.3477 7.3418 13.6641C7.51758 13.8047 7.72852 13.875 7.93945 13.875C8.15039 13.875 8.36133 13.8047 8.53711 13.6289L13.0371 8.84766C13.3535 8.53125 13.3535 8.00391 13.0371 7.6875Z"
    fill="currentColor"
  />
</svg>
