<svg width="57" height="58" viewBox="0 0 57 58" fill="none" >
<path d="M55.881 12.5048H48.645V10.8569C48.645 10.1315 48.5298 9.41512 48.3003 8.72662L48.2859 8.68252C47.6487 6.77093 46.2213 5.22022 44.3709 4.42912L42.5349 3.64432C42.2478 3.52192 41.9166 3.57592 41.6835 3.78382C41.4504 3.99172 41.3586 4.31482 41.4477 4.61362L41.9499 6.30022C42.0408 6.60442 41.9589 6.91673 41.7312 7.13723C41.5035 7.35773 41.1876 7.42972 40.887 7.32893C39.9195 7.00672 39.3651 5.98162 39.6243 4.99522L40.0113 3.52372C40.1085 3.15562 39.9339 2.77042 39.5928 2.59942C37.215 1.41142 34.6689 0.666225 32.0247 0.385425L30.6855 0.243225C30.5334 0.173925 30.3597 0.154125 30.1878 0.190125L28.4283 0.004725C28.3716 -0.001575 28.3149 -0.001575 28.2591 0.004725L26.4978 0.191925C26.3259 0.155925 26.1531 0.175725 26.001 0.245025L24.6609 0.387225C22.0167 0.668025 19.4706 1.41232 17.0928 2.60122C16.7526 2.77132 16.578 3.15652 16.6743 3.52462L17.0613 4.99612C17.3205 5.98252 16.7661 7.00763 15.7986 7.32982C15.498 7.42973 15.1821 7.35862 14.9544 7.13812C14.7267 6.91762 14.6448 6.60442 14.7357 6.30113L15.2379 4.61452C15.327 4.31572 15.2352 3.99262 15.0021 3.78472C14.769 3.57682 14.4378 3.52282 14.1507 3.64522L12.3147 4.43002C10.4643 5.22112 9.0369 6.77092 8.3997 8.68432L8.3853 8.72752C8.1558 9.41603 8.0397 10.1324 8.0397 10.8578V12.5057H0.8037C0.36 12.5057 0 12.8657 0 13.3094V56.7272C0 57.1709 0.36 57.5309 0.8037 57.5309H55.8801C56.3238 57.5309 56.6838 57.1709 56.6838 56.7272V13.3085C56.6838 12.8648 56.3238 12.5048 55.8801 12.5048H55.881ZM50.6547 38.6354V36.2234H52.6644V38.6354H50.6547ZM52.6653 34.8167H50.6556V32.204H52.6653V34.8167ZM53.469 30.5957H49.851C49.4073 30.5957 49.0473 30.9557 49.0473 31.3994V38.6354H48.3102V17.9318H49.0473V19.7408C49.0473 20.1845 49.4073 20.5445 49.851 20.5445H53.469C53.9127 20.5445 54.2727 20.1845 54.2727 19.7408V17.9318H55.0764V38.6354H54.2727V31.3994C54.2727 30.9557 53.9127 30.5957 53.469 30.5957ZM4.0212 38.6354V36.2234H6.0309V38.6354H4.0212ZM6.0309 34.8167H4.0212V32.204H6.0309V34.8167ZM6.8355 30.5957H3.2175C2.7738 30.5957 2.4138 30.9557 2.4138 31.3994V38.6354H1.6101V17.9318H2.4138V19.7408C2.4138 20.1845 2.7738 20.5445 3.2175 20.5445H6.8355C7.2792 20.5445 7.6392 20.1845 7.6392 19.7408V17.9318H8.3763V38.6354H7.6392V31.3994C7.6392 30.9557 7.2792 30.5957 6.8355 30.5957ZM4.0212 17.9318H6.0309V18.9371H4.0212V17.9318ZM9.9846 17.9318H11.6595V19.7408C11.6595 20.1845 12.0195 20.5445 12.4632 20.5445H17.0865C17.5302 20.5445 17.8902 20.1845 17.8902 19.7408V17.9318H19.6992V38.6354H17.8902V31.3994C17.8902 30.9557 17.5302 30.5957 17.0865 30.5957H12.4632C12.0195 30.5957 11.6595 30.9557 11.6595 31.3994V38.6354H9.9846V17.9318ZM13.2678 17.9318H16.2828V18.9371H13.2678V17.9318ZM24.6906 9.92632C24.5394 9.77512 24.3351 9.69053 24.1218 9.69053H21.9105V9.19102L26.1405 7.16062L28.0098 8.01023C28.2213 8.10652 28.4634 8.10652 28.6749 8.01023L30.5442 7.16062L34.7742 9.19102V9.69053H32.5629C32.3496 9.69053 32.1453 9.77512 31.9941 9.92632L30.5757 11.3447C29.835 11.2844 29.0898 11.2529 28.3419 11.2529C27.594 11.2529 26.8488 11.2844 26.1081 11.3447L24.6897 9.92632H24.6906ZM28.3428 12.8612C31.2273 12.8612 34.0641 13.3373 36.7848 14.2778V16.3244H36.1818C35.7381 16.3244 35.3781 16.6844 35.3781 17.1281V18.5348H21.3075V17.1281C21.3075 16.6844 20.9475 16.3244 20.5038 16.3244H19.9008V14.2778C22.6215 13.3373 25.4592 12.8612 28.3428 12.8612ZM21.3075 44.264V42.8573H35.3781V44.264H21.3075ZM35.3781 41.249H21.3075V40.2437H35.3781V41.249ZM21.3075 38.6354V36.8264H35.3781V38.6354H21.3075ZM21.3075 28.7363H22.7142V35.219H21.3075V28.7363ZM32.3631 27.128H24.1218V27.0776C24.1218 24.8051 25.9704 22.9565 28.2429 22.9565C30.5154 22.9565 32.364 24.8051 32.364 27.0776V27.128H32.3631ZM24.3225 28.7363H32.3631V35.219H24.3225V28.7363ZM33.9714 28.7363H35.3781V35.219H33.9714V28.7363ZM35.3781 27.128H33.7698V27.0776C33.7698 24.0293 31.2903 21.5498 28.242 21.5498C25.1937 21.5498 22.7142 24.0293 22.7142 27.0776V27.128H21.3075V20.1431H35.3781V27.128ZM13.2678 38.6354V36.2234H16.2828V38.6354H13.2678ZM16.2828 34.8167H13.2678V32.204H16.2828V34.8167ZM19.7001 40.2437V55.9226H9.9846V40.2437H19.7001ZM21.3075 45.8723H22.7142V55.9226H21.3075V45.8723ZM24.3225 45.8723H32.3631V55.9226H24.3225V45.8723ZM33.9714 45.8723H35.3781V55.9226H33.9714V45.8723ZM36.9864 40.2437H46.7019V55.9226H36.9864V40.2437ZM43.4187 34.8167H40.4037V32.204H43.4187V34.8167ZM40.4037 36.2234H43.4187V38.6354H40.4037V36.2234ZM45.027 38.6354V31.3994C45.027 30.9557 44.667 30.5957 44.2233 30.5957H39.6C39.1563 30.5957 38.7963 30.9557 38.7963 31.3994V38.6354H36.9873V17.9318H38.7963V19.7408C38.7963 20.1845 39.1563 20.5445 39.6 20.5445H44.2233C44.667 20.5445 45.027 20.1845 45.027 19.7408V17.9318H46.7019V38.6354H45.027ZM40.4037 17.9318H43.4187V18.9371H40.4037V17.9318ZM50.6547 17.9318H52.6644V18.9371H50.6547V17.9318ZM28.3428 1.61302L29.7801 1.76513L30.258 3.12052L28.3428 3.44812L26.4276 3.12052L26.9055 1.76513L28.3428 1.61302ZM8.8452 14.1131C9.0585 14.1131 9.2628 14.0285 9.414 13.8773C9.5652 13.7261 9.6498 13.5218 9.6498 13.3085V10.856C9.6498 10.3043 9.7371 9.75892 9.9126 9.23422L9.927 9.19102C10.4193 7.71502 11.52 6.51802 12.9483 5.90782L13.2084 5.79623L13.1958 5.83942C12.9348 6.71602 13.1805 7.65473 13.8375 8.29103C14.4945 8.92733 15.4413 9.14243 16.3089 8.85353C18.0783 8.26402 19.0926 6.38842 18.6183 4.58482L18.4005 3.75502C20.4363 2.81632 22.5963 2.22143 24.8319 1.98383L25.137 1.95142L24.597 3.48322C24.5178 3.70642 24.5421 3.95392 24.6618 4.15822C24.7815 4.36252 24.9858 4.50382 25.2198 4.54342L28.2105 5.05462C28.2555 5.06272 28.3005 5.06632 28.3464 5.06632C28.3923 5.06632 28.4373 5.06272 28.4823 5.05462L31.473 4.54342C31.707 4.50382 31.9104 4.36252 32.031 4.15822C32.1507 3.95392 32.175 3.70732 32.0958 3.48322L31.5558 1.95142L31.86 1.98383C34.0956 2.22143 36.2565 2.81632 38.2914 3.75502L38.0727 4.58482C37.5984 6.38842 38.6127 8.26313 40.3821 8.85353C41.2497 9.14243 42.1965 8.92733 42.8535 8.29103C43.5105 7.65473 43.7562 6.71512 43.4952 5.83942L43.4826 5.79532L43.7436 5.90692C45.1719 6.51712 46.2726 7.71322 46.7649 9.19012L46.7793 9.23422C46.9539 9.75802 47.0421 10.3034 47.0421 10.8551V13.3067C47.0421 13.52 47.1258 13.7243 47.277 13.8755C47.4282 14.0267 47.6325 14.1113 47.8458 14.1113H55.0818V16.3226H38.3985V13.7099C38.3985 13.3733 38.1888 13.0727 37.8729 12.9557C36.1611 12.323 34.4034 11.8649 32.6151 11.5841L32.9013 11.2979H35.5833C36.027 11.2979 36.387 10.9379 36.387 10.4942V8.68522C36.387 8.37562 36.2097 8.09392 35.9307 7.96072L30.9051 5.54872C30.6909 5.44522 30.4416 5.44342 30.2247 5.54152L28.3464 6.39562L26.4681 5.54152C26.2512 5.44342 26.0019 5.44522 25.7877 5.54872L20.7621 7.96072C20.4831 8.09482 20.3058 8.37652 20.3058 8.68522V10.4942C20.3058 10.9379 20.6658 11.2979 21.1095 11.2979H23.7915L24.0777 11.5841C22.2903 11.8649 20.5326 12.323 18.8199 12.9557C18.504 13.0727 18.2943 13.3733 18.2943 13.7099V16.3226H1.6092V14.1113H8.8452V14.1131ZM1.6092 40.2437H8.3763V55.9226H1.6092V40.2437ZM48.3102 55.9226V40.2437H55.0773V55.9226H48.3102Z" fill="#3C3D3E"/>
<path d="M12.4629 53.5098H17.0862C17.5299 53.5098 17.8899 53.1498 17.8899 52.7061V43.2588C17.8899 42.8151 17.5299 42.4551 17.0862 42.4551H12.4629C12.0192 42.4551 11.6592 42.8151 11.6592 43.2588V52.7061C11.6592 53.1498 12.0192 53.5098 12.4629 53.5098ZM13.2675 51.9015V48.6858H16.2825V51.9015H13.2675ZM16.2825 44.0625V47.2782H13.2675V44.0625H16.2825Z" fill="#3C3D3E"/>
<path d="M44.2224 42.4551H39.5991C39.1554 42.4551 38.7954 42.8151 38.7954 43.2588V52.7061C38.7954 53.1498 39.1554 53.5098 39.5991 53.5098H44.2224C44.6661 53.5098 45.0261 53.1498 45.0261 52.7061V43.2588C45.0261 42.8151 44.6661 42.4551 44.2224 42.4551ZM43.4187 44.0634V47.2791H40.4037V44.0634H43.4187ZM40.4037 51.9024V48.6867H43.4187V51.9024H40.4037Z" fill="#3C3D3E"/>
<path d="M12.4629 28.5862H17.0862C17.5299 28.5862 17.8899 28.2262 17.8899 27.7825V23.1592C17.8899 22.7155 17.5299 22.3555 17.0862 22.3555H12.4629C12.0192 22.3555 11.6592 22.7155 11.6592 23.1592V27.7825C11.6592 28.2262 12.0192 28.5862 12.4629 28.5862ZM13.2675 26.9788V26.1751H16.2825V26.9788H13.2675ZM16.2825 23.9638V24.7675H13.2675V23.9638H16.2825Z" fill="#3C3D3E"/>
<path d="M44.2224 22.3555H39.5991C39.1554 22.3555 38.7954 22.7155 38.7954 23.1592V27.7825C38.7954 28.2262 39.1554 28.5862 39.5991 28.5862H44.2224C44.6661 28.5862 45.0261 28.2262 45.0261 27.7825V23.1592C45.0261 22.7155 44.6661 22.3555 44.2224 22.3555ZM43.4187 23.9638V24.7675H40.4037V23.9638H43.4187ZM40.4037 26.9788V26.1751H43.4187V26.9788H40.4037Z" fill="#3C3D3E"/>
<path d="M7.63897 23.1592C7.63897 22.7155 7.27897 22.3555 6.83527 22.3555H3.21727C2.77357 22.3555 2.41357 22.7155 2.41357 23.1592V27.7825C2.41357 28.2262 2.77357 28.5862 3.21727 28.5862H6.83527C7.27897 28.5862 7.63897 28.2262 7.63897 27.7825V23.1592ZM6.03067 23.9638V24.7675H4.02097V23.9638H6.03067ZM4.02097 26.9788V26.1751H6.03067V26.9788H4.02097Z" fill="#3C3D3E"/>
<path d="M54.2728 23.1592C54.2728 22.7155 53.9128 22.3555 53.4691 22.3555H49.8511C49.4074 22.3555 49.0474 22.7155 49.0474 23.1592V27.7825C49.0474 28.2262 49.4074 28.5862 49.8511 28.5862H53.4691C53.9128 28.5862 54.2728 28.2262 54.2728 27.7825V23.1592ZM52.6654 23.9638V24.7675H50.6557V23.9638H52.6654ZM50.6548 26.9788V26.1751H52.6645V26.9788H50.6548Z" fill="#3C3D3E"/>
<path d="M6.83527 42.4551H3.21727C2.77357 42.4551 2.41357 42.8151 2.41357 43.2588V52.7061C2.41357 53.1498 2.77357 53.5098 3.21727 53.5098H6.83527C7.27897 53.5098 7.63897 53.1498 7.63897 52.7061V43.2588C7.63897 42.8151 7.27897 42.4551 6.83527 42.4551ZM6.03067 44.0634V47.2791H4.02097V44.0634H6.03067ZM4.02097 51.9024V48.6867H6.03067V51.9024H4.02097Z" fill="#3C3D3E"/>
<path d="M53.4691 42.4551H49.8511C49.4074 42.4551 49.0474 42.8151 49.0474 43.2588V52.7061C49.0474 53.1498 49.4074 53.5098 49.8511 53.5098H53.4691C53.9128 53.5098 54.2728 53.1498 54.2728 52.7061V43.2588C54.2728 42.8151 53.9128 42.4551 53.4691 42.4551ZM52.6654 44.0634V47.2791H50.6557V44.0634H52.6654ZM50.6548 51.9024V48.6867H52.6645V51.9024H50.6548Z" fill="#3C3D3E"/>
</svg>
