<svg width="26" height="22" viewBox="0 0 26 22" fill="none" >
  <g clip-path="url(#clip0_994_2963)">
    <path
      d="M23.1243 3.10328C23.1243 3.08531 23.1243 3.06734 23.1239 3.04958V3.0208C23.122 2.75579 23.0077 2.5649 22.7933 2.46834C22.6879 2.42097 22.554 2.39484 22.4159 2.39463C20.0048 2.39177 17.3474 2.39137 14.0531 2.3932C13.9345 2.3932 13.8169 2.40627 13.7031 2.41872L13.6596 2.42342C13.5132 2.43934 13.4154 2.5302 13.3388 2.61696C13.211 2.76192 13.2002 2.9375 13.2002 3.09082C13.2002 4.37888 13.2002 5.66693 13.2002 6.95498V8.28713C13.2002 9.5221 13.2002 10.7569 13.2008 11.9918C13.2008 12.0594 13.2026 12.1397 13.2155 12.2211C13.2402 12.3769 13.3199 12.5031 13.4524 12.5962C13.6012 12.7007 13.7638 12.714 13.8891 12.714C16.1449 12.7136 18.4006 12.7136 20.6564 12.7136H22.44C22.447 12.7136 22.4541 12.7136 22.4619 12.7138C22.4702 12.7138 22.4788 12.714 22.4874 12.714C22.5007 12.714 22.5205 12.7138 22.5419 12.7115C22.8031 12.6835 22.9766 12.569 23.0575 12.371C23.1104 12.2413 23.1216 12.1043 23.1218 12.0125C23.1243 9.45167 23.1243 6.8478 23.1241 4.32947V3.10307L23.1243 3.10328ZM21.9395 4.93052V5.3762V5.77248C21.9395 6.21428 21.9395 6.65609 21.9395 7.09789V7.16016C21.9395 7.1667 21.9395 7.17241 21.9395 7.17772C21.9346 7.17772 21.9291 7.17772 21.923 7.17772C21.3449 7.17772 20.7669 7.17772 20.1888 7.17772C20.1839 7.17772 20.1794 7.17772 20.1753 7.17772C20.1753 7.17384 20.1753 7.16976 20.1753 7.16527C20.1753 5.97399 20.1753 4.7825 20.1753 3.59122V3.5853C20.1782 3.5853 20.1808 3.5853 20.1829 3.5853C20.7664 3.5851 21.3498 3.5851 21.9334 3.5853C21.9353 3.5853 21.9373 3.5853 21.9395 3.5853V3.59326C21.9395 4.03895 21.9395 4.48463 21.9395 4.93052ZM20.1751 8.38043C20.1751 8.37411 20.1751 8.36839 20.1751 8.36349C20.1808 8.36349 20.1873 8.36349 20.1949 8.36349C20.7703 8.36329 21.3457 8.36329 21.9212 8.36349C21.9279 8.36349 21.9338 8.36349 21.9391 8.36349C21.9391 8.36921 21.9391 8.37574 21.9391 8.38329C21.9391 9.42492 21.9391 10.4666 21.9391 11.5082C21.9391 11.5108 21.9391 11.5133 21.9391 11.5155C21.9365 11.5155 21.9338 11.5155 21.9308 11.5155C21.3498 11.5157 20.7689 11.5157 20.1882 11.5155C20.1851 11.5155 20.1804 11.5155 20.1747 11.5155C20.1747 11.5115 20.1747 11.508 20.1747 11.5053C20.1747 11.1266 20.1747 10.7477 20.1747 10.369V9.50883C20.1747 9.13277 20.1747 8.7565 20.1747 8.38043H20.1751ZM17.3092 9.56865C17.3092 9.17258 17.3092 8.77651 17.3092 8.38043C17.3092 8.37656 17.3092 8.37023 17.3092 8.36329C17.3153 8.36329 17.3209 8.36329 17.3247 8.36329C17.8728 8.36329 18.4209 8.36329 18.9689 8.36329C18.9775 8.36329 18.985 8.36329 18.9914 8.36329C18.9914 8.36982 18.9916 8.37778 18.9916 8.38697C18.9916 9.42554 18.9916 10.4643 18.9916 11.5029C18.9916 11.5057 18.9916 11.5102 18.9916 11.5153C18.9879 11.5153 18.9838 11.5153 18.9795 11.5153C18.4229 11.5155 17.8661 11.5155 17.3094 11.5153C17.3094 11.1629 17.3094 10.8104 17.3094 10.458V9.9341V9.56845L17.3092 9.56865ZM18.9918 4.91174V5.95745C18.9918 6.35577 18.9918 6.75409 18.9918 7.15241C18.9918 7.1622 18.9918 7.17058 18.9918 7.17752C18.9808 7.17752 18.9705 7.17752 18.965 7.17752C18.4141 7.17752 17.863 7.17752 17.3121 7.17752H17.3098V7.17323C17.3096 5.97705 17.3096 4.78087 17.3098 3.58469C17.8683 3.58469 18.427 3.58469 18.9857 3.58469H18.992V3.59285C18.992 4.03221 18.992 4.47177 18.992 4.91112L18.9918 4.91174ZM16.1114 3.58367C16.1098 4.03874 16.11 4.50096 16.1102 4.94828V5.37743C16.1104 5.96909 16.1104 6.56075 16.1102 7.15241C16.1102 7.15975 16.1102 7.16874 16.1102 7.17793C16.1 7.17793 16.0898 7.17793 16.0816 7.17793H15.7528C15.3034 7.17793 14.854 7.17793 14.4043 7.17793C14.3972 7.17793 14.3909 7.17793 14.3855 7.17793C14.3855 7.17282 14.3855 7.1669 14.3855 7.16016C14.3855 5.97133 14.3855 4.78271 14.3855 3.59388V3.58551C14.388 3.58551 14.39 3.58551 14.3919 3.58551C14.5458 3.58551 14.6996 3.58551 14.8534 3.58551H14.8785C15.2824 3.58551 15.6995 3.58591 16.1114 3.58387V3.58367ZM14.3855 8.39085C14.3855 8.38003 14.3855 8.37084 14.3858 8.36329C14.3931 8.36329 14.4019 8.36308 14.4127 8.36308C14.9744 8.36308 15.536 8.36308 16.0977 8.36308C16.1012 8.36308 16.1057 8.36308 16.1104 8.36308C16.1104 8.36716 16.1104 8.37064 16.1104 8.37329C16.1104 8.75589 16.1104 9.13849 16.1104 9.52108V9.95146C16.1104 10.0584 16.1104 10.1652 16.1104 10.2722V10.3363C16.11 10.7226 16.1098 11.1221 16.112 11.5172C15.7951 11.5151 15.4782 11.5149 15.2368 11.5149C15.1123 11.5149 14.9885 11.5149 14.866 11.5149C14.7112 11.5149 14.5565 11.5149 14.4019 11.5149C14.3982 11.5149 14.3925 11.5149 14.3858 11.5149C14.3858 11.508 14.3858 11.5017 14.3858 11.498C14.3858 10.4621 14.3858 9.42615 14.3858 8.39023L14.3855 8.39085Z"
      fill="#3C3D3E" />
    <path
      d="M12.4997 2.90693C12.4841 2.76463 12.4157 2.64377 12.2904 2.5374C12.1401 2.4098 11.9677 2.39224 11.804 2.39224C8.46088 2.39122 5.8868 2.39142 3.45769 2.39285C3.3268 2.39285 3.17488 2.39591 3.02725 2.43103C2.90003 2.46125 2.79222 2.5521 2.73933 2.60375C2.58496 2.75401 2.58496 2.9643 2.58496 3.10333V12.0199C2.58496 12.0415 2.58496 12.066 2.58598 12.0909C2.59762 12.3582 2.7038 12.5401 2.90146 12.6317C3.01112 12.6826 3.14221 12.7105 3.27085 12.7108C5.70731 12.7138 8.18501 12.7138 10.581 12.7136H11.8217C11.8293 12.7136 11.8366 12.7136 11.8444 12.7138C11.8532 12.7138 11.8622 12.7142 11.8713 12.7142C11.8916 12.7142 11.9085 12.7134 11.9244 12.7116C12.1491 12.686 12.3036 12.5993 12.4106 12.4382C12.5015 12.3016 12.509 12.1571 12.509 12.0323C12.509 10.839 12.509 9.64568 12.509 8.45236V6.86194C12.509 5.61023 12.509 4.35852 12.5086 3.1068C12.5086 3.0282 12.5058 2.96471 12.4995 2.90693H12.4997ZM11.3231 7.17247C11.3231 7.1741 11.3231 7.17594 11.3231 7.17737C11.3206 7.17737 11.318 7.17737 11.3153 7.17737C10.7346 7.17757 10.1541 7.17757 9.57354 7.17737C9.57027 7.17737 9.56598 7.17737 9.56129 7.17737C9.56129 7.17308 9.56129 7.16941 9.56129 7.16655C9.56129 6.76496 9.56129 6.36317 9.56129 5.96159V4.84789C9.56129 4.42711 9.56129 4.00613 9.56129 3.58536V3.58495H9.56292C10.149 3.58475 10.735 3.58475 11.3212 3.58495H11.3229C11.3235 4.71641 11.3235 5.88993 11.3231 7.17247ZM9.56108 9.55054C9.56108 9.15998 9.56108 8.76942 9.56108 8.37865C9.56108 8.37498 9.56108 8.36926 9.56108 8.36273C9.56782 8.36273 9.57395 8.36273 9.57803 8.36273C10.1535 8.36273 10.7289 8.36273 11.3043 8.36273C11.3114 8.36273 11.3176 8.36273 11.3229 8.36293C11.3229 8.36885 11.3231 8.37559 11.3231 8.38376C11.3231 9.42539 11.3231 10.467 11.3231 11.5086C11.3231 11.5109 11.3231 11.5131 11.3231 11.5152C11.3198 11.5152 11.3165 11.5152 11.3129 11.5152C10.7321 11.5152 10.1512 11.5154 9.57027 11.5152C9.56762 11.5152 9.56435 11.5152 9.56088 11.5152V9.55054H9.56108ZM6.69337 3.60496C6.69337 3.59904 6.69337 3.59209 6.69337 3.58495C6.69929 3.58495 6.70501 3.58495 6.70991 3.58495C6.70991 3.58495 7.83686 3.58495 8.37042 3.58495H8.37124C8.37165 4.78072 8.37165 5.9767 8.37124 7.17247C8.37124 7.1741 8.37124 7.17594 8.37124 7.17757C8.3694 7.17757 8.36756 7.17757 8.36552 7.17757C7.80929 7.17778 7.25307 7.17757 6.69684 7.17757H6.69337C6.69337 7.17574 6.69337 7.17369 6.69337 7.17165C6.69296 6.72495 6.69316 4.13578 6.69337 3.60516V3.60496ZM6.69337 9.57381C6.69337 9.17754 6.69337 8.78146 6.69337 8.38519C6.69337 8.37682 6.69337 8.36947 6.69337 8.36314C6.6999 8.36314 6.70705 8.36314 6.71481 8.36314C7.26307 8.36314 7.81113 8.36314 8.3594 8.36314C8.36368 8.36314 8.36756 8.36314 8.37124 8.36314C8.37124 8.3662 8.37124 8.36926 8.37124 8.37273C8.37144 9.41988 8.37144 10.467 8.37124 11.5142V11.5152C7.81195 11.5156 7.25266 11.5156 6.69316 11.5152C6.69296 11.1258 6.69316 10.7363 6.69316 10.347V9.93947V9.57381H6.69337ZM3.76991 11.5109C3.76991 10.4664 3.76991 9.42192 3.76991 8.37743C3.76991 8.37212 3.76991 8.36743 3.76991 8.36314C3.77399 8.36314 3.77869 8.36314 3.78359 8.36314C4.35554 8.36293 4.92749 8.36293 5.49944 8.36314V8.36375C5.49964 8.75268 5.49883 11.1248 5.50128 11.5166C5.2103 11.5152 3.95041 11.5152 3.77154 11.515H3.76991V11.5107V11.5109ZM5.49964 3.58658C5.49964 4.78052 5.49964 5.97466 5.49964 7.16859V7.17757C5.49495 7.17757 5.49045 7.17757 5.48698 7.17757C4.91993 7.17757 4.35288 7.17757 3.78563 7.17757C3.78216 7.17757 3.77644 7.17757 3.77011 7.17757C3.77011 7.17206 3.77011 7.16614 3.77011 7.15961C3.77011 6.72046 3.77011 6.2811 3.77011 5.84195V4.72968C3.77011 4.35382 3.77011 3.97796 3.77031 3.60149C3.77031 3.59679 3.77031 3.59107 3.77031 3.58495C3.77766 3.58495 3.78461 3.58495 3.79053 3.58495C4.36023 3.58495 4.92994 3.58495 5.49964 3.58495V3.58658Z"
      fill="#3C3D3E" />
    <path
      d="M23.2468 0H2.4679C1.10715 0 0 1.10696 0 2.46749V19.5323C0 20.8928 1.10715 21.9998 2.4679 21.9998H23.2466C24.6074 21.9998 25.7145 20.8928 25.7145 19.5323V2.46749C25.7145 1.10696 24.6074 0 23.2466 0H23.2468ZM9.2286 15.1481H11.3994L11.4008 20.775H9.22717L9.2284 15.1481H9.2286ZM24.4895 19.5325C24.4895 20.2177 23.9321 20.775 23.2468 20.775H12.5894L12.5872 14.6194C12.5872 14.6194 12.5617 14.3799 12.5165 14.2872C12.4116 14.0712 11.9385 13.9571 11.9385 13.9571C11.5546 13.9585 8.52882 13.964 8.44286 13.9961C8.16924 14.0979 8.0412 14.2984 8.03998 14.6269C8.03692 15.4646 8.03957 20.7752 8.03957 20.7752H2.4679C1.78262 20.7752 1.22517 20.2179 1.22517 19.5327V2.46749C1.22517 1.78233 1.78262 1.22497 2.4679 1.22497H23.2466C23.9319 1.22497 24.4893 1.78233 24.4893 2.46749V19.5323L24.4895 19.5325Z"
      fill="#3C3D3E" />
  </g>
  <defs>
    <clipPath id="clip0_994_2963">
      <rect width="25.7147" height="22" fill="white" />
    </clipPath>
  </defs>
</svg>