<svg
  width="24"
  height="16"
  viewBox="0 0 24 16"
  fill="none"
  
>
  <rect
    x="0.166667"
    y="0.166667"
    width="23"
    height="15.6667"
    rx="1.16667"
    fill="white"
    stroke="#D9D9D9"
    stroke-width="0.333333"
  />
  <path
    fill-rule="evenodd"
    clip-rule="evenodd"
    d="M7.08351 10.842H5.66996L4.60997 6.79811C4.55966 6.61209 4.45283 6.44764 4.29569 6.37013C3.90354 6.17535 3.47141 6.02033 3 5.94215V5.78646H5.27711C5.59139 5.78646 5.8271 6.02033 5.86638 6.29195L6.41636 9.20896L7.82922 5.78646H9.20348L7.08351 10.842ZM9.98928 10.842H8.6543L9.75357 5.78646H11.0885L9.98928 10.842ZM12.8157 7.18902C12.855 6.91673 13.0907 6.76104 13.3657 6.76104C13.7978 6.72195 14.2685 6.80013 14.6614 6.99424L14.8971 5.90575C14.5042 5.75006 14.0721 5.67188 13.68 5.67188C12.3843 5.67188 11.4414 6.37215 11.4414 7.34403C11.4414 8.0834 12.1093 8.47161 12.5807 8.70549C13.0907 8.93868 13.2871 9.09438 13.2478 9.32758C13.2478 9.67737 12.855 9.83306 12.4628 9.83306C11.9914 9.83306 11.52 9.71647 11.0886 9.52168L10.8529 10.6108C11.3243 10.805 11.8343 10.8831 12.3057 10.8831C13.7585 10.9216 14.6614 10.222 14.6614 9.17188C14.6614 7.84952 12.8157 7.77202 12.8157 7.18902V7.18902ZM19.3331 10.842L18.2731 5.78646H17.1346C16.8989 5.78646 16.6632 5.94215 16.5846 6.17535L14.6217 10.842H15.996L16.2703 10.1033H17.9588L18.116 10.842H19.3331ZM17.3315 7.15104L17.7236 9.0564H16.6243L17.3315 7.15104Z"
    fill="#172B85"
  />
</svg>
