<svg width="20" height="21" viewBox="0 0 20 21" fill="none" >
    <path
        d="M19.375 9.67969C19.7656 10.3047 20 11.0078 20 11.75C20 12.8047 19.6094 13.7031 18.9062 14.4062C18.1641 15.1484 17.2656 15.5 16.25 15.5H10.625V19.875C10.625 20.2266 10.3125 20.5 10 20.5C9.64844 20.5 9.375 20.2266 9.375 19.875V15.5H3.75C2.69531 15.5 1.79688 15.1484 1.09375 14.4062C0.351562 13.7031 0 12.8047 0 11.75C0 11.0078 0.195312 10.3047 0.585938 9.67969C1.01562 9.05469 1.5625 8.625 2.26562 8.3125C1.91406 7.6875 1.79688 7.0625 1.875 6.39844C1.95312 5.73438 2.22656 5.14844 2.65625 4.67969C3.125 4.21094 3.67188 3.85938 4.29688 3.70312C4.53125 3.66406 4.76562 3.625 4.96094 3.625C5.39062 3.625 5.82031 3.74219 6.25 3.89844C6.32812 2.96094 6.75781 2.14062 7.46094 1.47656C8.16406 0.851562 9.02344 0.5 10 0.5C10.9375 0.5 11.7969 0.851562 12.5 1.47656C13.2031 2.14062 13.6328 2.96094 13.75 3.89844C14.1406 3.74219 14.5703 3.625 15 3.625C15.1953 3.625 15.4297 3.66406 15.6641 3.70312C16.2891 3.85938 16.8359 4.21094 17.3047 4.67969C17.7344 5.14844 18.0078 5.73438 18.0859 6.39844C18.1641 7.0625 18.0469 7.6875 17.7344 8.3125C17.7344 8.3125 18.9453 9.05469 19.375 9.67969ZM18.0078 13.5469C18.5156 13.0391 18.75 12.4922 18.75 11.75C18.75 11.2422 18.5938 10.8125 18.3203 10.3828C18.1641 10.1484 17.5391 9.67969 17.0703 9.40625L16.0547 8.78125L16.6016 7.72656C16.8359 7.33594 16.9141 6.98438 16.8359 6.55469C16.7969 6.16406 16.6406 5.8125 16.3672 5.53906C16.0938 5.22656 15.7812 5.03125 15.3516 4.95312C15.2344 4.91406 15.1172 4.875 15 4.875C14.7266 4.875 14.4922 4.95312 14.2188 5.07031L12.6562 5.77344L12.5 4.05469C12.4219 3.39062 12.1484 2.84375 11.6797 2.41406C11.1719 1.98438 10.625 1.75 10 1.75C9.33594 1.75 8.78906 1.98438 8.32031 2.41406C7.8125 2.88281 7.53906 3.39062 7.46094 4.05469L7.30469 5.77344L5.70312 5.07031C5.46875 4.95312 5.23438 4.875 4.96094 4.875C4.84375 4.875 4.72656 4.91406 4.60938 4.95312C4.17969 5.03125 3.86719 5.22656 3.59375 5.53906C3.32031 5.8125 3.16406 6.16406 3.125 6.55469C3.04688 6.94531 3.125 7.29688 3.35938 7.6875L4.10156 8.9375L2.77344 9.48438C2.26562 9.67969 1.91406 9.99219 1.64062 10.3828C1.36719 10.8125 1.25 11.2812 1.25 11.75C1.25 12.4922 1.44531 13.0391 1.95312 13.5469C2.46094 14.0547 3.00781 14.25 3.75 14.25H9.375V11.3594L6.99219 8.39062C6.75781 8.15625 6.83594 7.72656 7.10938 7.53125C7.34375 7.29688 7.73438 7.375 7.96875 7.60938L9.375 9.36719V6.125C9.375 5.8125 9.64844 5.5 9.96094 5.5C10.3125 5.5 10.625 5.8125 10.625 6.125V11.5156L12.0312 10.0703C12.2656 9.83594 12.6953 9.83594 12.9297 10.0703C13.1641 10.3047 13.1641 10.7344 12.9297 10.9688L10.625 13.2734V14.25H16.25C16.9531 14.25 17.5 14.0547 18.0078 13.5469Z"
        fill="#3C3D3E" />
</svg>