<svg width="20" height="20" viewBox="0 0 20 20" fill="none" >
  <path
    d="M11 12.5H7.5625V14.5625C7.5625 14.9492 7.21875 15.25 6.875 15.25C6.48828 15.25 6.1875 14.9492 6.1875 14.5625V5.28125C6.1875 4.72266 6.61719 4.25 7.21875 4.25H11C13.2773 4.25 15.125 6.09766 15.125 8.375C15.125 10.6523 13.2773 12.5 11 12.5ZM11 11.125C12.5039 11.125 13.75 9.92188 13.75 8.375C13.75 6.87109 12.5039 5.625 11 5.625H7.5625V11.125H11ZM0 2.875C0 1.37109 1.20312 0.125 2.75 0.125H16.5C18.0039 0.125 19.25 1.37109 19.25 2.875V16.625C19.25 18.1719 18.0039 19.375 16.5 19.375H2.75C1.20312 19.375 0 18.1719 0 16.625V2.875ZM1.375 2.875V16.625C1.375 17.3984 1.97656 18 2.75 18H16.5C17.2305 18 17.875 17.3984 17.875 16.625V2.875C17.875 2.14453 17.2305 1.5 16.5 1.5H2.75C1.97656 1.5 1.375 2.14453 1.375 2.875Z"
    fill="#3C3D3E" />
</svg>