<svg
  viewBox="0 0 14 13"
  fill="none"
>
  <path
    d="M6.67188 2.04688L6.97266 2.375L7.30078 2.07422C8.20312 1.17188 9.48828 0.761719 10.7188 0.980469C12.6055 1.28125 14 2.92188 14 4.83594V4.97266C14 6.12109 13.5078 7.21484 12.6875 7.98047L7.73828 12.6016C7.54688 12.793 7.27344 12.875 7 12.875C6.69922 12.875 6.42578 12.793 6.23438 12.6016L1.28516 7.98047C0.464844 7.21484 0 6.12109 0 4.97266V4.83594C0 2.92188 1.36719 1.28125 3.25391 0.980469C4.48438 0.761719 5.76953 1.17188 6.67188 2.04688C6.67188 2.07422 6.64453 2.04688 6.67188 2.04688ZM6.97266 4.23438L5.74219 2.97656C5.14062 2.40234 4.29297 2.12891 3.47266 2.26562C2.21484 2.48438 1.3125 3.55078 1.3125 4.83594V4.97266C1.3125 5.76562 1.61328 6.50391 2.1875 7.02344L7 11.5078L11.7852 7.02344C12.3594 6.50391 12.6875 5.76562 12.6875 4.97266V4.83594C12.6875 3.55078 11.7578 2.48438 10.5 2.26562C9.67969 2.12891 8.83203 2.40234 8.23047 2.97656L6.97266 4.23438Z"
    fill="currentColor"
  />
</svg>
