<svg width="26" height="20" viewBox="0 0 26 20" fill="none" >
  <path
    d="M25.1484 18C25.4922 18.043 25.75 18.3867 25.707 18.7734C25.6641 19.1172 25.3203 19.418 24.9336 19.332C23.6445 19.1602 22.4844 18.6016 21.625 17.6992C20.5508 18.7734 19.0469 19.375 17.5 19.375C15.9102 19.375 14.4062 18.7734 13.332 17.6992C12.3008 18.7734 10.7969 19.418 9.25 19.418C7.66016 19.418 6.15625 18.7734 5.08203 17.6992C4.22266 18.6016 3.0625 19.1602 1.77344 19.332C1.38672 19.418 1.04297 19.1172 1 18.7734C0.957031 18.3867 1.21484 18.043 1.55859 18C2.80469 17.8281 3.87891 17.1836 4.52344 16.2383C4.65234 16.0664 4.86719 15.9375 5.125 15.9375C5.33984 15.9375 5.55469 16.0664 5.68359 16.2383C6.45703 17.3555 7.78906 18 9.25 18C10.668 18 12 17.3555 12.7734 16.2383C13.0312 15.8945 13.6328 15.8945 13.8906 16.2383C14.6641 17.3555 15.9961 18 17.457 18C18.918 18 20.25 17.3555 21.0234 16.2383C21.2812 15.8945 21.8828 15.8945 22.1406 16.2383C22.8281 17.1836 23.9023 17.8281 25.1484 18ZM7.1875 15.25C6.80078 15.25 6.5 14.9492 6.5 14.5625V3.5625C6.5 1.67188 8.00391 0.125 9.9375 0.125C11.8281 0.125 13.375 1.67188 13.375 3.5625V4.25C13.375 4.63672 13.0312 4.9375 12.6875 4.9375C12.3008 4.9375 12 4.63672 12 4.25V3.5625C12 2.44531 11.0547 1.5 9.9375 1.5C8.77734 1.5 7.875 2.44531 7.875 3.5625V8.375H17.5V3.5625C17.5 1.67188 19.0039 0.125 20.9375 0.125C22.8281 0.125 24.375 1.67188 24.375 3.5625V4.25C24.375 4.63672 24.0312 4.9375 23.6875 4.9375C23.3008 4.9375 23 4.63672 23 4.25V3.5625C23 2.44531 22.0547 1.5 20.9375 1.5C19.7773 1.5 18.875 2.44531 18.875 3.5625V14.5625C18.875 14.9492 18.5312 15.25 18.1875 15.25C17.8008 15.25 17.5 14.9492 17.5 14.5625V9.75H7.875V14.5625C7.875 14.9492 7.53125 15.25 7.1875 15.25Z"
    fill="#3C3D3E" />
</svg>