<svg viewBox="0 0 14 13" width="17" height="19"  fill="none" >
    <mask id="path-1-outside-1_1404_12362" maskUnits="userSpaceOnUse" x="-0.369141" y="-0.4375" width="14" height="14"
        fill="black">
        <rect fill="white" x="-0.369141" y="-0.4375" width="14" height="14" />
        <path fill-rule="evenodd" clip-rule="evenodd"
            d="M1.58723 12.4158H12.0432C12.5701 12.4158 12.9996 12.0033 12.9996 11.497V4.69738C12.9996 4.54485 12.8714 4.42172 12.7126 4.42172C12.5539 4.42172 12.4257 4.54485 12.4257 4.69738V6.2832H11.1541C10.9953 6.2832 10.8672 6.40633 10.8672 6.55886C10.8672 6.71139 10.9953 6.83452 11.1541 6.83452H12.4257V11.497C12.4257 11.7 12.2545 11.8645 12.0432 11.8645H6.37265V7.11027C6.37265 6.9072 6.54384 6.74272 6.7552 6.74272H8.54073C8.69949 6.74272 8.82764 6.6196 8.82764 6.46706C8.82764 6.31453 8.69949 6.19141 8.54073 6.19141H6.7552C6.22824 6.19141 5.79883 6.60398 5.79883 7.11027V9.54705C5.76878 9.53682 5.7364 9.53125 5.70264 9.53125H2.96074C2.80198 9.53125 2.67383 9.65438 2.67383 9.80691C2.67383 9.95944 2.80198 10.0826 2.96074 10.0826H5.70264C5.7364 10.0826 5.76878 10.077 5.79883 10.0668V11.8645H1.58723C1.37587 11.8645 1.20468 11.7 1.20468 11.497V4.90093H5.6063C5.76506 4.90093 5.89321 4.7778 5.89321 4.62527C5.89321 4.47274 5.76506 4.34961 5.6063 4.34961H1.20468V1.48136C1.20468 1.27829 1.37587 1.11382 1.58723 1.11382H5.44727V2.85158C5.44727 3.00411 5.57542 3.12724 5.73418 3.12724C5.89293 3.12724 6.02109 3.00411 6.02109 2.85158V1.11382H8.935C8.95376 1.11382 8.97211 1.1121 8.98986 1.10881C9.00761 1.1121 9.02595 1.11382 9.04472 1.11382H12.041C12.2524 1.11382 12.4236 1.27829 12.4236 1.48136V2.03268C12.4236 2.18521 12.5517 2.30834 12.7105 2.30834C12.8692 2.30834 12.9974 2.18521 12.9974 2.03268V1.48136C12.9974 0.975069 12.568 0.5625 12.041 0.5625H9.04472C9.02595 0.5625 9.00761 0.564221 8.98986 0.567508C8.97211 0.564221 8.95376 0.5625 8.935 0.5625H1.58723C1.06027 0.5625 0.630859 0.975069 0.630859 1.48136V11.497C0.630859 12.0033 1.06027 12.4158 1.58723 12.4158Z" />
    </mask>
    <path fill-rule="evenodd" clip-rule="evenodd"
        d="M1.58723 12.4158H12.0432C12.5701 12.4158 12.9996 12.0033 12.9996 11.497V4.69738C12.9996 4.54485 12.8714 4.42172 12.7126 4.42172C12.5539 4.42172 12.4257 4.54485 12.4257 4.69738V6.2832H11.1541C10.9953 6.2832 10.8672 6.40633 10.8672 6.55886C10.8672 6.71139 10.9953 6.83452 11.1541 6.83452H12.4257V11.497C12.4257 11.7 12.2545 11.8645 12.0432 11.8645H6.37265V7.11027C6.37265 6.9072 6.54384 6.74272 6.7552 6.74272H8.54073C8.69949 6.74272 8.82764 6.6196 8.82764 6.46706C8.82764 6.31453 8.69949 6.19141 8.54073 6.19141H6.7552C6.22824 6.19141 5.79883 6.60398 5.79883 7.11027V9.54705C5.76878 9.53682 5.7364 9.53125 5.70264 9.53125H2.96074C2.80198 9.53125 2.67383 9.65438 2.67383 9.80691C2.67383 9.95944 2.80198 10.0826 2.96074 10.0826H5.70264C5.7364 10.0826 5.76878 10.077 5.79883 10.0668V11.8645H1.58723C1.37587 11.8645 1.20468 11.7 1.20468 11.497V4.90093H5.6063C5.76506 4.90093 5.89321 4.7778 5.89321 4.62527C5.89321 4.47274 5.76506 4.34961 5.6063 4.34961H1.20468V1.48136C1.20468 1.27829 1.37587 1.11382 1.58723 1.11382H5.44727V2.85158C5.44727 3.00411 5.57542 3.12724 5.73418 3.12724C5.89293 3.12724 6.02109 3.00411 6.02109 2.85158V1.11382H8.935C8.95376 1.11382 8.97211 1.1121 8.98986 1.10881C9.00761 1.1121 9.02595 1.11382 9.04472 1.11382H12.041C12.2524 1.11382 12.4236 1.27829 12.4236 1.48136V2.03268C12.4236 2.18521 12.5517 2.30834 12.7105 2.30834C12.8692 2.30834 12.9974 2.18521 12.9974 2.03268V1.48136C12.9974 0.975069 12.568 0.5625 12.041 0.5625H9.04472C9.02595 0.5625 9.00761 0.564221 8.98986 0.567508C8.97211 0.564221 8.95376 0.5625 8.935 0.5625H1.58723C1.06027 0.5625 0.630859 0.975069 0.630859 1.48136V11.497C0.630859 12.0033 1.06027 12.4158 1.58723 12.4158Z"
        fill="currentColor" />
    <path
        d="M12.4257 6.2832V6.4832H12.6257V6.2832H12.4257ZM12.4257 6.83452H12.6257V6.63452H12.4257V6.83452ZM6.37265 11.8645H6.17265V12.0645H6.37265V11.8645ZM5.79883 9.54705L5.73436 9.73637L5.99883 9.82644V9.54705H5.79883ZM5.79883 10.0668H5.99883V9.78738L5.73436 9.87744L5.79883 10.0668ZM5.79883 11.8645V12.0645H5.99883V11.8645H5.79883ZM1.20468 4.90093V4.70093H1.00468V4.90093H1.20468ZM1.20468 4.34961H1.00468V4.54961H1.20468V4.34961ZM5.44727 1.11382H5.64727V0.913818H5.44727V1.11382ZM6.02109 1.11382V0.913818H5.82109V1.11382H6.02109ZM8.98986 1.10881L9.02627 0.912152L8.98986 0.90541L8.95345 0.912152L8.98986 1.10881ZM8.98986 0.567508L8.95344 0.764165L8.98986 0.770908L9.02627 0.764165L8.98986 0.567508ZM12.0432 12.2158H1.58723V12.6158H12.0432V12.2158ZM12.7996 11.497C12.7996 11.8853 12.4673 12.2158 12.0432 12.2158V12.6158C12.673 12.6158 13.1996 12.1212 13.1996 11.497H12.7996ZM12.7996 4.69738V11.497H13.1996V4.69738H12.7996ZM12.7126 4.62172C12.7686 4.62172 12.7996 4.66278 12.7996 4.69738H13.1996C13.1996 4.42693 12.9742 4.22172 12.7126 4.22172V4.62172ZM12.6257 4.69738C12.6257 4.66277 12.6567 4.62172 12.7126 4.62172V4.22172C12.451 4.22172 12.2257 4.42693 12.2257 4.69738H12.6257ZM12.6257 6.2832V4.69738H12.2257V6.2832H12.6257ZM11.1541 6.4832H12.4257V6.0832H11.1541V6.4832ZM11.0672 6.55886C11.0672 6.52425 11.0982 6.4832 11.1541 6.4832V6.0832C10.8925 6.0832 10.6672 6.28841 10.6672 6.55886H11.0672ZM11.1541 6.63452C11.0982 6.63452 11.0672 6.59347 11.0672 6.55886H10.6672C10.6672 6.82932 10.8925 7.03452 11.1541 7.03452V6.63452ZM12.4257 6.63452H11.1541V7.03452H12.4257V6.63452ZM12.6257 11.497V6.83452H12.2257V11.497H12.6257ZM12.0432 12.0645C12.3574 12.0645 12.6257 11.818 12.6257 11.497H12.2257C12.2257 11.5821 12.1517 11.6645 12.0432 11.6645V12.0645ZM6.37265 12.0645H12.0432V11.6645H6.37265V12.0645ZM6.57265 11.8645V7.11027H6.17265V11.8645H6.57265ZM6.57265 7.11027C6.57265 7.02512 6.64668 6.94272 6.7552 6.94272V6.54272C6.441 6.54272 6.17265 6.78928 6.17265 7.11027H6.57265ZM6.7552 6.94272H8.54073V6.54272H6.7552V6.94272ZM8.54073 6.94272C8.80233 6.94272 9.02764 6.73752 9.02764 6.46706H8.62764C8.62764 6.50167 8.59665 6.54272 8.54073 6.54272V6.94272ZM9.02764 6.46706C9.02764 6.19661 8.80233 5.99141 8.54073 5.99141V6.39141C8.59665 6.39141 8.62764 6.43246 8.62764 6.46706H9.02764ZM8.54073 5.99141H6.7552V6.39141H8.54073V5.99141ZM6.7552 5.99141C6.1254 5.99141 5.59883 6.48605 5.59883 7.11027H5.99883C5.99883 6.7219 6.33108 6.39141 6.7552 6.39141V5.99141ZM5.59883 7.11027V9.54705H5.99883V7.11027H5.59883ZM5.8633 9.35773C5.81264 9.34048 5.75849 9.33125 5.70264 9.33125V9.73125C5.71431 9.73125 5.72491 9.73316 5.73436 9.73637L5.8633 9.35773ZM5.70264 9.33125H2.96074V9.73125H5.70264V9.33125ZM2.96074 9.33125C2.69914 9.33125 2.47383 9.53646 2.47383 9.80691H2.87383C2.87383 9.7723 2.90482 9.73125 2.96074 9.73125V9.33125ZM2.47383 9.80691C2.47383 10.0774 2.69914 10.2826 2.96074 10.2826V9.88257C2.90482 9.88257 2.87383 9.84152 2.87383 9.80691H2.47383ZM2.96074 10.2826H5.70264V9.88257H2.96074V10.2826ZM5.70264 10.2826C5.75849 10.2826 5.81264 10.2733 5.8633 10.2561L5.73436 9.87744C5.72491 9.88066 5.71431 9.88257 5.70264 9.88257V10.2826ZM5.59883 10.0668V11.8645H5.99883V10.0668H5.59883ZM1.58723 12.0645H5.79883V11.6645H1.58723V12.0645ZM1.00468 11.497C1.00468 11.818 1.27303 12.0645 1.58723 12.0645V11.6645C1.47871 11.6645 1.40468 11.5821 1.40468 11.497H1.00468ZM1.00468 4.90093V11.497H1.40468V4.90093H1.00468ZM1.20468 5.10093H5.6063V4.70093H1.20468V5.10093ZM5.6063 5.10093C5.8679 5.10093 6.09321 4.89572 6.09321 4.62527H5.69321C5.69321 4.65988 5.66222 4.70093 5.6063 4.70093V5.10093ZM6.09321 4.62527C6.09321 4.35481 5.8679 4.14961 5.6063 4.14961V4.54961C5.66221 4.54961 5.69321 4.59066 5.69321 4.62527H6.09321ZM5.6063 4.14961H1.20468V4.54961H5.6063V4.14961ZM1.00468 1.48136V4.34961H1.40468V1.48136H1.00468ZM1.58723 0.913818C1.27303 0.913818 1.00468 1.16037 1.00468 1.48136H1.40468C1.40468 1.39622 1.47871 1.31382 1.58723 1.31382V0.913818ZM5.44727 0.913818H1.58723V1.31382H5.44727V0.913818ZM5.64727 2.85158V1.11382H5.24727V2.85158H5.64727ZM5.73418 2.92724C5.67826 2.92724 5.64727 2.88619 5.64727 2.85158H5.24727C5.24727 3.12203 5.47258 3.32724 5.73418 3.32724V2.92724ZM5.82109 2.85158C5.82109 2.88619 5.79009 2.92724 5.73418 2.92724V3.32724C5.99577 3.32724 6.22109 3.12203 6.22109 2.85158H5.82109ZM5.82109 1.11382V2.85158H6.22109V1.11382H5.82109ZM8.935 0.913818H6.02109V1.31382H8.935V0.913818ZM8.95345 0.912152C8.94767 0.913222 8.94152 0.913818 8.935 0.913818V1.31382C8.96601 1.31382 8.99654 1.31097 9.02627 1.30547L8.95345 0.912152ZM8.95345 1.30547C8.98318 1.31097 9.01371 1.31382 9.04472 1.31382V0.913818C9.0382 0.913818 9.03205 0.913222 9.02627 0.912152L8.95345 1.30547ZM9.04472 1.31382H12.041V0.913818H9.04472V1.31382ZM12.041 1.31382C12.1495 1.31382 12.2236 1.39622 12.2236 1.48136H12.6236C12.6236 1.16037 12.3552 0.913818 12.041 0.913818V1.31382ZM12.2236 1.48136V2.03268H12.6236V1.48136H12.2236ZM12.2236 2.03268C12.2236 2.30313 12.4489 2.50834 12.7105 2.50834V2.10834C12.6546 2.10834 12.6236 2.06729 12.6236 2.03268H12.2236ZM12.7105 2.50834C12.9721 2.50834 13.1974 2.30313 13.1974 2.03268H12.7974C12.7974 2.06729 12.7664 2.10834 12.7105 2.10834V2.50834ZM13.1974 2.03268V1.48136H12.7974V2.03268H13.1974ZM13.1974 1.48136C13.1974 0.857147 12.6708 0.3625 12.041 0.3625V0.7625C12.4651 0.7625 12.7974 1.09299 12.7974 1.48136H13.1974ZM12.041 0.3625H9.04472V0.7625H12.041V0.3625ZM9.04472 0.3625C9.01371 0.3625 8.98318 0.365346 8.95344 0.370851L9.02627 0.764165C9.03205 0.763096 9.0382 0.7625 9.04472 0.7625V0.3625ZM8.935 0.7625C8.94152 0.7625 8.94767 0.763096 8.95344 0.764165L9.02627 0.370851C8.99654 0.365346 8.96601 0.3625 8.935 0.3625V0.7625ZM1.58723 0.7625H8.935V0.3625H1.58723V0.7625ZM0.830859 1.48136C0.830859 1.09299 1.16311 0.7625 1.58723 0.7625V0.3625C0.957428 0.3625 0.430859 0.857147 0.430859 1.48136H0.830859ZM0.830859 11.497V1.48136H0.430859V11.497H0.830859ZM1.58723 12.2158C1.16311 12.2158 0.830859 11.8853 0.830859 11.497H0.430859C0.430859 12.1212 0.957427 12.6158 1.58723 12.6158V12.2158Z"
        fill="currentColor" mask="url(#path-1-outside-1_1404_12362)" />
</svg>